<?xml version="1.0" encoding="utf-8" standalone="no"?>
<!DOCTYPE svg PUBLIC "-//W3C//DTD SVG 1.1//EN"
  "http://www.w3.org/Graphics/SVG/1.1/DTD/svg11.dtd">
<svg xmlns:xlink="http://www.w3.org/1999/xlink" width="259.360938pt" height="183.35625pt" viewBox="0 0 259.360938 183.35625" xmlns="http://www.w3.org/2000/svg" version="1.1">
 <metadata>
  <rdf:RDF xmlns:dc="http://purl.org/dc/elements/1.1/" xmlns:cc="http://creativecommons.org/ns#" xmlns:rdf="http://www.w3.org/1999/02/22-rdf-syntax-ns#">
   <cc:Work>
    <dc:type rdf:resource="http://purl.org/dc/dcmitype/StillImage"/>
    <dc:date>2024-01-31T13:40:25.707684</dc:date>
    <dc:format>image/svg+xml</dc:format>
    <dc:creator>
     <cc:Agent>
      <dc:title>Matplotlib v3.6.3, https://matplotlib.org/</dc:title>
     </cc:Agent>
    </dc:creator>
   </cc:Work>
  </rdf:RDF>
 </metadata>
 <defs>
  <style type="text/css">*{stroke-linejoin: round; stroke-linecap: butt}</style>
 </defs>
 <g id="figure_1">
  <g id="patch_1">
   <path d="M 0 183.35625 
L 259.360938 183.35625 
L 259.360938 0 
L 0 0 
L 0 183.35625 
z
" style="fill: none"/>
  </g>
  <g id="axes_1">
   <g id="patch_2">
    <path d="M 70.446875 145.8 
L 237.846875 145.8 
L 237.846875 7.2 
L 70.446875 7.2 
L 70.446875 145.8 
z
" style="fill: none"/>
   </g>
   <g id="PolyCollection_1">
    <defs>
     <path id="m5deecabbff" d="M 99.272204 -141.448644 
L 99.272204 -141.563856 
L 100.671422 -141.572103 
L 102.070639 -141.580338 
L 103.469857 -141.588556 
L 104.869075 -141.59683 
L 106.268292 -141.605285 
L 107.66751 -141.614062 
L 109.066728 -141.623266 
L 110.465946 -141.632931 
L 111.865163 -141.643014 
L 113.264381 -141.653401 
L 114.663599 -141.663955 
L 116.062816 -141.674563 
L 117.462034 -141.685189 
L 118.861252 -141.695885 
L 120.260469 -141.706782 
L 121.659687 -141.718026 
L 123.058905 -141.729703 
L 124.458122 -141.74175 
L 125.85734 -141.753909 
L 127.256558 -141.76572 
L 128.655776 -141.776599 
L 130.054993 -141.785961 
L 131.454211 -141.793386 
L 132.853429 -141.798777 
L 134.252646 -141.802468 
L 135.651864 -141.805249 
L 137.051082 -141.808288 
L 138.450299 -141.812972 
L 139.849517 -141.82067 
L 141.248735 -141.832492 
L 142.647952 -141.849071 
L 144.04717 -141.87042 
L 145.446388 -141.895891 
L 146.845606 -141.924244 
L 148.244823 -141.953826 
L 149.644041 -141.982814 
L 151.043259 -142.009488 
L 152.442476 -142.032495 
L 153.841694 -142.051021 
L 155.240912 -142.064865 
L 156.640129 -142.07438 
L 158.039347 -142.080309 
L 159.438565 -142.08354 
L 160.837782 -142.084874 
L 162.237 -142.084855 
L 163.636218 -142.083714 
L 165.035436 -142.081448 
L 166.434653 -142.078012 
L 167.833871 -142.073544 
L 169.233089 -142.068569 
L 170.632306 -142.064113 
L 172.031524 -142.061671 
L 173.430742 -142.063058 
L 174.829959 -142.070141 
L 176.229177 -142.084529 
L 177.628395 -142.107278 
L 179.027612 -142.138662 
L 180.42683 -142.178067 
L 181.826048 -142.224029 
L 183.225266 -142.274413 
L 184.624483 -142.326714 
L 186.023701 -142.378424 
L 187.422919 -142.427391 
L 188.822136 -142.472109 
L 190.221354 -142.511881 
L 191.620572 -142.546834 
L 193.019789 -142.577782 
L 194.419007 -142.605996 
L 195.818225 -142.632915 
L 197.217442 -142.65988 
L 198.61666 -142.687922 
L 200.015878 -142.717664 
L 201.415096 -142.749347 
L 202.814313 -142.782985 
L 204.213531 -142.818643 
L 205.612749 -142.856803 
L 207.011966 -142.898784 
L 208.411184 -142.947168 
L 209.810402 -143.006184 
L 211.209619 -143.082033 
L 212.608837 -143.183119 
L 214.008055 -143.320199 
L 215.407272 -143.506379 
L 216.80649 -143.756888 
L 218.205708 -144.088439 
L 219.604926 -144.517939 
L 221.004143 -145.060331 
L 222.403361 -145.725435 
L 223.802579 -146.513957 
L 225.201796 -147.413193 
L 226.601014 -148.393392 
L 228.000232 -149.406007 
L 229.399449 -150.385036 
L 230.798667 -151.252232 
L 232.197885 -151.926065 
L 233.597102 -152.333273 
L 234.99632 -152.420842 
L 236.395538 -152.165777 
L 237.794756 -151.580237 
L 237.794756 -131.432263 
L 237.794756 -131.432263 
L 236.395538 -130.846723 
L 234.99632 -130.591658 
L 233.597102 -130.679227 
L 232.197885 -131.086435 
L 230.798667 -131.760268 
L 229.399449 -132.627464 
L 228.000232 -133.606493 
L 226.601014 -134.619108 
L 225.201796 -135.599307 
L 223.802579 -136.498543 
L 222.403361 -137.287065 
L 221.004143 -137.952169 
L 219.604926 -138.494561 
L 218.205708 -138.924061 
L 216.80649 -139.255612 
L 215.407272 -139.506121 
L 214.008055 -139.692301 
L 212.608837 -139.829381 
L 211.209619 -139.930467 
L 209.810402 -140.006316 
L 208.411184 -140.065332 
L 207.011966 -140.113716 
L 205.612749 -140.155697 
L 204.213531 -140.193857 
L 202.814313 -140.229515 
L 201.415096 -140.263153 
L 200.015878 -140.294836 
L 198.61666 -140.324578 
L 197.217442 -140.35262 
L 195.818225 -140.379585 
L 194.419007 -140.406504 
L 193.019789 -140.434718 
L 191.620572 -140.465666 
L 190.221354 -140.500619 
L 188.822136 -140.540391 
L 187.422919 -140.585109 
L 186.023701 -140.634076 
L 184.624483 -140.685786 
L 183.225266 -140.738087 
L 181.826048 -140.788471 
L 180.42683 -140.834433 
L 179.027612 -140.873838 
L 177.628395 -140.905222 
L 176.229177 -140.927971 
L 174.829959 -140.942359 
L 173.430742 -140.949442 
L 172.031524 -140.950829 
L 170.632306 -140.948387 
L 169.233089 -140.943931 
L 167.833871 -140.938956 
L 166.434653 -140.934488 
L 165.035436 -140.931052 
L 163.636218 -140.928786 
L 162.237 -140.927645 
L 160.837782 -140.927626 
L 159.438565 -140.92896 
L 158.039347 -140.932191 
L 156.640129 -140.93812 
L 155.240912 -140.947635 
L 153.841694 -140.961479 
L 152.442476 -140.980005 
L 151.043259 -141.003012 
L 149.644041 -141.029686 
L 148.244823 -141.058674 
L 146.845606 -141.088256 
L 145.446388 -141.116609 
L 144.04717 -141.14208 
L 142.647952 -141.163429 
L 141.248735 -141.180008 
L 139.849517 -141.19183 
L 138.450299 -141.199528 
L 137.051082 -141.204212 
L 135.651864 -141.207251 
L 134.252646 -141.210032 
L 132.853429 -141.213723 
L 131.454211 -141.219114 
L 130.054993 -141.226539 
L 128.655776 -141.235901 
L 127.256558 -141.24678 
L 125.85734 -141.258591 
L 124.458122 -141.27075 
L 123.058905 -141.282797 
L 121.659687 -141.294474 
L 120.260469 -141.305718 
L 118.861252 -141.316615 
L 117.462034 -141.327311 
L 116.062816 -141.337937 
L 114.663599 -141.348545 
L 113.264381 -141.359099 
L 111.865163 -141.369486 
L 110.465946 -141.379569 
L 109.066728 -141.389234 
L 107.66751 -141.398438 
L 106.268292 -141.407215 
L 104.869075 -141.41567 
L 103.469857 -141.423944 
L 102.070639 -141.432162 
L 100.671422 -141.440397 
L 99.272204 -141.448644 
z
" style="stroke: #3f3f3f; stroke-width: 1.5"/>
    </defs>
    <g clip-path="url(#p10e5cd63db)">
     <use xlink:href="#m5deecabbff" x="0" y="183.35625" style="fill: #3274a1; stroke: #3f3f3f; stroke-width: 1.5"/>
    </g>
   </g>
   <g id="PolyCollection_2">
    <defs>
     <path id="mb9be41aea5" d="M 158.897642 -71.91325 
L 158.897642 -72.49925 
L 159.694147 -72.491167 
L 160.490652 -72.468234 
L 161.287158 -72.434039 
L 162.083663 -72.393531 
L 162.880168 -72.351849 
L 163.676673 -72.313285 
L 164.473178 -72.280654 
L 165.269683 -72.255157 
L 166.066188 -72.236648 
L 166.862693 -72.224116 
L 167.659198 -72.216179 
L 168.455703 -72.211468 
L 169.252209 -72.208843 
L 170.048714 -72.207468 
L 170.845219 -72.206791 
L 171.641724 -72.206477 
L 172.438229 -72.20634 
L 173.234734 -72.206284 
L 174.031239 -72.206262 
L 174.827744 -72.206254 
L 175.624249 -72.206251 
L 176.420754 -72.20625 
L 177.21726 -72.20625 
L 178.013765 -72.20625 
L 178.81027 -72.206251 
L 179.606775 -72.206255 
L 180.40328 -72.206263 
L 181.199785 -72.206288 
L 181.99629 -72.20635 
L 182.792795 -72.2065 
L 183.5893 -72.206841 
L 184.385805 -72.207572 
L 185.182311 -72.209047 
L 185.978816 -72.211846 
L 186.775321 -72.216836 
L 187.571826 -72.225186 
L 188.368331 -72.238281 
L 189.164836 -72.257483 
L 189.961341 -72.283739 
L 190.757846 -72.317073 
L 191.554351 -72.356122 
L 192.350856 -72.397904 
L 193.147362 -72.437999 
L 193.943867 -72.471234 
L 194.740372 -72.492751 
L 195.536877 -72.49916 
L 196.333382 -72.48942 
L 197.129887 -72.465109 
L 197.926392 -72.43001 
L 198.722897 -72.389147 
L 199.519402 -72.347615 
L 200.315907 -72.309577 
L 201.112413 -72.277687 
L 201.908918 -72.253013 
L 202.705423 -72.235352 
L 203.501928 -72.223756 
L 204.298433 -72.217079 
L 205.094938 -72.214431 
L 205.891443 -72.215506 
L 206.687948 -72.220773 
L 207.484453 -72.231553 
L 208.280959 -72.249941 
L 209.077464 -72.278524 
L 209.873969 -72.319831 
L 210.670474 -72.37555 
L 211.466979 -72.445661 
L 212.263484 -72.527763 
L 213.059989 -72.616992 
L 213.856494 -72.706765 
L 214.652999 -72.79038 
L 215.449504 -72.863096 
L 216.24601 -72.924024 
L 217.042515 -72.977116 
L 217.83902 -73.030789 
L 218.635525 -73.096263 
L 219.43203 -73.185176 
L 220.228535 -73.307334 
L 221.02504 -73.469367 
L 221.821545 -73.674714 
L 222.61805 -73.924967 
L 223.414555 -74.222359 
L 224.211061 -74.573177 
L 225.007566 -74.991875 
L 225.804071 -75.505507 
L 226.600576 -76.157564 
L 227.397081 -77.009501 
L 228.193586 -78.137641 
L 228.990091 -79.623122 
L 229.786596 -81.53372 
L 230.583101 -83.898759 
L 231.379606 -86.681581 
L 232.176112 -89.757246 
L 232.972617 -92.904751 
L 233.769122 -95.821814 
L 234.565627 -98.165217 
L 235.362132 -99.611749 
L 236.158637 -99.92625 
L 236.955142 -99.017929 
L 237.751647 -96.967024 
L 237.751647 -47.445476 
L 237.751647 -47.445476 
L 236.955142 -45.394571 
L 236.158637 -44.48625 
L 235.362132 -44.800751 
L 234.565627 -46.247283 
L 233.769122 -48.590686 
L 232.972617 -51.507749 
L 232.176112 -54.655254 
L 231.379606 -57.730919 
L 230.583101 -60.513741 
L 229.786596 -62.87878 
L 228.990091 -64.789378 
L 228.193586 -66.274859 
L 227.397081 -67.402999 
L 226.600576 -68.254936 
L 225.804071 -68.906993 
L 225.007566 -69.420625 
L 224.211061 -69.839323 
L 223.414555 -70.190141 
L 222.61805 -70.487533 
L 221.821545 -70.737786 
L 221.02504 -70.943133 
L 220.228535 -71.105166 
L 219.43203 -71.227324 
L 218.635525 -71.316237 
L 217.83902 -71.381711 
L 217.042515 -71.435384 
L 216.24601 -71.488476 
L 215.449504 -71.549404 
L 214.652999 -71.62212 
L 213.856494 -71.705735 
L 213.059989 -71.795508 
L 212.263484 -71.884737 
L 211.466979 -71.966839 
L 210.670474 -72.03695 
L 209.873969 -72.092669 
L 209.077464 -72.133976 
L 208.280959 -72.162559 
L 207.484453 -72.180947 
L 206.687948 -72.191727 
L 205.891443 -72.196994 
L 205.094938 -72.198069 
L 204.298433 -72.195421 
L 203.501928 -72.188744 
L 202.705423 -72.177148 
L 201.908918 -72.159487 
L 201.112413 -72.134813 
L 200.315907 -72.102923 
L 199.519402 -72.064885 
L 198.722897 -72.023353 
L 197.926392 -71.98249 
L 197.129887 -71.947391 
L 196.333382 -71.92308 
L 195.536877 -71.91334 
L 194.740372 -71.919749 
L 193.943867 -71.941266 
L 193.147362 -71.974501 
L 192.350856 -72.014596 
L 191.554351 -72.056378 
L 190.757846 -72.095427 
L 189.961341 -72.128761 
L 189.164836 -72.155017 
L 188.368331 -72.174219 
L 187.571826 -72.187314 
L 186.775321 -72.195664 
L 185.978816 -72.200654 
L 185.182311 -72.203453 
L 184.385805 -72.204928 
L 183.5893 -72.205659 
L 182.792795 -72.206 
L 181.99629 -72.20615 
L 181.199785 -72.206212 
L 180.40328 -72.206237 
L 179.606775 -72.206245 
L 178.81027 -72.206249 
L 178.013765 -72.20625 
L 177.21726 -72.20625 
L 176.420754 -72.20625 
L 175.624249 -72.206249 
L 174.827744 -72.206246 
L 174.031239 -72.206238 
L 173.234734 -72.206216 
L 172.438229 -72.20616 
L 171.641724 -72.206023 
L 170.845219 -72.205709 
L 170.048714 -72.205032 
L 169.252209 -72.203657 
L 168.455703 -72.201032 
L 167.659198 -72.196321 
L 166.862693 -72.188384 
L 166.066188 -72.175852 
L 165.269683 -72.157343 
L 164.473178 -72.131846 
L 163.676673 -72.099215 
L 162.880168 -72.060651 
L 162.083663 -72.018969 
L 161.287158 -71.978461 
L 160.490652 -71.944266 
L 159.694147 -71.921333 
L 158.897642 -71.91325 
z
" style="stroke: #3f3f3f; stroke-width: 1.5"/>
    </defs>
    <g clip-path="url(#p10e5cd63db)">
     <use xlink:href="#mb9be41aea5" x="0" y="183.35625" style="fill: #e1812c; stroke: #3f3f3f; stroke-width: 1.5"/>
    </g>
   </g>
   <g id="matplotlib.axis_1">
    <g id="xtick_1">
     <g id="line2d_1">
      <defs>
       <path id="md2e2b73a38" d="M 0 0 
L 0 3.5 
" style="stroke: #000000; stroke-width: 0.8"/>
      </defs>
      <g>
       <use xlink:href="#md2e2b73a38" x="70.446875" y="145.8" style="stroke: #000000; stroke-width: 0.8"/>
      </g>
     </g>
     <g id="text_1">
      <!-- 0 -->
      <g transform="translate(67.265625 160.398438) scale(0.1 -0.1)">
       <defs>
        <path id="DejaVuSans-30" d="M 2034 4250 
Q 1547 4250 1301 3770 
Q 1056 3291 1056 2328 
Q 1056 1369 1301 889 
Q 1547 409 2034 409 
Q 2525 409 2770 889 
Q 3016 1369 3016 2328 
Q 3016 3291 2770 3770 
Q 2525 4250 2034 4250 
z
M 2034 4750 
Q 2819 4750 3233 4129 
Q 3647 3509 3647 2328 
Q 3647 1150 3233 529 
Q 2819 -91 2034 -91 
Q 1250 -91 836 529 
Q 422 1150 422 2328 
Q 422 3509 836 4129 
Q 1250 4750 2034 4750 
z
" transform="scale(0.015625)"/>
       </defs>
       <use xlink:href="#DejaVuSans-30"/>
      </g>
     </g>
    </g>
    <g id="xtick_2">
     <g id="line2d_2">
      <g>
       <use xlink:href="#md2e2b73a38" x="103.926875" y="145.8" style="stroke: #000000; stroke-width: 0.8"/>
      </g>
     </g>
     <g id="text_2">
      <!-- 200 -->
      <g transform="translate(94.383125 160.398438) scale(0.1 -0.1)">
       <defs>
        <path id="DejaVuSans-32" d="M 1228 531 
L 3431 531 
L 3431 0 
L 469 0 
L 469 531 
Q 828 903 1448 1529 
Q 2069 2156 2228 2338 
Q 2531 2678 2651 2914 
Q 2772 3150 2772 3378 
Q 2772 3750 2511 3984 
Q 2250 4219 1831 4219 
Q 1534 4219 1204 4116 
Q 875 4013 500 3803 
L 500 4441 
Q 881 4594 1212 4672 
Q 1544 4750 1819 4750 
Q 2544 4750 2975 4387 
Q 3406 4025 3406 3419 
Q 3406 3131 3298 2873 
Q 3191 2616 2906 2266 
Q 2828 2175 2409 1742 
Q 1991 1309 1228 531 
z
" transform="scale(0.015625)"/>
       </defs>
       <use xlink:href="#DejaVuSans-32"/>
       <use xlink:href="#DejaVuSans-30" x="63.623047"/>
       <use xlink:href="#DejaVuSans-30" x="127.246094"/>
      </g>
     </g>
    </g>
    <g id="xtick_3">
     <g id="line2d_3">
      <g>
       <use xlink:href="#md2e2b73a38" x="137.406875" y="145.8" style="stroke: #000000; stroke-width: 0.8"/>
      </g>
     </g>
     <g id="text_3">
      <!-- 400 -->
      <g transform="translate(127.863125 160.398438) scale(0.1 -0.1)">
       <defs>
        <path id="DejaVuSans-34" d="M 2419 4116 
L 825 1625 
L 2419 1625 
L 2419 4116 
z
M 2253 4666 
L 3047 4666 
L 3047 1625 
L 3713 1625 
L 3713 1100 
L 3047 1100 
L 3047 0 
L 2419 0 
L 2419 1100 
L 313 1100 
L 313 1709 
L 2253 4666 
z
" transform="scale(0.015625)"/>
       </defs>
       <use xlink:href="#DejaVuSans-34"/>
       <use xlink:href="#DejaVuSans-30" x="63.623047"/>
       <use xlink:href="#DejaVuSans-30" x="127.246094"/>
      </g>
     </g>
    </g>
    <g id="xtick_4">
     <g id="line2d_4">
      <g>
       <use xlink:href="#md2e2b73a38" x="170.886875" y="145.8" style="stroke: #000000; stroke-width: 0.8"/>
      </g>
     </g>
     <g id="text_4">
      <!-- 600 -->
      <g transform="translate(161.343125 160.398438) scale(0.1 -0.1)">
       <defs>
        <path id="DejaVuSans-36" d="M 2113 2584 
Q 1688 2584 1439 2293 
Q 1191 2003 1191 1497 
Q 1191 994 1439 701 
Q 1688 409 2113 409 
Q 2538 409 2786 701 
Q 3034 994 3034 1497 
Q 3034 2003 2786 2293 
Q 2538 2584 2113 2584 
z
M 3366 4563 
L 3366 3988 
Q 3128 4100 2886 4159 
Q 2644 4219 2406 4219 
Q 1781 4219 1451 3797 
Q 1122 3375 1075 2522 
Q 1259 2794 1537 2939 
Q 1816 3084 2150 3084 
Q 2853 3084 3261 2657 
Q 3669 2231 3669 1497 
Q 3669 778 3244 343 
Q 2819 -91 2113 -91 
Q 1303 -91 875 529 
Q 447 1150 447 2328 
Q 447 3434 972 4092 
Q 1497 4750 2381 4750 
Q 2619 4750 2861 4703 
Q 3103 4656 3366 4563 
z
" transform="scale(0.015625)"/>
       </defs>
       <use xlink:href="#DejaVuSans-36"/>
       <use xlink:href="#DejaVuSans-30" x="63.623047"/>
       <use xlink:href="#DejaVuSans-30" x="127.246094"/>
      </g>
     </g>
    </g>
    <g id="xtick_5">
     <g id="line2d_5">
      <g>
       <use xlink:href="#md2e2b73a38" x="204.366875" y="145.8" style="stroke: #000000; stroke-width: 0.8"/>
      </g>
     </g>
     <g id="text_5">
      <!-- 800 -->
      <g transform="translate(194.823125 160.398438) scale(0.1 -0.1)">
       <defs>
        <path id="DejaVuSans-38" d="M 2034 2216 
Q 1584 2216 1326 1975 
Q 1069 1734 1069 1313 
Q 1069 891 1326 650 
Q 1584 409 2034 409 
Q 2484 409 2743 651 
Q 3003 894 3003 1313 
Q 3003 1734 2745 1975 
Q 2488 2216 2034 2216 
z
M 1403 2484 
Q 997 2584 770 2862 
Q 544 3141 544 3541 
Q 544 4100 942 4425 
Q 1341 4750 2034 4750 
Q 2731 4750 3128 4425 
Q 3525 4100 3525 3541 
Q 3525 3141 3298 2862 
Q 3072 2584 2669 2484 
Q 3125 2378 3379 2068 
Q 3634 1759 3634 1313 
Q 3634 634 3220 271 
Q 2806 -91 2034 -91 
Q 1263 -91 848 271 
Q 434 634 434 1313 
Q 434 1759 690 2068 
Q 947 2378 1403 2484 
z
M 1172 3481 
Q 1172 3119 1398 2916 
Q 1625 2713 2034 2713 
Q 2441 2713 2670 2916 
Q 2900 3119 2900 3481 
Q 2900 3844 2670 4047 
Q 2441 4250 2034 4250 
Q 1625 4250 1398 4047 
Q 1172 3844 1172 3481 
z
" transform="scale(0.015625)"/>
       </defs>
       <use xlink:href="#DejaVuSans-38"/>
       <use xlink:href="#DejaVuSans-30" x="63.623047"/>
       <use xlink:href="#DejaVuSans-30" x="127.246094"/>
      </g>
     </g>
    </g>
    <g id="xtick_6">
     <g id="line2d_6">
      <g>
       <use xlink:href="#md2e2b73a38" x="237.846875" y="145.8" style="stroke: #000000; stroke-width: 0.8"/>
      </g>
     </g>
     <g id="text_6">
      <!-- 1,000 -->
      <g transform="translate(223.532813 160.398438) scale(0.1 -0.1)">
       <defs>
        <path id="DejaVuSans-31" d="M 794 531 
L 1825 531 
L 1825 4091 
L 703 3866 
L 703 4441 
L 1819 4666 
L 2450 4666 
L 2450 531 
L 3481 531 
L 3481 0 
L 794 0 
L 794 531 
z
" transform="scale(0.015625)"/>
        <path id="DejaVuSans-2c" d="M 750 794 
L 1409 794 
L 1409 256 
L 897 -744 
L 494 -744 
L 750 256 
L 750 794 
z
" transform="scale(0.015625)"/>
       </defs>
       <use xlink:href="#DejaVuSans-31"/>
       <use xlink:href="#DejaVuSans-2c" x="63.623047"/>
       <use xlink:href="#DejaVuSans-30" x="95.410156"/>
       <use xlink:href="#DejaVuSans-30" x="159.033203"/>
       <use xlink:href="#DejaVuSans-30" x="222.65625"/>
      </g>
     </g>
    </g>
    <g id="text_7">
     <!-- Combined pocket score -->
     <g transform="translate(95.398438 174.076563) scale(0.1 -0.1)">
      <defs>
       <path id="DejaVuSans-43" d="M 4122 4306 
L 4122 3641 
Q 3803 3938 3442 4084 
Q 3081 4231 2675 4231 
Q 1875 4231 1450 3742 
Q 1025 3253 1025 2328 
Q 1025 1406 1450 917 
Q 1875 428 2675 428 
Q 3081 428 3442 575 
Q 3803 722 4122 1019 
L 4122 359 
Q 3791 134 3420 21 
Q 3050 -91 2638 -91 
Q 1578 -91 968 557 
Q 359 1206 359 2328 
Q 359 3453 968 4101 
Q 1578 4750 2638 4750 
Q 3056 4750 3426 4639 
Q 3797 4528 4122 4306 
z
" transform="scale(0.015625)"/>
       <path id="DejaVuSans-6f" d="M 1959 3097 
Q 1497 3097 1228 2736 
Q 959 2375 959 1747 
Q 959 1119 1226 758 
Q 1494 397 1959 397 
Q 2419 397 2687 759 
Q 2956 1122 2956 1747 
Q 2956 2369 2687 2733 
Q 2419 3097 1959 3097 
z
M 1959 3584 
Q 2709 3584 3137 3096 
Q 3566 2609 3566 1747 
Q 3566 888 3137 398 
Q 2709 -91 1959 -91 
Q 1206 -91 779 398 
Q 353 888 353 1747 
Q 353 2609 779 3096 
Q 1206 3584 1959 3584 
z
" transform="scale(0.015625)"/>
       <path id="DejaVuSans-6d" d="M 3328 2828 
Q 3544 3216 3844 3400 
Q 4144 3584 4550 3584 
Q 5097 3584 5394 3201 
Q 5691 2819 5691 2113 
L 5691 0 
L 5113 0 
L 5113 2094 
Q 5113 2597 4934 2840 
Q 4756 3084 4391 3084 
Q 3944 3084 3684 2787 
Q 3425 2491 3425 1978 
L 3425 0 
L 2847 0 
L 2847 2094 
Q 2847 2600 2669 2842 
Q 2491 3084 2119 3084 
Q 1678 3084 1418 2786 
Q 1159 2488 1159 1978 
L 1159 0 
L 581 0 
L 581 3500 
L 1159 3500 
L 1159 2956 
Q 1356 3278 1631 3431 
Q 1906 3584 2284 3584 
Q 2666 3584 2933 3390 
Q 3200 3197 3328 2828 
z
" transform="scale(0.015625)"/>
       <path id="DejaVuSans-62" d="M 3116 1747 
Q 3116 2381 2855 2742 
Q 2594 3103 2138 3103 
Q 1681 3103 1420 2742 
Q 1159 2381 1159 1747 
Q 1159 1113 1420 752 
Q 1681 391 2138 391 
Q 2594 391 2855 752 
Q 3116 1113 3116 1747 
z
M 1159 2969 
Q 1341 3281 1617 3432 
Q 1894 3584 2278 3584 
Q 2916 3584 3314 3078 
Q 3713 2572 3713 1747 
Q 3713 922 3314 415 
Q 2916 -91 2278 -91 
Q 1894 -91 1617 61 
Q 1341 213 1159 525 
L 1159 0 
L 581 0 
L 581 4863 
L 1159 4863 
L 1159 2969 
z
" transform="scale(0.015625)"/>
       <path id="DejaVuSans-69" d="M 603 3500 
L 1178 3500 
L 1178 0 
L 603 0 
L 603 3500 
z
M 603 4863 
L 1178 4863 
L 1178 4134 
L 603 4134 
L 603 4863 
z
" transform="scale(0.015625)"/>
       <path id="DejaVuSans-6e" d="M 3513 2113 
L 3513 0 
L 2938 0 
L 2938 2094 
Q 2938 2591 2744 2837 
Q 2550 3084 2163 3084 
Q 1697 3084 1428 2787 
Q 1159 2491 1159 1978 
L 1159 0 
L 581 0 
L 581 3500 
L 1159 3500 
L 1159 2956 
Q 1366 3272 1645 3428 
Q 1925 3584 2291 3584 
Q 2894 3584 3203 3211 
Q 3513 2838 3513 2113 
z
" transform="scale(0.015625)"/>
       <path id="DejaVuSans-65" d="M 3597 1894 
L 3597 1613 
L 953 1613 
Q 991 1019 1311 708 
Q 1631 397 2203 397 
Q 2534 397 2845 478 
Q 3156 559 3463 722 
L 3463 178 
Q 3153 47 2828 -22 
Q 2503 -91 2169 -91 
Q 1331 -91 842 396 
Q 353 884 353 1716 
Q 353 2575 817 3079 
Q 1281 3584 2069 3584 
Q 2775 3584 3186 3129 
Q 3597 2675 3597 1894 
z
M 3022 2063 
Q 3016 2534 2758 2815 
Q 2500 3097 2075 3097 
Q 1594 3097 1305 2825 
Q 1016 2553 972 2059 
L 3022 2063 
z
" transform="scale(0.015625)"/>
       <path id="DejaVuSans-64" d="M 2906 2969 
L 2906 4863 
L 3481 4863 
L 3481 0 
L 2906 0 
L 2906 525 
Q 2725 213 2448 61 
Q 2172 -91 1784 -91 
Q 1150 -91 751 415 
Q 353 922 353 1747 
Q 353 2572 751 3078 
Q 1150 3584 1784 3584 
Q 2172 3584 2448 3432 
Q 2725 3281 2906 2969 
z
M 947 1747 
Q 947 1113 1208 752 
Q 1469 391 1925 391 
Q 2381 391 2643 752 
Q 2906 1113 2906 1747 
Q 2906 2381 2643 2742 
Q 2381 3103 1925 3103 
Q 1469 3103 1208 2742 
Q 947 2381 947 1747 
z
" transform="scale(0.015625)"/>
       <path id="DejaVuSans-20" transform="scale(0.015625)"/>
       <path id="DejaVuSans-70" d="M 1159 525 
L 1159 -1331 
L 581 -1331 
L 581 3500 
L 1159 3500 
L 1159 2969 
Q 1341 3281 1617 3432 
Q 1894 3584 2278 3584 
Q 2916 3584 3314 3078 
Q 3713 2572 3713 1747 
Q 3713 922 3314 415 
Q 2916 -91 2278 -91 
Q 1894 -91 1617 61 
Q 1341 213 1159 525 
z
M 3116 1747 
Q 3116 2381 2855 2742 
Q 2594 3103 2138 3103 
Q 1681 3103 1420 2742 
Q 1159 2381 1159 1747 
Q 1159 1113 1420 752 
Q 1681 391 2138 391 
Q 2594 391 2855 752 
Q 3116 1113 3116 1747 
z
" transform="scale(0.015625)"/>
       <path id="DejaVuSans-63" d="M 3122 3366 
L 3122 2828 
Q 2878 2963 2633 3030 
Q 2388 3097 2138 3097 
Q 1578 3097 1268 2742 
Q 959 2388 959 1747 
Q 959 1106 1268 751 
Q 1578 397 2138 397 
Q 2388 397 2633 464 
Q 2878 531 3122 666 
L 3122 134 
Q 2881 22 2623 -34 
Q 2366 -91 2075 -91 
Q 1284 -91 818 406 
Q 353 903 353 1747 
Q 353 2603 823 3093 
Q 1294 3584 2113 3584 
Q 2378 3584 2631 3529 
Q 2884 3475 3122 3366 
z
" transform="scale(0.015625)"/>
       <path id="DejaVuSans-6b" d="M 581 4863 
L 1159 4863 
L 1159 1991 
L 2875 3500 
L 3609 3500 
L 1753 1863 
L 3688 0 
L 2938 0 
L 1159 1709 
L 1159 0 
L 581 0 
L 581 4863 
z
" transform="scale(0.015625)"/>
       <path id="DejaVuSans-74" d="M 1172 4494 
L 1172 3500 
L 2356 3500 
L 2356 3053 
L 1172 3053 
L 1172 1153 
Q 1172 725 1289 603 
Q 1406 481 1766 481 
L 2356 481 
L 2356 0 
L 1766 0 
Q 1100 0 847 248 
Q 594 497 594 1153 
L 594 3053 
L 172 3053 
L 172 3500 
L 594 3500 
L 594 4494 
L 1172 4494 
z
" transform="scale(0.015625)"/>
       <path id="DejaVuSans-73" d="M 2834 3397 
L 2834 2853 
Q 2591 2978 2328 3040 
Q 2066 3103 1784 3103 
Q 1356 3103 1142 2972 
Q 928 2841 928 2578 
Q 928 2378 1081 2264 
Q 1234 2150 1697 2047 
L 1894 2003 
Q 2506 1872 2764 1633 
Q 3022 1394 3022 966 
Q 3022 478 2636 193 
Q 2250 -91 1575 -91 
Q 1294 -91 989 -36 
Q 684 19 347 128 
L 347 722 
Q 666 556 975 473 
Q 1284 391 1588 391 
Q 1994 391 2212 530 
Q 2431 669 2431 922 
Q 2431 1156 2273 1281 
Q 2116 1406 1581 1522 
L 1381 1569 
Q 847 1681 609 1914 
Q 372 2147 372 2553 
Q 372 3047 722 3315 
Q 1072 3584 1716 3584 
Q 2034 3584 2315 3537 
Q 2597 3491 2834 3397 
z
" transform="scale(0.015625)"/>
       <path id="DejaVuSans-72" d="M 2631 2963 
Q 2534 3019 2420 3045 
Q 2306 3072 2169 3072 
Q 1681 3072 1420 2755 
Q 1159 2438 1159 1844 
L 1159 0 
L 581 0 
L 581 3500 
L 1159 3500 
L 1159 2956 
Q 1341 3275 1631 3429 
Q 1922 3584 2338 3584 
Q 2397 3584 2469 3576 
Q 2541 3569 2628 3553 
L 2631 2963 
z
" transform="scale(0.015625)"/>
      </defs>
      <use xlink:href="#DejaVuSans-43"/>
      <use xlink:href="#DejaVuSans-6f" x="69.824219"/>
      <use xlink:href="#DejaVuSans-6d" x="131.005859"/>
      <use xlink:href="#DejaVuSans-62" x="228.417969"/>
      <use xlink:href="#DejaVuSans-69" x="291.894531"/>
      <use xlink:href="#DejaVuSans-6e" x="319.677734"/>
      <use xlink:href="#DejaVuSans-65" x="383.056641"/>
      <use xlink:href="#DejaVuSans-64" x="444.580078"/>
      <use xlink:href="#DejaVuSans-20" x="508.056641"/>
      <use xlink:href="#DejaVuSans-70" x="539.84375"/>
      <use xlink:href="#DejaVuSans-6f" x="603.320312"/>
      <use xlink:href="#DejaVuSans-63" x="664.501953"/>
      <use xlink:href="#DejaVuSans-6b" x="719.482422"/>
      <use xlink:href="#DejaVuSans-65" x="773.767578"/>
      <use xlink:href="#DejaVuSans-74" x="835.291016"/>
      <use xlink:href="#DejaVuSans-20" x="874.5"/>
      <use xlink:href="#DejaVuSans-73" x="906.287109"/>
      <use xlink:href="#DejaVuSans-63" x="958.386719"/>
      <use xlink:href="#DejaVuSans-6f" x="1013.367188"/>
      <use xlink:href="#DejaVuSans-72" x="1074.548828"/>
      <use xlink:href="#DejaVuSans-65" x="1113.412109"/>
     </g>
    </g>
   </g>
   <g id="matplotlib.axis_2">
    <g id="ytick_1">
     <g id="line2d_7">
      <defs>
       <path id="m2ee6023fbf" d="M 0 0 
L -3.5 0 
" style="stroke: #000000; stroke-width: 0.8"/>
      </defs>
      <g>
       <use xlink:href="#m2ee6023fbf" x="70.446875" y="41.85" style="stroke: #000000; stroke-width: 0.8"/>
      </g>
     </g>
     <g id="text_8">
      <!-- known -->
      <g transform="translate(30.684375 35.21125) scale(0.1 -0.1)">
       <defs>
        <path id="DejaVuSans-77" d="M 269 3500 
L 844 3500 
L 1563 769 
L 2278 3500 
L 2956 3500 
L 3675 769 
L 4391 3500 
L 4966 3500 
L 4050 0 
L 3372 0 
L 2619 2869 
L 1863 0 
L 1184 0 
L 269 3500 
z
" transform="scale(0.015625)"/>
       </defs>
       <use xlink:href="#DejaVuSans-6b"/>
       <use xlink:href="#DejaVuSans-6e" x="57.910156"/>
       <use xlink:href="#DejaVuSans-6f" x="121.289062"/>
       <use xlink:href="#DejaVuSans-77" x="182.470703"/>
       <use xlink:href="#DejaVuSans-6e" x="264.257812"/>
      </g>
      <!-- binding -->
      <g transform="translate(26.170313 46.409063) scale(0.1 -0.1)">
       <defs>
        <path id="DejaVuSans-67" d="M 2906 1791 
Q 2906 2416 2648 2759 
Q 2391 3103 1925 3103 
Q 1463 3103 1205 2759 
Q 947 2416 947 1791 
Q 947 1169 1205 825 
Q 1463 481 1925 481 
Q 2391 481 2648 825 
Q 2906 1169 2906 1791 
z
M 3481 434 
Q 3481 -459 3084 -895 
Q 2688 -1331 1869 -1331 
Q 1566 -1331 1297 -1286 
Q 1028 -1241 775 -1147 
L 775 -588 
Q 1028 -725 1275 -790 
Q 1522 -856 1778 -856 
Q 2344 -856 2625 -561 
Q 2906 -266 2906 331 
L 2906 616 
Q 2728 306 2450 153 
Q 2172 0 1784 0 
Q 1141 0 747 490 
Q 353 981 353 1791 
Q 353 2603 747 3093 
Q 1141 3584 1784 3584 
Q 2172 3584 2450 3431 
Q 2728 3278 2906 2969 
L 2906 3500 
L 3481 3500 
L 3481 434 
z
" transform="scale(0.015625)"/>
       </defs>
       <use xlink:href="#DejaVuSans-62"/>
       <use xlink:href="#DejaVuSans-69" x="63.476562"/>
       <use xlink:href="#DejaVuSans-6e" x="91.259766"/>
       <use xlink:href="#DejaVuSans-64" x="154.638672"/>
       <use xlink:href="#DejaVuSans-69" x="218.115234"/>
       <use xlink:href="#DejaVuSans-6e" x="245.898438"/>
       <use xlink:href="#DejaVuSans-67" x="309.277344"/>
      </g>
      <!-- site -->
      <g transform="translate(45.385938 57.606875) scale(0.1 -0.1)">
       <use xlink:href="#DejaVuSans-73"/>
       <use xlink:href="#DejaVuSans-69" x="52.099609"/>
       <use xlink:href="#DejaVuSans-74" x="79.882812"/>
       <use xlink:href="#DejaVuSans-65" x="119.091797"/>
      </g>
     </g>
    </g>
    <g id="ytick_2">
     <g id="line2d_8">
      <g>
       <use xlink:href="#m2ee6023fbf" x="70.446875" y="111.15" style="stroke: #000000; stroke-width: 0.8"/>
      </g>
     </g>
     <g id="text_9">
      <!-- enzyme -->
      <g transform="translate(23.895313 104.51125) scale(0.1 -0.1)">
       <defs>
        <path id="DejaVuSans-7a" d="M 353 3500 
L 3084 3500 
L 3084 2975 
L 922 459 
L 3084 459 
L 3084 0 
L 275 0 
L 275 525 
L 2438 3041 
L 353 3041 
L 353 3500 
z
" transform="scale(0.015625)"/>
        <path id="DejaVuSans-79" d="M 2059 -325 
Q 1816 -950 1584 -1140 
Q 1353 -1331 966 -1331 
L 506 -1331 
L 506 -850 
L 844 -850 
Q 1081 -850 1212 -737 
Q 1344 -625 1503 -206 
L 1606 56 
L 191 3500 
L 800 3500 
L 1894 763 
L 2988 3500 
L 3597 3500 
L 2059 -325 
z
" transform="scale(0.015625)"/>
       </defs>
       <use xlink:href="#DejaVuSans-65"/>
       <use xlink:href="#DejaVuSans-6e" x="61.523438"/>
       <use xlink:href="#DejaVuSans-7a" x="124.902344"/>
       <use xlink:href="#DejaVuSans-79" x="177.392578"/>
       <use xlink:href="#DejaVuSans-6d" x="236.572266"/>
       <use xlink:href="#DejaVuSans-65" x="333.984375"/>
      </g>
      <!-- catalytic -->
      <g transform="translate(20.878125 115.709063) scale(0.1 -0.1)">
       <defs>
        <path id="DejaVuSans-61" d="M 2194 1759 
Q 1497 1759 1228 1600 
Q 959 1441 959 1056 
Q 959 750 1161 570 
Q 1363 391 1709 391 
Q 2188 391 2477 730 
Q 2766 1069 2766 1631 
L 2766 1759 
L 2194 1759 
z
M 3341 1997 
L 3341 0 
L 2766 0 
L 2766 531 
Q 2569 213 2275 61 
Q 1981 -91 1556 -91 
Q 1019 -91 701 211 
Q 384 513 384 1019 
Q 384 1609 779 1909 
Q 1175 2209 1959 2209 
L 2766 2209 
L 2766 2266 
Q 2766 2663 2505 2880 
Q 2244 3097 1772 3097 
Q 1472 3097 1187 3025 
Q 903 2953 641 2809 
L 641 3341 
Q 956 3463 1253 3523 
Q 1550 3584 1831 3584 
Q 2591 3584 2966 3190 
Q 3341 2797 3341 1997 
z
" transform="scale(0.015625)"/>
        <path id="DejaVuSans-6c" d="M 603 4863 
L 1178 4863 
L 1178 0 
L 603 0 
L 603 4863 
z
" transform="scale(0.015625)"/>
       </defs>
       <use xlink:href="#DejaVuSans-63"/>
       <use xlink:href="#DejaVuSans-61" x="54.980469"/>
       <use xlink:href="#DejaVuSans-74" x="116.259766"/>
       <use xlink:href="#DejaVuSans-61" x="155.46875"/>
       <use xlink:href="#DejaVuSans-6c" x="216.748047"/>
       <use xlink:href="#DejaVuSans-79" x="244.53125"/>
       <use xlink:href="#DejaVuSans-74" x="303.710938"/>
       <use xlink:href="#DejaVuSans-69" x="342.919922"/>
       <use xlink:href="#DejaVuSans-63" x="370.703125"/>
      </g>
      <!-- activity -->
      <g transform="translate(26.585938 126.906875) scale(0.1 -0.1)">
       <defs>
        <path id="DejaVuSans-76" d="M 191 3500 
L 800 3500 
L 1894 563 
L 2988 3500 
L 3597 3500 
L 2284 0 
L 1503 0 
L 191 3500 
z
" transform="scale(0.015625)"/>
       </defs>
       <use xlink:href="#DejaVuSans-61"/>
       <use xlink:href="#DejaVuSans-63" x="61.279297"/>
       <use xlink:href="#DejaVuSans-74" x="116.259766"/>
       <use xlink:href="#DejaVuSans-69" x="155.46875"/>
       <use xlink:href="#DejaVuSans-76" x="183.251953"/>
       <use xlink:href="#DejaVuSans-69" x="242.431641"/>
       <use xlink:href="#DejaVuSans-74" x="270.214844"/>
       <use xlink:href="#DejaVuSans-79" x="309.423828"/>
      </g>
     </g>
    </g>
    <g id="text_10">
     <!-- Binding site evidence -->
     <g transform="translate(14.798438 130.273438) rotate(-90) scale(0.1 -0.1)">
      <defs>
       <path id="DejaVuSans-42" d="M 1259 2228 
L 1259 519 
L 2272 519 
Q 2781 519 3026 730 
Q 3272 941 3272 1375 
Q 3272 1813 3026 2020 
Q 2781 2228 2272 2228 
L 1259 2228 
z
M 1259 4147 
L 1259 2741 
L 2194 2741 
Q 2656 2741 2882 2914 
Q 3109 3088 3109 3444 
Q 3109 3797 2882 3972 
Q 2656 4147 2194 4147 
L 1259 4147 
z
M 628 4666 
L 2241 4666 
Q 2963 4666 3353 4366 
Q 3744 4066 3744 3513 
Q 3744 3084 3544 2831 
Q 3344 2578 2956 2516 
Q 3422 2416 3680 2098 
Q 3938 1781 3938 1306 
Q 3938 681 3513 340 
Q 3088 0 2303 0 
L 628 0 
L 628 4666 
z
" transform="scale(0.015625)"/>
      </defs>
      <use xlink:href="#DejaVuSans-42"/>
      <use xlink:href="#DejaVuSans-69" x="68.603516"/>
      <use xlink:href="#DejaVuSans-6e" x="96.386719"/>
      <use xlink:href="#DejaVuSans-64" x="159.765625"/>
      <use xlink:href="#DejaVuSans-69" x="223.242188"/>
      <use xlink:href="#DejaVuSans-6e" x="251.025391"/>
      <use xlink:href="#DejaVuSans-67" x="314.404297"/>
      <use xlink:href="#DejaVuSans-20" x="377.880859"/>
      <use xlink:href="#DejaVuSans-73" x="409.667969"/>
      <use xlink:href="#DejaVuSans-69" x="461.767578"/>
      <use xlink:href="#DejaVuSans-74" x="489.550781"/>
      <use xlink:href="#DejaVuSans-65" x="528.759766"/>
      <use xlink:href="#DejaVuSans-20" x="590.283203"/>
      <use xlink:href="#DejaVuSans-65" x="622.070312"/>
      <use xlink:href="#DejaVuSans-76" x="683.59375"/>
      <use xlink:href="#DejaVuSans-69" x="742.773438"/>
      <use xlink:href="#DejaVuSans-64" x="770.556641"/>
      <use xlink:href="#DejaVuSans-65" x="834.033203"/>
      <use xlink:href="#DejaVuSans-6e" x="895.556641"/>
      <use xlink:href="#DejaVuSans-63" x="958.935547"/>
      <use xlink:href="#DejaVuSans-65" x="1013.916016"/>
     </g>
    </g>
   </g>
   <g id="line2d_9">
    <path d="M 192.129831 41.85 
L 237.794756 41.85 
" clip-path="url(#p10e5cd63db)" style="fill: none; stroke: #3f3f3f; stroke-width: 1.5; stroke-linecap: square"/>
   </g>
   <g id="line2d_10">
    <path d="M 218.544762 41.85 
L 236.352528 41.85 
" clip-path="url(#p10e5cd63db)" style="fill: none; stroke: #3f3f3f; stroke-width: 4.5; stroke-linecap: square"/>
   </g>
   <g id="line2d_11">
    <path d="M 229.603933 111.15 
L 237.751647 111.15 
" clip-path="url(#p10e5cd63db)" style="fill: none; stroke: #3f3f3f; stroke-width: 1.5; stroke-linecap: square"/>
   </g>
   <g id="line2d_12">
    <path d="M 233.883518 111.15 
L 236.898821 111.15 
" clip-path="url(#p10e5cd63db)" style="fill: none; stroke: #3f3f3f; stroke-width: 4.5; stroke-linecap: square"/>
   </g>
   <g id="line2d_13">
    <path d="M 204.366875 145.8 
L 204.366875 7.2 
" clip-path="url(#p10e5cd63db)" style="fill: none; stroke-dasharray: 1,1.65; stroke-dashoffset: 0; stroke: #000000"/>
   </g>
   <g id="patch_3">
    <path d="M 70.446875 145.8 
L 70.446875 7.2 
" style="fill: none; stroke: #000000; stroke-width: 0.8; stroke-linejoin: miter; stroke-linecap: square"/>
   </g>
   <g id="patch_4">
    <path d="M 237.846875 145.8 
L 237.846875 7.2 
" style="fill: none; stroke: #000000; stroke-width: 0.8; stroke-linejoin: miter; stroke-linecap: square"/>
   </g>
   <g id="patch_5">
    <path d="M 70.446875 145.8 
L 237.846875 145.8 
" style="fill: none; stroke: #000000; stroke-width: 0.8; stroke-linejoin: miter; stroke-linecap: square"/>
   </g>
   <g id="patch_6">
    <path d="M 70.446875 7.2 
L 237.846875 7.2 
" style="fill: none; stroke: #000000; stroke-width: 0.8; stroke-linejoin: miter; stroke-linecap: square"/>
   </g>
   <g id="PathCollection_1">
    <defs>
     <path id="m12bd2195c8" d="M 0 1.5 
C 0.397805 1.5 0.77937 1.341951 1.06066 1.06066 
C 1.341951 0.77937 1.5 0.397805 1.5 0 
C 1.5 -0.397805 1.341951 -0.77937 1.06066 -1.06066 
C 0.77937 -1.341951 0.397805 -1.5 0 -1.5 
C -0.397805 -1.5 -0.77937 -1.341951 -1.06066 -1.06066 
C -1.341951 -0.77937 -1.5 -0.397805 -1.5 0 
C -1.5 0.397805 -1.341951 0.77937 -1.06066 1.06066 
C -0.77937 1.341951 -0.397805 1.5 0 1.5 
z
" style="stroke: #3f3f3f"/>
    </defs>
    <g clip-path="url(#p10e5cd63db)">
     <use xlink:href="#m12bd2195c8" x="234.002096" y="41.85" style="fill: #ffffff; stroke: #3f3f3f"/>
    </g>
   </g>
   <g id="PathCollection_2">
    <g clip-path="url(#p10e5cd63db)">
     <use xlink:href="#m12bd2195c8" x="235.999143" y="111.15" style="fill: #ffffff; stroke: #3f3f3f"/>
    </g>
   </g>
  </g>
 </g>
 <defs>
  <clipPath id="p10e5cd63db">
   <rect x="70.446875" y="7.2" width="167.4" height="138.6"/>
  </clipPath>
 </defs>
</svg>
