<?xml version="1.0" encoding="utf-8" standalone="no"?>
<!DOCTYPE svg PUBLIC "-//W3C//DTD SVG 1.1//EN"
  "http://www.w3.org/Graphics/SVG/1.1/DTD/svg11.dtd">
<svg xmlns:xlink="http://www.w3.org/1999/xlink" width="229.3725pt" height="156.47175pt" viewBox="0 0 229.3725 156.47175" xmlns="http://www.w3.org/2000/svg" version="1.1">
 <metadata>
  <rdf:RDF xmlns:dc="http://purl.org/dc/elements/1.1/" xmlns:cc="http://creativecommons.org/ns#" xmlns:rdf="http://www.w3.org/1999/02/22-rdf-syntax-ns#">
   <cc:Work>
    <dc:type rdf:resource="http://purl.org/dc/dcmitype/StillImage"/>
    <dc:date>2024-05-23T14:30:03.215506</dc:date>
    <dc:format>image/svg+xml</dc:format>
    <dc:creator>
     <cc:Agent>
      <dc:title>Matplotlib v3.8.0, https://matplotlib.org/</dc:title>
     </cc:Agent>
    </dc:creator>
   </cc:Work>
  </rdf:RDF>
 </metadata>
 <defs>
  <style type="text/css">*{stroke-linejoin: round; stroke-linecap: butt}</style>
 </defs>
 <g id="figure_1">
  <g id="patch_1">
   <path d="M 0 156.47175 
L 229.3725 156.47175 
L 229.3725 0 
L 0 0 
L 0 156.47175 
z
" style="fill: none"/>
  </g>
  <g id="axes_1">
   <g id="patch_2">
    <path d="M 58.88625 118.9155 
L 170.48625 118.9155 
L 170.48625 35.7555 
L 58.88625 35.7555 
L 58.88625 118.9155 
z
" style="fill: none"/>
   </g>
   <g id="PolyCollection_1">
    <defs>
     <path id="m1b75d18069" d="M 77.506911 -56.45625 
L 77.465589 -56.45625 
L 77.461814 -57.067159 
L 77.457766 -57.678068 
L 77.453443 -58.288977 
L 77.448797 -58.899886 
L 77.443715 -59.510795 
L 77.43801 -60.121705 
L 77.431442 -60.732614 
L 77.423741 -61.343523 
L 77.414664 -61.954432 
L 77.404048 -62.565341 
L 77.391859 -63.17625 
L 77.378217 -63.787159 
L 77.363374 -64.398068 
L 77.347675 -65.008977 
L 77.331484 -65.619886 
L 77.315113 -66.230795 
L 77.298777 -66.841705 
L 77.282583 -67.452614 
L 77.266556 -68.063523 
L 77.250684 -68.674432 
L 77.234946 -69.285341 
L 77.219308 -69.89625 
L 77.203655 -70.507159 
L 77.187687 -71.118068 
L 77.170799 -71.728977 
L 77.152019 -72.339886 
L 77.130035 -72.950795 
L 77.103382 -73.561705 
L 77.070748 -74.172614 
L 77.031379 -74.783523 
L 76.985467 -75.394432 
L 76.934409 -76.005341 
L 76.880816 -76.61625 
L 76.828236 -77.227159 
L 76.78059 -77.838068 
L 76.741445 -78.448977 
L 76.713285 -79.059886 
L 76.69698 -79.670795 
L 76.691597 -80.281705 
L 76.694606 -80.892614 
L 76.702447 -81.503523 
L 76.711291 -82.114432 
L 76.717816 -82.725341 
L 76.719792 -83.33625 
L 76.716351 -83.947159 
L 76.707917 -84.558068 
L 76.695853 -85.168977 
L 76.681962 -85.779886 
L 76.667998 -86.390795 
L 76.655323 -87.001705 
L 76.644773 -87.612614 
L 76.636731 -88.223523 
L 76.631319 -88.834432 
L 76.628612 -89.445341 
L 76.628759 -90.05625 
L 76.63196 -90.667159 
L 76.638322 -91.278068 
L 76.647643 -91.888977 
L 76.659251 -92.499886 
L 76.671963 -93.110795 
L 76.684214 -93.721705 
L 76.69433 -94.332614 
L 76.700859 -94.943523 
L 76.702864 -95.554432 
L 76.700095 -96.165341 
L 76.693001 -96.77625 
L 76.682591 -97.387159 
L 76.670217 -97.998068 
L 76.657346 -98.608977 
L 76.645368 -99.219886 
L 76.635495 -99.830795 
L 76.628715 -100.441705 
L 76.625789 -101.052614 
L 76.627259 -101.663523 
L 76.633431 -102.274432 
L 76.644359 -102.885341 
L 76.659819 -103.49625 
L 76.679306 -104.107159 
L 76.70204 -104.718068 
L 76.726983 -105.328977 
L 76.752815 -105.939886 
L 76.777857 -106.550795 
L 76.799893 -107.161705 
L 76.81593 -107.772614 
L 76.821929 -108.383523 
L 76.812625 -108.994432 
L 76.781558 -109.605341 
L 76.721478 -110.21625 
L 76.625211 -110.827159 
L 76.48701 -111.438068 
L 76.304249 -112.048977 
L 76.079176 -112.659886 
L 75.820284 -113.270795 
L 75.542817 -113.881705 
L 75.268033 -114.492614 
L 75.021078 -115.103523 
L 74.82766 -115.714432 
L 74.710114 -116.325341 
L 74.683656 -116.93625 
L 80.288844 -116.93625 
L 80.288844 -116.93625 
L 80.262386 -116.325341 
L 80.14484 -115.714432 
L 79.951422 -115.103523 
L 79.704467 -114.492614 
L 79.429683 -113.881705 
L 79.152216 -113.270795 
L 78.893324 -112.659886 
L 78.668251 -112.048977 
L 78.48549 -111.438068 
L 78.347289 -110.827159 
L 78.251022 -110.21625 
L 78.190942 -109.605341 
L 78.159875 -108.994432 
L 78.150571 -108.383523 
L 78.15657 -107.772614 
L 78.172607 -107.161705 
L 78.194643 -106.550795 
L 78.219685 -105.939886 
L 78.245517 -105.328977 
L 78.27046 -104.718068 
L 78.293194 -104.107159 
L 78.312681 -103.49625 
L 78.328141 -102.885341 
L 78.339069 -102.274432 
L 78.345241 -101.663523 
L 78.346711 -101.052614 
L 78.343785 -100.441705 
L 78.337005 -99.830795 
L 78.327132 -99.219886 
L 78.315154 -98.608977 
L 78.302283 -97.998068 
L 78.289909 -97.387159 
L 78.279499 -96.77625 
L 78.272405 -96.165341 
L 78.269636 -95.554432 
L 78.271641 -94.943523 
L 78.27817 -94.332614 
L 78.288286 -93.721705 
L 78.300537 -93.110795 
L 78.313249 -92.499886 
L 78.324857 -91.888977 
L 78.334178 -91.278068 
L 78.34054 -90.667159 
L 78.343741 -90.05625 
L 78.343888 -89.445341 
L 78.341181 -88.834432 
L 78.335769 -88.223523 
L 78.327727 -87.612614 
L 78.317177 -87.001705 
L 78.304502 -86.390795 
L 78.290538 -85.779886 
L 78.276647 -85.168977 
L 78.264583 -84.558068 
L 78.256149 -83.947159 
L 78.252708 -83.33625 
L 78.254684 -82.725341 
L 78.261209 -82.114432 
L 78.270053 -81.503523 
L 78.277894 -80.892614 
L 78.280903 -80.281705 
L 78.27552 -79.670795 
L 78.259215 -79.059886 
L 78.231055 -78.448977 
L 78.19191 -77.838068 
L 78.144264 -77.227159 
L 78.091684 -76.61625 
L 78.038091 -76.005341 
L 77.987033 -75.394432 
L 77.941121 -74.783523 
L 77.901752 -74.172614 
L 77.869118 -73.561705 
L 77.842465 -72.950795 
L 77.820481 -72.339886 
L 77.801701 -71.728977 
L 77.784813 -71.118068 
L 77.768845 -70.507159 
L 77.753192 -69.89625 
L 77.737554 -69.285341 
L 77.721816 -68.674432 
L 77.705944 -68.063523 
L 77.689917 -67.452614 
L 77.673723 -66.841705 
L 77.657387 -66.230795 
L 77.641016 -65.619886 
L 77.624825 -65.008977 
L 77.609126 -64.398068 
L 77.594283 -63.787159 
L 77.580641 -63.17625 
L 77.568452 -62.565341 
L 77.557836 -61.954432 
L 77.548759 -61.343523 
L 77.541058 -60.732614 
L 77.53449 -60.121705 
L 77.528785 -59.510795 
L 77.523703 -58.899886 
L 77.519057 -58.288977 
L 77.514734 -57.678068 
L 77.510686 -57.067159 
L 77.506911 -56.45625 
z
" style="stroke: #3f3f3f; stroke-width: 1.5"/>
    </defs>
    <g clip-path="url(#p64adb63d46)">
     <use xlink:href="#m1b75d18069" x="0" y="156.47175" style="fill: #3274a1; stroke: #3f3f3f; stroke-width: 1.5"/>
    </g>
   </g>
   <g id="PolyCollection_2">
    <defs>
     <path id="mdbb8069aa9" d="M 118.307264 -41.33625 
L 111.065236 -41.33625 
L 111.091853 -41.718068 
L 111.200299 -42.099886 
L 111.381458 -42.481705 
L 111.621364 -42.863523 
L 111.90281 -43.245341 
L 112.207216 -43.627159 
L 112.516484 -44.008977 
L 112.814589 -44.390795 
L 113.088711 -44.772614 
L 113.329848 -45.154432 
L 113.53289 -45.53625 
L 113.69627 -45.918068 
L 113.82131 -46.299886 
L 113.911415 -46.681705 
L 113.971257 -47.063523 
L 114.006044 -47.445341 
L 114.020942 -47.827159 
L 114.020667 -48.208977 
L 114.009247 -48.590795 
L 113.989926 -48.972614 
L 113.96516 -49.354432 
L 113.936702 -49.73625 
L 113.905713 -50.118068 
L 113.872896 -50.499886 
L 113.838633 -50.881705 
L 113.80311 -51.263523 
L 113.766432 -51.645341 
L 113.728715 -52.027159 
L 113.69016 -52.408977 
L 113.651099 -52.790795 
L 113.612022 -53.172614 
L 113.573562 -53.554432 
L 113.536467 -53.93625 
L 113.501529 -54.318068 
L 113.469511 -54.699886 
L 113.441044 -55.081705 
L 113.416553 -55.463523 
L 113.396193 -55.845341 
L 113.379835 -56.227159 
L 113.3671 -56.608977 
L 113.35745 -56.990795 
L 113.350317 -57.372614 
L 113.345246 -57.754432 
L 113.342024 -58.13625 
L 113.340756 -58.518068 
L 113.341875 -58.899886 
L 113.346056 -59.281705 
L 113.35407 -59.663523 
L 113.366574 -60.045341 
L 113.383908 -60.427159 
L 113.405922 -60.808977 
L 113.431873 -61.190795 
L 113.460439 -61.572614 
L 113.489826 -61.954432 
L 113.517984 -62.33625 
L 113.542886 -62.718068 
L 113.56282 -63.099886 
L 113.576672 -63.481705 
L 113.584115 -63.863523 
L 113.58571 -64.245341 
L 113.582854 -64.627159 
L 113.577617 -65.008977 
L 113.572456 -65.390795 
L 113.569868 -65.772614 
L 113.572029 -66.154432 
L 113.580479 -66.53625 
L 113.595916 -66.918068 
L 113.618121 -67.299886 
L 113.646042 -67.681705 
L 113.678009 -68.063523 
L 113.712047 -68.445341 
L 113.746218 -68.827159 
L 113.778941 -69.208977 
L 113.809226 -69.590795 
L 113.836786 -69.972614 
L 113.86202 -70.354432 
L 113.885864 -70.73625 
L 113.909575 -71.118068 
L 113.934455 -71.499886 
L 113.961596 -71.881705 
L 113.991673 -72.263523 
L 114.024813 -72.645341 
L 114.060558 -73.027159 
L 114.097914 -73.408977 
L 114.135472 -73.790795 
L 114.171581 -74.172614 
L 114.204547 -74.554432 
L 114.232833 -74.93625 
L 114.255243 -75.318068 
L 114.271072 -75.699886 
L 114.280204 -76.081705 
L 114.283159 -76.463523 
L 114.281068 -76.845341 
L 114.27558 -77.227159 
L 114.268714 -77.608977 
L 114.262652 -77.990795 
L 114.259512 -78.372614 
L 114.26112 -78.754432 
L 114.268815 -79.13625 
L 115.103685 -79.13625 
L 115.103685 -79.13625 
L 115.11138 -78.754432 
L 115.112988 -78.372614 
L 115.109848 -77.990795 
L 115.103786 -77.608977 
L 115.09692 -77.227159 
L 115.091432 -76.845341 
L 115.089341 -76.463523 
L 115.092296 -76.081705 
L 115.101428 -75.699886 
L 115.117257 -75.318068 
L 115.139667 -74.93625 
L 115.167953 -74.554432 
L 115.200919 -74.172614 
L 115.237028 -73.790795 
L 115.274586 -73.408977 
L 115.311942 -73.027159 
L 115.347687 -72.645341 
L 115.380827 -72.263523 
L 115.410904 -71.881705 
L 115.438045 -71.499886 
L 115.462925 -71.118068 
L 115.486636 -70.73625 
L 115.51048 -70.354432 
L 115.535714 -69.972614 
L 115.563274 -69.590795 
L 115.593559 -69.208977 
L 115.626282 -68.827159 
L 115.660453 -68.445341 
L 115.694491 -68.063523 
L 115.726458 -67.681705 
L 115.754379 -67.299886 
L 115.776584 -66.918068 
L 115.792021 -66.53625 
L 115.800471 -66.154432 
L 115.802632 -65.772614 
L 115.800044 -65.390795 
L 115.794883 -65.008977 
L 115.789646 -64.627159 
L 115.78679 -64.245341 
L 115.788385 -63.863523 
L 115.795828 -63.481705 
L 115.80968 -63.099886 
L 115.829614 -62.718068 
L 115.854516 -62.33625 
L 115.882674 -61.954432 
L 115.912061 -61.572614 
L 115.940627 -61.190795 
L 115.966578 -60.808977 
L 115.988592 -60.427159 
L 116.005926 -60.045341 
L 116.01843 -59.663523 
L 116.026444 -59.281705 
L 116.030625 -58.899886 
L 116.031744 -58.518068 
L 116.030476 -58.13625 
L 116.027254 -57.754432 
L 116.022183 -57.372614 
L 116.01505 -56.990795 
L 116.0054 -56.608977 
L 115.992665 -56.227159 
L 115.976307 -55.845341 
L 115.955947 -55.463523 
L 115.931456 -55.081705 
L 115.902989 -54.699886 
L 115.870971 -54.318068 
L 115.836033 -53.93625 
L 115.798938 -53.554432 
L 115.760478 -53.172614 
L 115.721401 -52.790795 
L 115.68234 -52.408977 
L 115.643785 -52.027159 
L 115.606068 -51.645341 
L 115.56939 -51.263523 
L 115.533867 -50.881705 
L 115.499604 -50.499886 
L 115.466787 -50.118068 
L 115.435798 -49.73625 
L 115.40734 -49.354432 
L 115.382574 -48.972614 
L 115.363253 -48.590795 
L 115.351833 -48.208977 
L 115.351558 -47.827159 
L 115.366456 -47.445341 
L 115.401243 -47.063523 
L 115.461085 -46.681705 
L 115.55119 -46.299886 
L 115.67623 -45.918068 
L 115.83961 -45.53625 
L 116.042652 -45.154432 
L 116.283789 -44.772614 
L 116.557911 -44.390795 
L 116.856016 -44.008977 
L 117.165284 -43.627159 
L 117.46969 -43.245341 
L 117.751136 -42.863523 
L 117.991042 -42.481705 
L 118.172201 -42.099886 
L 118.280647 -41.718068 
L 118.307264 -41.33625 
z
" style="stroke: #3f3f3f; stroke-width: 1.5"/>
    </defs>
    <g clip-path="url(#p64adb63d46)">
     <use xlink:href="#mdbb8069aa9" x="0" y="156.47175" style="fill: #3274a1; stroke: #3f3f3f; stroke-width: 1.5"/>
    </g>
   </g>
   <g id="PolyCollection_3">
    <defs>
     <path id="m08eadb1179" d="M 166.76625 -41.33625 
L 137.00625 -41.33625 
L 137.368049 -41.590795 
L 138.413886 -41.845341 
L 139.993629 -42.099886 
L 141.896522 -42.354432 
L 143.896778 -42.608977 
L 145.796251 -42.863523 
L 147.453383 -43.118068 
L 148.793722 -43.372614 
L 149.80375 -43.627159 
L 150.514134 -43.881705 
L 150.979702 -44.13625 
L 151.261984 -44.390795 
L 151.417347 -44.645341 
L 151.491096 -44.899886 
L 151.51621 -45.154432 
L 151.514791 -45.408977 
L 151.500572 -45.663523 
L 151.481421 -45.918068 
L 151.461357 -46.172614 
L 151.442032 -46.427159 
L 151.423745 -46.681705 
L 151.406141 -46.93625 
L 151.388679 -47.190795 
L 151.370903 -47.445341 
L 151.352559 -47.699886 
L 151.33359 -47.954432 
L 151.314052 -48.208977 
L 151.294028 -48.463523 
L 151.27357 -48.718068 
L 151.252703 -48.972614 
L 151.231475 -49.227159 
L 151.210025 -49.481705 
L 151.188622 -49.73625 
L 151.167663 -49.990795 
L 151.147617 -50.245341 
L 151.128965 -50.499886 
L 151.112129 -50.754432 
L 151.097431 -51.008977 
L 151.085036 -51.263523 
L 151.07488 -51.518068 
L 151.066602 -51.772614 
L 151.059537 -52.027159 
L 151.052877 -52.281705 
L 151.046017 -52.53625 
L 151.039014 -52.790795 
L 151.032916 -53.045341 
L 151.029707 -53.299886 
L 151.031717 -53.554432 
L 151.040592 -53.808977 
L 151.056223 -54.063523 
L 151.076145 -54.318068 
L 151.095826 -54.572614 
L 151.109929 -54.827159 
L 151.114185 -55.081705 
L 151.107214 -55.33625 
L 151.091552 -55.590795 
L 151.073409 -55.845341 
L 151.061147 -56.099886 
L 151.062955 -56.354432 
L 151.084484 -56.608977 
L 151.127215 -56.863523 
L 151.188032 -57.118068 
L 151.26001 -57.372614 
L 151.33407 -57.627159 
L 151.400923 -57.881705 
L 151.452799 -58.13625 
L 151.48467 -58.390795 
L 151.494866 -58.645341 
L 151.485179 -58.899886 
L 151.460509 -59.154432 
L 151.428091 -59.408977 
L 151.396332 -59.663523 
L 151.37336 -59.918068 
L 151.365519 -60.172614 
L 151.376172 -60.427159 
L 151.405149 -60.681705 
L 151.449024 -60.93625 
L 151.502152 -61.190795 
L 151.558133 -61.445341 
L 151.611276 -61.699886 
L 151.65765 -61.954432 
L 151.695502 -62.208977 
L 151.725037 -62.463523 
L 151.747772 -62.718068 
L 151.76571 -62.972614 
L 151.780628 -63.227159 
L 151.793608 -63.481705 
L 151.804888 -63.73625 
L 151.813981 -63.990795 
L 151.819972 -64.245341 
L 151.821887 -64.499886 
L 151.819064 -64.754432 
L 151.811443 -65.008977 
L 151.799743 -65.263523 
L 151.785473 -65.518068 
L 151.770765 -65.772614 
L 151.758032 -66.027159 
L 151.749529 -66.281705 
L 151.746893 -66.53625 
L 152.025607 -66.53625 
L 152.025607 -66.53625 
L 152.022971 -66.281705 
L 152.014468 -66.027159 
L 152.001735 -65.772614 
L 151.987027 -65.518068 
L 151.972757 -65.263523 
L 151.961057 -65.008977 
L 151.953436 -64.754432 
L 151.950613 -64.499886 
L 151.952528 -64.245341 
L 151.958519 -63.990795 
L 151.967612 -63.73625 
L 151.978892 -63.481705 
L 151.991872 -63.227159 
L 152.00679 -62.972614 
L 152.024728 -62.718068 
L 152.047463 -62.463523 
L 152.076998 -62.208977 
L 152.11485 -61.954432 
L 152.161224 -61.699886 
L 152.214367 -61.445341 
L 152.270348 -61.190795 
L 152.323476 -60.93625 
L 152.367351 -60.681705 
L 152.396328 -60.427159 
L 152.406981 -60.172614 
L 152.39914 -59.918068 
L 152.376168 -59.663523 
L 152.344409 -59.408977 
L 152.311991 -59.154432 
L 152.287321 -58.899886 
L 152.277634 -58.645341 
L 152.28783 -58.390795 
L 152.319701 -58.13625 
L 152.371577 -57.881705 
L 152.43843 -57.627159 
L 152.51249 -57.372614 
L 152.584468 -57.118068 
L 152.645285 -56.863523 
L 152.688016 -56.608977 
L 152.709545 -56.354432 
L 152.711353 -56.099886 
L 152.699091 -55.845341 
L 152.680948 -55.590795 
L 152.665286 -55.33625 
L 152.658315 -55.081705 
L 152.662571 -54.827159 
L 152.676674 -54.572614 
L 152.696355 -54.318068 
L 152.716277 -54.063523 
L 152.731908 -53.808977 
L 152.740783 -53.554432 
L 152.742793 -53.299886 
L 152.739584 -53.045341 
L 152.733486 -52.790795 
L 152.726483 -52.53625 
L 152.719623 -52.281705 
L 152.712963 -52.027159 
L 152.705898 -51.772614 
L 152.69762 -51.518068 
L 152.687464 -51.263523 
L 152.675069 -51.008977 
L 152.660371 -50.754432 
L 152.643535 -50.499886 
L 152.624883 -50.245341 
L 152.604837 -49.990795 
L 152.583878 -49.73625 
L 152.562475 -49.481705 
L 152.541025 -49.227159 
L 152.519797 -48.972614 
L 152.49893 -48.718068 
L 152.478472 -48.463523 
L 152.458448 -48.208977 
L 152.43891 -47.954432 
L 152.419941 -47.699886 
L 152.401597 -47.445341 
L 152.383821 -47.190795 
L 152.366359 -46.93625 
L 152.348755 -46.681705 
L 152.330468 -46.427159 
L 152.311143 -46.172614 
L 152.291079 -45.918068 
L 152.271928 -45.663523 
L 152.257709 -45.408977 
L 152.25629 -45.154432 
L 152.281404 -44.899886 
L 152.355153 -44.645341 
L 152.510516 -44.390795 
L 152.792798 -44.13625 
L 153.258366 -43.881705 
L 153.96875 -43.627159 
L 154.978778 -43.372614 
L 156.319117 -43.118068 
L 157.976249 -42.863523 
L 159.875722 -42.608977 
L 161.875978 -42.354432 
L 163.778871 -42.099886 
L 165.358614 -41.845341 
L 166.404451 -41.590795 
L 166.76625 -41.33625 
z
" style="stroke: #3f3f3f; stroke-width: 1.5"/>
    </defs>
    <g clip-path="url(#p64adb63d46)">
     <use xlink:href="#m08eadb1179" x="0" y="156.47175" style="fill: #3274a1; stroke: #3f3f3f; stroke-width: 1.5"/>
    </g>
   </g>
   <g id="matplotlib.axis_1">
    <g id="xtick_1">
     <g id="line2d_1">
      <defs>
       <path id="m3ecdbb3a3f" d="M 0 0 
L 0 3.5 
" style="stroke: #000000; stroke-width: 0.8"/>
      </defs>
      <g>
       <use xlink:href="#m3ecdbb3a3f" x="77.48625" y="118.9155" style="stroke: #000000; stroke-width: 0.8"/>
      </g>
     </g>
     <g id="text_1">
      <!-- 1st -->
      <g transform="translate(69.740156 133.513937) scale(0.1 -0.1)">
       <defs>
        <path id="DejaVuSans-31" d="M 794 531 
L 1825 531 
L 1825 4091 
L 703 3866 
L 703 4441 
L 1819 4666 
L 2450 4666 
L 2450 531 
L 3481 531 
L 3481 0 
L 794 0 
L 794 531 
z
" transform="scale(0.015625)"/>
        <path id="DejaVuSans-73" d="M 2834 3397 
L 2834 2853 
Q 2591 2978 2328 3040 
Q 2066 3103 1784 3103 
Q 1356 3103 1142 2972 
Q 928 2841 928 2578 
Q 928 2378 1081 2264 
Q 1234 2150 1697 2047 
L 1894 2003 
Q 2506 1872 2764 1633 
Q 3022 1394 3022 966 
Q 3022 478 2636 193 
Q 2250 -91 1575 -91 
Q 1294 -91 989 -36 
Q 684 19 347 128 
L 347 722 
Q 666 556 975 473 
Q 1284 391 1588 391 
Q 1994 391 2212 530 
Q 2431 669 2431 922 
Q 2431 1156 2273 1281 
Q 2116 1406 1581 1522 
L 1381 1569 
Q 847 1681 609 1914 
Q 372 2147 372 2553 
Q 372 3047 722 3315 
Q 1072 3584 1716 3584 
Q 2034 3584 2315 3537 
Q 2597 3491 2834 3397 
z
" transform="scale(0.015625)"/>
        <path id="DejaVuSans-74" d="M 1172 4494 
L 1172 3500 
L 2356 3500 
L 2356 3053 
L 1172 3053 
L 1172 1153 
Q 1172 725 1289 603 
Q 1406 481 1766 481 
L 2356 481 
L 2356 0 
L 1766 0 
Q 1100 0 847 248 
Q 594 497 594 1153 
L 594 3053 
L 172 3053 
L 172 3500 
L 594 3500 
L 594 4494 
L 1172 4494 
z
" transform="scale(0.015625)"/>
       </defs>
       <use xlink:href="#DejaVuSans-31"/>
       <use xlink:href="#DejaVuSans-73" x="63.623047"/>
       <use xlink:href="#DejaVuSans-74" x="115.722656"/>
      </g>
     </g>
    </g>
    <g id="xtick_2">
     <g id="line2d_2">
      <g>
       <use xlink:href="#m3ecdbb3a3f" x="114.68625" y="118.9155" style="stroke: #000000; stroke-width: 0.8"/>
      </g>
     </g>
     <g id="text_2">
      <!-- 2nd -->
      <g transform="translate(105.162031 133.513937) scale(0.1 -0.1)">
       <defs>
        <path id="DejaVuSans-32" d="M 1228 531 
L 3431 531 
L 3431 0 
L 469 0 
L 469 531 
Q 828 903 1448 1529 
Q 2069 2156 2228 2338 
Q 2531 2678 2651 2914 
Q 2772 3150 2772 3378 
Q 2772 3750 2511 3984 
Q 2250 4219 1831 4219 
Q 1534 4219 1204 4116 
Q 875 4013 500 3803 
L 500 4441 
Q 881 4594 1212 4672 
Q 1544 4750 1819 4750 
Q 2544 4750 2975 4387 
Q 3406 4025 3406 3419 
Q 3406 3131 3298 2873 
Q 3191 2616 2906 2266 
Q 2828 2175 2409 1742 
Q 1991 1309 1228 531 
z
" transform="scale(0.015625)"/>
        <path id="DejaVuSans-6e" d="M 3513 2113 
L 3513 0 
L 2938 0 
L 2938 2094 
Q 2938 2591 2744 2837 
Q 2550 3084 2163 3084 
Q 1697 3084 1428 2787 
Q 1159 2491 1159 1978 
L 1159 0 
L 581 0 
L 581 3500 
L 1159 3500 
L 1159 2956 
Q 1366 3272 1645 3428 
Q 1925 3584 2291 3584 
Q 2894 3584 3203 3211 
Q 3513 2838 3513 2113 
z
" transform="scale(0.015625)"/>
        <path id="DejaVuSans-64" d="M 2906 2969 
L 2906 4863 
L 3481 4863 
L 3481 0 
L 2906 0 
L 2906 525 
Q 2725 213 2448 61 
Q 2172 -91 1784 -91 
Q 1150 -91 751 415 
Q 353 922 353 1747 
Q 353 2572 751 3078 
Q 1150 3584 1784 3584 
Q 2172 3584 2448 3432 
Q 2725 3281 2906 2969 
z
M 947 1747 
Q 947 1113 1208 752 
Q 1469 391 1925 391 
Q 2381 391 2643 752 
Q 2906 1113 2906 1747 
Q 2906 2381 2643 2742 
Q 2381 3103 1925 3103 
Q 1469 3103 1208 2742 
Q 947 2381 947 1747 
z
" transform="scale(0.015625)"/>
       </defs>
       <use xlink:href="#DejaVuSans-32"/>
       <use xlink:href="#DejaVuSans-6e" x="63.623047"/>
       <use xlink:href="#DejaVuSans-64" x="127.001953"/>
      </g>
     </g>
    </g>
    <g id="xtick_3">
     <g id="line2d_3">
      <g>
       <use xlink:href="#m3ecdbb3a3f" x="151.88625" y="118.9155" style="stroke: #000000; stroke-width: 0.8"/>
      </g>
     </g>
     <g id="text_3">
      <!-- 3rd -->
      <g transform="translate(143.562812 133.513937) scale(0.1 -0.1)">
       <defs>
        <path id="DejaVuSans-33" d="M 2597 2516 
Q 3050 2419 3304 2112 
Q 3559 1806 3559 1356 
Q 3559 666 3084 287 
Q 2609 -91 1734 -91 
Q 1441 -91 1130 -33 
Q 819 25 488 141 
L 488 750 
Q 750 597 1062 519 
Q 1375 441 1716 441 
Q 2309 441 2620 675 
Q 2931 909 2931 1356 
Q 2931 1769 2642 2001 
Q 2353 2234 1838 2234 
L 1294 2234 
L 1294 2753 
L 1863 2753 
Q 2328 2753 2575 2939 
Q 2822 3125 2822 3475 
Q 2822 3834 2567 4026 
Q 2313 4219 1838 4219 
Q 1578 4219 1281 4162 
Q 984 4106 628 3988 
L 628 4550 
Q 988 4650 1302 4700 
Q 1616 4750 1894 4750 
Q 2613 4750 3031 4423 
Q 3450 4097 3450 3541 
Q 3450 3153 3228 2886 
Q 3006 2619 2597 2516 
z
" transform="scale(0.015625)"/>
        <path id="DejaVuSans-72" d="M 2631 2963 
Q 2534 3019 2420 3045 
Q 2306 3072 2169 3072 
Q 1681 3072 1420 2755 
Q 1159 2438 1159 1844 
L 1159 0 
L 581 0 
L 581 3500 
L 1159 3500 
L 1159 2956 
Q 1341 3275 1631 3429 
Q 1922 3584 2338 3584 
Q 2397 3584 2469 3576 
Q 2541 3569 2628 3553 
L 2631 2963 
z
" transform="scale(0.015625)"/>
       </defs>
       <use xlink:href="#DejaVuSans-33"/>
       <use xlink:href="#DejaVuSans-72" x="63.623047"/>
       <use xlink:href="#DejaVuSans-64" x="102.986328"/>
      </g>
     </g>
    </g>
    <g id="text_4">
     <!-- nth largest cluster -->
     <g transform="translate(68.969844 147.192063) scale(0.1 -0.1)">
      <defs>
       <path id="DejaVuSans-68" d="M 3513 2113 
L 3513 0 
L 2938 0 
L 2938 2094 
Q 2938 2591 2744 2837 
Q 2550 3084 2163 3084 
Q 1697 3084 1428 2787 
Q 1159 2491 1159 1978 
L 1159 0 
L 581 0 
L 581 4863 
L 1159 4863 
L 1159 2956 
Q 1366 3272 1645 3428 
Q 1925 3584 2291 3584 
Q 2894 3584 3203 3211 
Q 3513 2838 3513 2113 
z
" transform="scale(0.015625)"/>
       <path id="DejaVuSans-20" transform="scale(0.015625)"/>
       <path id="DejaVuSans-6c" d="M 603 4863 
L 1178 4863 
L 1178 0 
L 603 0 
L 603 4863 
z
" transform="scale(0.015625)"/>
       <path id="DejaVuSans-61" d="M 2194 1759 
Q 1497 1759 1228 1600 
Q 959 1441 959 1056 
Q 959 750 1161 570 
Q 1363 391 1709 391 
Q 2188 391 2477 730 
Q 2766 1069 2766 1631 
L 2766 1759 
L 2194 1759 
z
M 3341 1997 
L 3341 0 
L 2766 0 
L 2766 531 
Q 2569 213 2275 61 
Q 1981 -91 1556 -91 
Q 1019 -91 701 211 
Q 384 513 384 1019 
Q 384 1609 779 1909 
Q 1175 2209 1959 2209 
L 2766 2209 
L 2766 2266 
Q 2766 2663 2505 2880 
Q 2244 3097 1772 3097 
Q 1472 3097 1187 3025 
Q 903 2953 641 2809 
L 641 3341 
Q 956 3463 1253 3523 
Q 1550 3584 1831 3584 
Q 2591 3584 2966 3190 
Q 3341 2797 3341 1997 
z
" transform="scale(0.015625)"/>
       <path id="DejaVuSans-67" d="M 2906 1791 
Q 2906 2416 2648 2759 
Q 2391 3103 1925 3103 
Q 1463 3103 1205 2759 
Q 947 2416 947 1791 
Q 947 1169 1205 825 
Q 1463 481 1925 481 
Q 2391 481 2648 825 
Q 2906 1169 2906 1791 
z
M 3481 434 
Q 3481 -459 3084 -895 
Q 2688 -1331 1869 -1331 
Q 1566 -1331 1297 -1286 
Q 1028 -1241 775 -1147 
L 775 -588 
Q 1028 -725 1275 -790 
Q 1522 -856 1778 -856 
Q 2344 -856 2625 -561 
Q 2906 -266 2906 331 
L 2906 616 
Q 2728 306 2450 153 
Q 2172 0 1784 0 
Q 1141 0 747 490 
Q 353 981 353 1791 
Q 353 2603 747 3093 
Q 1141 3584 1784 3584 
Q 2172 3584 2450 3431 
Q 2728 3278 2906 2969 
L 2906 3500 
L 3481 3500 
L 3481 434 
z
" transform="scale(0.015625)"/>
       <path id="DejaVuSans-65" d="M 3597 1894 
L 3597 1613 
L 953 1613 
Q 991 1019 1311 708 
Q 1631 397 2203 397 
Q 2534 397 2845 478 
Q 3156 559 3463 722 
L 3463 178 
Q 3153 47 2828 -22 
Q 2503 -91 2169 -91 
Q 1331 -91 842 396 
Q 353 884 353 1716 
Q 353 2575 817 3079 
Q 1281 3584 2069 3584 
Q 2775 3584 3186 3129 
Q 3597 2675 3597 1894 
z
M 3022 2063 
Q 3016 2534 2758 2815 
Q 2500 3097 2075 3097 
Q 1594 3097 1305 2825 
Q 1016 2553 972 2059 
L 3022 2063 
z
" transform="scale(0.015625)"/>
       <path id="DejaVuSans-63" d="M 3122 3366 
L 3122 2828 
Q 2878 2963 2633 3030 
Q 2388 3097 2138 3097 
Q 1578 3097 1268 2742 
Q 959 2388 959 1747 
Q 959 1106 1268 751 
Q 1578 397 2138 397 
Q 2388 397 2633 464 
Q 2878 531 3122 666 
L 3122 134 
Q 2881 22 2623 -34 
Q 2366 -91 2075 -91 
Q 1284 -91 818 406 
Q 353 903 353 1747 
Q 353 2603 823 3093 
Q 1294 3584 2113 3584 
Q 2378 3584 2631 3529 
Q 2884 3475 3122 3366 
z
" transform="scale(0.015625)"/>
       <path id="DejaVuSans-75" d="M 544 1381 
L 544 3500 
L 1119 3500 
L 1119 1403 
Q 1119 906 1312 657 
Q 1506 409 1894 409 
Q 2359 409 2629 706 
Q 2900 1003 2900 1516 
L 2900 3500 
L 3475 3500 
L 3475 0 
L 2900 0 
L 2900 538 
Q 2691 219 2414 64 
Q 2138 -91 1772 -91 
Q 1169 -91 856 284 
Q 544 659 544 1381 
z
M 1991 3584 
L 1991 3584 
z
" transform="scale(0.015625)"/>
      </defs>
      <use xlink:href="#DejaVuSans-6e"/>
      <use xlink:href="#DejaVuSans-74" x="63.378906"/>
      <use xlink:href="#DejaVuSans-68" x="102.587891"/>
      <use xlink:href="#DejaVuSans-20" x="165.966797"/>
      <use xlink:href="#DejaVuSans-6c" x="197.753906"/>
      <use xlink:href="#DejaVuSans-61" x="225.537109"/>
      <use xlink:href="#DejaVuSans-72" x="286.816406"/>
      <use xlink:href="#DejaVuSans-67" x="326.179688"/>
      <use xlink:href="#DejaVuSans-65" x="389.65625"/>
      <use xlink:href="#DejaVuSans-73" x="451.179688"/>
      <use xlink:href="#DejaVuSans-74" x="503.279297"/>
      <use xlink:href="#DejaVuSans-20" x="542.488281"/>
      <use xlink:href="#DejaVuSans-63" x="574.275391"/>
      <use xlink:href="#DejaVuSans-6c" x="629.255859"/>
      <use xlink:href="#DejaVuSans-75" x="657.039062"/>
      <use xlink:href="#DejaVuSans-73" x="720.417969"/>
      <use xlink:href="#DejaVuSans-74" x="772.517578"/>
      <use xlink:href="#DejaVuSans-65" x="811.726562"/>
      <use xlink:href="#DejaVuSans-72" x="873.25"/>
     </g>
    </g>
   </g>
   <g id="matplotlib.axis_2">
    <g id="ytick_1">
     <g id="line2d_4">
      <defs>
       <path id="m9fa3cd0682" d="M 0 0 
L -3.5 0 
" style="stroke: #000000; stroke-width: 0.8"/>
      </defs>
      <g>
       <use xlink:href="#m9fa3cd0682" x="58.88625" y="115.1355" style="stroke: #000000; stroke-width: 0.8"/>
      </g>
     </g>
     <g id="text_5">
      <!-- 0.0 -->
      <g transform="translate(35.983125 118.934719) scale(0.1 -0.1)">
       <defs>
        <path id="DejaVuSans-30" d="M 2034 4250 
Q 1547 4250 1301 3770 
Q 1056 3291 1056 2328 
Q 1056 1369 1301 889 
Q 1547 409 2034 409 
Q 2525 409 2770 889 
Q 3016 1369 3016 2328 
Q 3016 3291 2770 3770 
Q 2525 4250 2034 4250 
z
M 2034 4750 
Q 2819 4750 3233 4129 
Q 3647 3509 3647 2328 
Q 3647 1150 3233 529 
Q 2819 -91 2034 -91 
Q 1250 -91 836 529 
Q 422 1150 422 2328 
Q 422 3509 836 4129 
Q 1250 4750 2034 4750 
z
" transform="scale(0.015625)"/>
        <path id="DejaVuSans-2e" d="M 684 794 
L 1344 794 
L 1344 0 
L 684 0 
L 684 794 
z
" transform="scale(0.015625)"/>
       </defs>
       <use xlink:href="#DejaVuSans-30"/>
       <use xlink:href="#DejaVuSans-2e" x="63.623047"/>
       <use xlink:href="#DejaVuSans-30" x="95.410156"/>
      </g>
     </g>
    </g>
    <g id="ytick_2">
     <g id="line2d_5">
      <g>
       <use xlink:href="#m9fa3cd0682" x="58.88625" y="77.3355" style="stroke: #000000; stroke-width: 0.8"/>
      </g>
     </g>
     <g id="text_6">
      <!-- 0.5 -->
      <g transform="translate(35.983125 81.134719) scale(0.1 -0.1)">
       <defs>
        <path id="DejaVuSans-35" d="M 691 4666 
L 3169 4666 
L 3169 4134 
L 1269 4134 
L 1269 2991 
Q 1406 3038 1543 3061 
Q 1681 3084 1819 3084 
Q 2600 3084 3056 2656 
Q 3513 2228 3513 1497 
Q 3513 744 3044 326 
Q 2575 -91 1722 -91 
Q 1428 -91 1123 -41 
Q 819 9 494 109 
L 494 744 
Q 775 591 1075 516 
Q 1375 441 1709 441 
Q 2250 441 2565 725 
Q 2881 1009 2881 1497 
Q 2881 1984 2565 2268 
Q 2250 2553 1709 2553 
Q 1456 2553 1204 2497 
Q 953 2441 691 2322 
L 691 4666 
z
" transform="scale(0.015625)"/>
       </defs>
       <use xlink:href="#DejaVuSans-30"/>
       <use xlink:href="#DejaVuSans-2e" x="63.623047"/>
       <use xlink:href="#DejaVuSans-35" x="95.410156"/>
      </g>
     </g>
    </g>
    <g id="ytick_3">
     <g id="line2d_6">
      <g>
       <use xlink:href="#m9fa3cd0682" x="58.88625" y="39.5355" style="stroke: #000000; stroke-width: 0.8"/>
      </g>
     </g>
     <g id="text_7">
      <!-- 1.0 -->
      <g transform="translate(35.983125 43.334719) scale(0.1 -0.1)">
       <use xlink:href="#DejaVuSans-31"/>
       <use xlink:href="#DejaVuSans-2e" x="63.623047"/>
       <use xlink:href="#DejaVuSans-30" x="95.410156"/>
      </g>
     </g>
    </g>
    <g id="text_8">
     <!-- Fraction of interactions -->
     <g transform="translate(29.903437 134.937844) rotate(-90) scale(0.1 -0.1)">
      <defs>
       <path id="DejaVuSans-46" d="M 628 4666 
L 3309 4666 
L 3309 4134 
L 1259 4134 
L 1259 2759 
L 3109 2759 
L 3109 2228 
L 1259 2228 
L 1259 0 
L 628 0 
L 628 4666 
z
" transform="scale(0.015625)"/>
       <path id="DejaVuSans-69" d="M 603 3500 
L 1178 3500 
L 1178 0 
L 603 0 
L 603 3500 
z
M 603 4863 
L 1178 4863 
L 1178 4134 
L 603 4134 
L 603 4863 
z
" transform="scale(0.015625)"/>
       <path id="DejaVuSans-6f" d="M 1959 3097 
Q 1497 3097 1228 2736 
Q 959 2375 959 1747 
Q 959 1119 1226 758 
Q 1494 397 1959 397 
Q 2419 397 2687 759 
Q 2956 1122 2956 1747 
Q 2956 2369 2687 2733 
Q 2419 3097 1959 3097 
z
M 1959 3584 
Q 2709 3584 3137 3096 
Q 3566 2609 3566 1747 
Q 3566 888 3137 398 
Q 2709 -91 1959 -91 
Q 1206 -91 779 398 
Q 353 888 353 1747 
Q 353 2609 779 3096 
Q 1206 3584 1959 3584 
z
" transform="scale(0.015625)"/>
       <path id="DejaVuSans-66" d="M 2375 4863 
L 2375 4384 
L 1825 4384 
Q 1516 4384 1395 4259 
Q 1275 4134 1275 3809 
L 1275 3500 
L 2222 3500 
L 2222 3053 
L 1275 3053 
L 1275 0 
L 697 0 
L 697 3053 
L 147 3053 
L 147 3500 
L 697 3500 
L 697 3744 
Q 697 4328 969 4595 
Q 1241 4863 1831 4863 
L 2375 4863 
z
" transform="scale(0.015625)"/>
      </defs>
      <use xlink:href="#DejaVuSans-46"/>
      <use xlink:href="#DejaVuSans-72" x="50.269531"/>
      <use xlink:href="#DejaVuSans-61" x="91.382812"/>
      <use xlink:href="#DejaVuSans-63" x="152.662109"/>
      <use xlink:href="#DejaVuSans-74" x="207.642578"/>
      <use xlink:href="#DejaVuSans-69" x="246.851562"/>
      <use xlink:href="#DejaVuSans-6f" x="274.634766"/>
      <use xlink:href="#DejaVuSans-6e" x="335.816406"/>
      <use xlink:href="#DejaVuSans-20" x="399.195312"/>
      <use xlink:href="#DejaVuSans-6f" x="430.982422"/>
      <use xlink:href="#DejaVuSans-66" x="492.164062"/>
      <use xlink:href="#DejaVuSans-20" x="527.369141"/>
      <use xlink:href="#DejaVuSans-69" x="559.15625"/>
      <use xlink:href="#DejaVuSans-6e" x="586.939453"/>
      <use xlink:href="#DejaVuSans-74" x="650.318359"/>
      <use xlink:href="#DejaVuSans-65" x="689.527344"/>
      <use xlink:href="#DejaVuSans-72" x="751.050781"/>
      <use xlink:href="#DejaVuSans-61" x="792.164062"/>
      <use xlink:href="#DejaVuSans-63" x="853.443359"/>
      <use xlink:href="#DejaVuSans-74" x="908.423828"/>
      <use xlink:href="#DejaVuSans-69" x="947.632812"/>
      <use xlink:href="#DejaVuSans-6f" x="975.416016"/>
      <use xlink:href="#DejaVuSans-6e" x="1036.597656"/>
      <use xlink:href="#DejaVuSans-73" x="1099.976562"/>
     </g>
    </g>
   </g>
   <g id="line2d_7">
    <path d="M 77.48625 100.0155 
L 77.48625 39.5355 
" clip-path="url(#p64adb63d46)" style="fill: none; stroke: #3f3f3f; stroke-width: 1.5; stroke-linecap: square"/>
   </g>
   <g id="line2d_8">
    <path d="M 77.48625 67.8855 
L 77.48625 39.5355 
" clip-path="url(#p64adb63d46)" style="fill: none; stroke: #3f3f3f; stroke-width: 4.5; stroke-linecap: square"/>
   </g>
   <g id="line2d_9">
    <path d="M 114.68625 115.1355 
L 114.68625 77.3355 
" clip-path="url(#p64adb63d46)" style="fill: none; stroke: #3f3f3f; stroke-width: 1.5; stroke-linecap: square"/>
   </g>
   <g id="line2d_10">
    <path d="M 114.68625 115.1355 
L 114.68625 93.5355 
" clip-path="url(#p64adb63d46)" style="fill: none; stroke: #3f3f3f; stroke-width: 4.5; stroke-linecap: square"/>
   </g>
   <g id="line2d_11">
    <path d="M 151.88625 115.1355 
L 151.88625 115.1355 
" clip-path="url(#p64adb63d46)" style="fill: none; stroke: #3f3f3f; stroke-width: 1.5; stroke-linecap: square"/>
   </g>
   <g id="line2d_12">
    <path d="M 151.88625 115.1355 
L 151.88625 115.1355 
" clip-path="url(#p64adb63d46)" style="fill: none; stroke: #3f3f3f; stroke-width: 4.5; stroke-linecap: square"/>
   </g>
   <g id="patch_3">
    <path d="M 58.88625 118.9155 
L 58.88625 35.7555 
" style="fill: none; stroke: #000000; stroke-width: 0.8; stroke-linejoin: miter; stroke-linecap: square"/>
   </g>
   <g id="patch_4">
    <path d="M 170.48625 118.9155 
L 170.48625 35.7555 
" style="fill: none; stroke: #000000; stroke-width: 0.8; stroke-linejoin: miter; stroke-linecap: square"/>
   </g>
   <g id="patch_5">
    <path d="M 58.88625 118.9155 
L 170.48625 118.9155 
" style="fill: none; stroke: #000000; stroke-width: 0.8; stroke-linejoin: miter; stroke-linecap: square"/>
   </g>
   <g id="patch_6">
    <path d="M 58.88625 35.7555 
L 170.48625 35.7555 
" style="fill: none; stroke: #000000; stroke-width: 0.8; stroke-linejoin: miter; stroke-linecap: square"/>
   </g>
   <g id="PathCollection_1">
    <defs>
     <path id="m4d5002801d" d="M 0 1.5 
C 0.397805 1.5 0.77937 1.341951 1.06066 1.06066 
C 1.341951 0.77937 1.5 0.397805 1.5 0 
C 1.5 -0.397805 1.341951 -0.77937 1.06066 -1.06066 
C 0.77937 -1.341951 0.397805 -1.5 0 -1.5 
C -0.397805 -1.5 -0.77937 -1.341951 -1.06066 -1.06066 
C -1.341951 -0.77937 -1.5 -0.397805 -1.5 0 
C -1.5 0.397805 -1.341951 0.77937 -1.06066 1.06066 
C -0.77937 1.341951 -0.397805 1.5 0 1.5 
z
" style="stroke: #3f3f3f"/>
    </defs>
    <g clip-path="url(#p64adb63d46)">
     <use xlink:href="#m4d5002801d" x="77.48625" y="52.1355" style="fill: #ffffff; stroke: #3f3f3f"/>
    </g>
   </g>
   <g id="PathCollection_2">
    <g clip-path="url(#p64adb63d46)">
     <use xlink:href="#m4d5002801d" x="114.68625" y="104.3355" style="fill: #ffffff; stroke: #3f3f3f"/>
    </g>
   </g>
   <g id="PathCollection_3">
    <g clip-path="url(#p64adb63d46)">
     <use xlink:href="#m4d5002801d" x="151.88625" y="115.1355" style="fill: #ffffff; stroke: #3f3f3f"/>
    </g>
   </g>
   <g id="text_9">
    <!-- Proteins with 5 or more interactions -->
    <g transform="translate(7.2 16.318125) scale(0.12 -0.12)">
     <defs>
      <path id="DejaVuSans-50" d="M 1259 4147 
L 1259 2394 
L 2053 2394 
Q 2494 2394 2734 2622 
Q 2975 2850 2975 3272 
Q 2975 3691 2734 3919 
Q 2494 4147 2053 4147 
L 1259 4147 
z
M 628 4666 
L 2053 4666 
Q 2838 4666 3239 4311 
Q 3641 3956 3641 3272 
Q 3641 2581 3239 2228 
Q 2838 1875 2053 1875 
L 1259 1875 
L 1259 0 
L 628 0 
L 628 4666 
z
" transform="scale(0.015625)"/>
      <path id="DejaVuSans-77" d="M 269 3500 
L 844 3500 
L 1563 769 
L 2278 3500 
L 2956 3500 
L 3675 769 
L 4391 3500 
L 4966 3500 
L 4050 0 
L 3372 0 
L 2619 2869 
L 1863 0 
L 1184 0 
L 269 3500 
z
" transform="scale(0.015625)"/>
      <path id="DejaVuSans-6d" d="M 3328 2828 
Q 3544 3216 3844 3400 
Q 4144 3584 4550 3584 
Q 5097 3584 5394 3201 
Q 5691 2819 5691 2113 
L 5691 0 
L 5113 0 
L 5113 2094 
Q 5113 2597 4934 2840 
Q 4756 3084 4391 3084 
Q 3944 3084 3684 2787 
Q 3425 2491 3425 1978 
L 3425 0 
L 2847 0 
L 2847 2094 
Q 2847 2600 2669 2842 
Q 2491 3084 2119 3084 
Q 1678 3084 1418 2786 
Q 1159 2488 1159 1978 
L 1159 0 
L 581 0 
L 581 3500 
L 1159 3500 
L 1159 2956 
Q 1356 3278 1631 3431 
Q 1906 3584 2284 3584 
Q 2666 3584 2933 3390 
Q 3200 3197 3328 2828 
z
" transform="scale(0.015625)"/>
     </defs>
     <use xlink:href="#DejaVuSans-50"/>
     <use xlink:href="#DejaVuSans-72" x="58.552734"/>
     <use xlink:href="#DejaVuSans-6f" x="97.416016"/>
     <use xlink:href="#DejaVuSans-74" x="158.597656"/>
     <use xlink:href="#DejaVuSans-65" x="197.806641"/>
     <use xlink:href="#DejaVuSans-69" x="259.330078"/>
     <use xlink:href="#DejaVuSans-6e" x="287.113281"/>
     <use xlink:href="#DejaVuSans-73" x="350.492188"/>
     <use xlink:href="#DejaVuSans-20" x="402.591797"/>
     <use xlink:href="#DejaVuSans-77" x="434.378906"/>
     <use xlink:href="#DejaVuSans-69" x="516.166016"/>
     <use xlink:href="#DejaVuSans-74" x="543.949219"/>
     <use xlink:href="#DejaVuSans-68" x="583.158203"/>
     <use xlink:href="#DejaVuSans-20" x="646.537109"/>
     <use xlink:href="#DejaVuSans-35" x="678.324219"/>
     <use xlink:href="#DejaVuSans-20" x="741.947266"/>
     <use xlink:href="#DejaVuSans-6f" x="773.734375"/>
     <use xlink:href="#DejaVuSans-72" x="834.916016"/>
     <use xlink:href="#DejaVuSans-20" x="876.029297"/>
     <use xlink:href="#DejaVuSans-6d" x="907.816406"/>
     <use xlink:href="#DejaVuSans-6f" x="1005.228516"/>
     <use xlink:href="#DejaVuSans-72" x="1066.410156"/>
     <use xlink:href="#DejaVuSans-65" x="1105.273438"/>
     <use xlink:href="#DejaVuSans-20" x="1166.796875"/>
     <use xlink:href="#DejaVuSans-69" x="1198.583984"/>
     <use xlink:href="#DejaVuSans-6e" x="1226.367188"/>
     <use xlink:href="#DejaVuSans-74" x="1289.746094"/>
     <use xlink:href="#DejaVuSans-65" x="1328.955078"/>
     <use xlink:href="#DejaVuSans-72" x="1390.478516"/>
     <use xlink:href="#DejaVuSans-61" x="1431.591797"/>
     <use xlink:href="#DejaVuSans-63" x="1492.871094"/>
     <use xlink:href="#DejaVuSans-74" x="1547.851562"/>
     <use xlink:href="#DejaVuSans-69" x="1587.060547"/>
     <use xlink:href="#DejaVuSans-6f" x="1614.84375"/>
     <use xlink:href="#DejaVuSans-6e" x="1676.025391"/>
     <use xlink:href="#DejaVuSans-73" x="1739.404297"/>
    </g>
    <!-- (n=3,113 at pdockq &gt; 0.5) -->
    <g transform="translate(33.899062 29.7555) scale(0.12 -0.12)">
     <defs>
      <path id="DejaVuSans-28" d="M 1984 4856 
Q 1566 4138 1362 3434 
Q 1159 2731 1159 2009 
Q 1159 1288 1364 580 
Q 1569 -128 1984 -844 
L 1484 -844 
Q 1016 -109 783 600 
Q 550 1309 550 2009 
Q 550 2706 781 3412 
Q 1013 4119 1484 4856 
L 1984 4856 
z
" transform="scale(0.015625)"/>
      <path id="DejaVuSans-3d" d="M 678 2906 
L 4684 2906 
L 4684 2381 
L 678 2381 
L 678 2906 
z
M 678 1631 
L 4684 1631 
L 4684 1100 
L 678 1100 
L 678 1631 
z
" transform="scale(0.015625)"/>
      <path id="DejaVuSans-2c" d="M 750 794 
L 1409 794 
L 1409 256 
L 897 -744 
L 494 -744 
L 750 256 
L 750 794 
z
" transform="scale(0.015625)"/>
      <path id="DejaVuSans-70" d="M 1159 525 
L 1159 -1331 
L 581 -1331 
L 581 3500 
L 1159 3500 
L 1159 2969 
Q 1341 3281 1617 3432 
Q 1894 3584 2278 3584 
Q 2916 3584 3314 3078 
Q 3713 2572 3713 1747 
Q 3713 922 3314 415 
Q 2916 -91 2278 -91 
Q 1894 -91 1617 61 
Q 1341 213 1159 525 
z
M 3116 1747 
Q 3116 2381 2855 2742 
Q 2594 3103 2138 3103 
Q 1681 3103 1420 2742 
Q 1159 2381 1159 1747 
Q 1159 1113 1420 752 
Q 1681 391 2138 391 
Q 2594 391 2855 752 
Q 3116 1113 3116 1747 
z
" transform="scale(0.015625)"/>
      <path id="DejaVuSans-6b" d="M 581 4863 
L 1159 4863 
L 1159 1991 
L 2875 3500 
L 3609 3500 
L 1753 1863 
L 3688 0 
L 2938 0 
L 1159 1709 
L 1159 0 
L 581 0 
L 581 4863 
z
" transform="scale(0.015625)"/>
      <path id="DejaVuSans-71" d="M 947 1747 
Q 947 1113 1208 752 
Q 1469 391 1925 391 
Q 2381 391 2643 752 
Q 2906 1113 2906 1747 
Q 2906 2381 2643 2742 
Q 2381 3103 1925 3103 
Q 1469 3103 1208 2742 
Q 947 2381 947 1747 
z
M 2906 525 
Q 2725 213 2448 61 
Q 2172 -91 1784 -91 
Q 1150 -91 751 415 
Q 353 922 353 1747 
Q 353 2572 751 3078 
Q 1150 3584 1784 3584 
Q 2172 3584 2448 3432 
Q 2725 3281 2906 2969 
L 2906 3500 
L 3481 3500 
L 3481 -1331 
L 2906 -1331 
L 2906 525 
z
" transform="scale(0.015625)"/>
      <path id="DejaVuSans-3e" d="M 678 3150 
L 678 3719 
L 4684 2266 
L 4684 1747 
L 678 294 
L 678 863 
L 3897 2003 
L 678 3150 
z
" transform="scale(0.015625)"/>
      <path id="DejaVuSans-29" d="M 513 4856 
L 1013 4856 
Q 1481 4119 1714 3412 
Q 1947 2706 1947 2009 
Q 1947 1309 1714 600 
Q 1481 -109 1013 -844 
L 513 -844 
Q 928 -128 1133 580 
Q 1338 1288 1338 2009 
Q 1338 2731 1133 3434 
Q 928 4138 513 4856 
z
" transform="scale(0.015625)"/>
     </defs>
     <use xlink:href="#DejaVuSans-28"/>
     <use xlink:href="#DejaVuSans-6e" x="39.013672"/>
     <use xlink:href="#DejaVuSans-3d" x="102.392578"/>
     <use xlink:href="#DejaVuSans-33" x="186.181641"/>
     <use xlink:href="#DejaVuSans-2c" x="249.804688"/>
     <use xlink:href="#DejaVuSans-31" x="281.591797"/>
     <use xlink:href="#DejaVuSans-31" x="345.214844"/>
     <use xlink:href="#DejaVuSans-33" x="408.837891"/>
     <use xlink:href="#DejaVuSans-20" x="472.460938"/>
     <use xlink:href="#DejaVuSans-61" x="504.248047"/>
     <use xlink:href="#DejaVuSans-74" x="565.527344"/>
     <use xlink:href="#DejaVuSans-20" x="604.736328"/>
     <use xlink:href="#DejaVuSans-70" x="636.523438"/>
     <use xlink:href="#DejaVuSans-64" x="700"/>
     <use xlink:href="#DejaVuSans-6f" x="763.476562"/>
     <use xlink:href="#DejaVuSans-63" x="824.658203"/>
     <use xlink:href="#DejaVuSans-6b" x="879.638672"/>
     <use xlink:href="#DejaVuSans-71" x="937.548828"/>
     <use xlink:href="#DejaVuSans-20" x="1001.025391"/>
     <use xlink:href="#DejaVuSans-3e" x="1032.8125"/>
     <use xlink:href="#DejaVuSans-20" x="1116.601562"/>
     <use xlink:href="#DejaVuSans-30" x="1148.388672"/>
     <use xlink:href="#DejaVuSans-2e" x="1212.011719"/>
     <use xlink:href="#DejaVuSans-35" x="1243.798828"/>
     <use xlink:href="#DejaVuSans-29" x="1307.421875"/>
    </g>
   </g>
  </g>
 </g>
 <defs>
  <clipPath id="p64adb63d46">
   <rect x="58.88625" y="35.7555" width="111.6" height="83.16"/>
  </clipPath>
 </defs>
</svg>
