<?xml version="1.0" encoding="utf-8" standalone="no"?>
<!DOCTYPE svg PUBLIC "-//W3C//DTD SVG 1.1//EN"
  "http://www.w3.org/Graphics/SVG/1.1/DTD/svg11.dtd">
<svg xmlns:xlink="http://www.w3.org/1999/xlink" width="229.3725pt" height="156.47175pt" viewBox="0 0 229.3725 156.47175" xmlns="http://www.w3.org/2000/svg" version="1.1">
 <metadata>
  <rdf:RDF xmlns:dc="http://purl.org/dc/elements/1.1/" xmlns:cc="http://creativecommons.org/ns#" xmlns:rdf="http://www.w3.org/1999/02/22-rdf-syntax-ns#">
   <cc:Work>
    <dc:type rdf:resource="http://purl.org/dc/dcmitype/StillImage"/>
    <dc:date>2024-01-30T12:24:31.142431</dc:date>
    <dc:format>image/svg+xml</dc:format>
    <dc:creator>
     <cc:Agent>
      <dc:title>Matplotlib v3.6.3, https://matplotlib.org/</dc:title>
     </cc:Agent>
    </dc:creator>
   </cc:Work>
  </rdf:RDF>
 </metadata>
 <defs>
  <style type="text/css">*{stroke-linejoin: round; stroke-linecap: butt}</style>
 </defs>
 <g id="figure_1">
  <g id="patch_1">
   <path d="M 0 156.47175 
L 229.3725 156.47175 
L 229.3725 0 
L 0 0 
L 0 156.47175 
z
" style="fill: none"/>
  </g>
  <g id="axes_1">
   <g id="patch_2">
    <path d="M 58.88625 118.9155 
L 170.48625 118.9155 
L 170.48625 35.7555 
L 58.88625 35.7555 
L 58.88625 118.9155 
z
" style="fill: none"/>
   </g>
   <g id="PolyCollection_1">
    <defs>
     <path id="mab580852eb" d="M 77.507216 -52.13625 
L 77.465284 -52.13625 
L 77.460865 -52.790795 
L 77.456002 -53.445341 
L 77.450677 -54.099886 
L 77.444832 -54.754432 
L 77.438362 -55.408977 
L 77.431104 -56.063523 
L 77.422852 -56.718068 
L 77.413362 -57.372614 
L 77.402378 -58.027159 
L 77.389653 -58.681705 
L 77.374963 -59.33625 
L 77.358121 -59.990795 
L 77.338968 -60.645341 
L 77.317365 -61.299886 
L 77.293172 -61.954432 
L 77.266222 -62.608977 
L 77.236305 -63.263523 
L 77.203155 -63.918068 
L 77.166458 -64.572614 
L 77.125895 -65.227159 
L 77.081229 -65.881705 
L 77.032433 -66.53625 
L 76.979855 -67.190795 
L 76.924372 -67.845341 
L 76.867474 -68.499886 
L 76.811228 -69.154432 
L 76.758065 -69.808977 
L 76.710416 -70.463523 
L 76.670238 -71.118068 
L 76.638563 -71.772614 
L 76.615187 -72.427159 
L 76.598629 -73.081705 
L 76.586399 -73.73625 
L 76.575535 -74.390795 
L 76.563285 -75.045341 
L 76.547747 -75.699886 
L 76.528272 -76.354432 
L 76.505494 -77.008977 
L 76.480974 -77.663523 
L 76.456561 -78.318068 
L 76.433665 -78.972614 
L 76.4127 -79.627159 
L 76.392888 -80.281705 
L 76.372512 -80.93625 
L 76.349548 -81.590795 
L 76.322475 -82.245341 
L 76.290992 -82.899886 
L 76.256397 -83.554432 
L 76.221491 -84.208977 
L 76.19002 -84.863523 
L 76.165818 -85.518068 
L 76.151905 -86.172614 
L 76.149808 -86.827159 
L 76.159292 -87.481705 
L 76.17855 -88.13625 
L 76.204768 -88.790795 
L 76.234855 -89.445341 
L 76.266114 -90.099886 
L 76.296658 -90.754432 
L 76.325483 -91.408977 
L 76.352233 -92.063523 
L 76.376775 -92.718068 
L 76.398754 -93.372614 
L 76.417274 -94.027159 
L 76.430796 -94.681705 
L 76.437284 -95.33625 
L 76.43455 -95.990795 
L 76.420726 -96.645341 
L 76.39476 -97.299886 
L 76.356828 -97.954432 
L 76.308565 -98.608977 
L 76.253046 -99.263523 
L 76.194502 -99.918068 
L 76.137787 -100.572614 
L 76.08772 -101.227159 
L 76.048411 -101.881705 
L 76.022733 -102.53625 
L 76.012036 -103.190795 
L 76.016136 -103.845341 
L 76.03355 -104.499886 
L 76.061845 -105.154432 
L 76.097989 -105.808977 
L 76.138569 -106.463523 
L 76.17981 -107.118068 
L 76.217429 -107.772614 
L 76.246389 -108.427159 
L 76.260746 -109.081705 
L 76.253755 -109.73625 
L 76.218429 -110.390795 
L 76.148605 -111.045341 
L 76.040471 -111.699886 
L 75.894302 -112.354432 
L 75.715969 -113.008977 
L 75.517727 -113.663523 
L 75.31781 -114.318068 
L 75.138613 -114.972614 
L 75.003594 -115.627159 
L 74.933433 -116.281705 
L 74.942291 -116.93625 
L 80.030209 -116.93625 
L 80.030209 -116.93625 
L 80.039067 -116.281705 
L 79.968906 -115.627159 
L 79.833887 -114.972614 
L 79.65469 -114.318068 
L 79.454773 -113.663523 
L 79.256531 -113.008977 
L 79.078198 -112.354432 
L 78.932029 -111.699886 
L 78.823895 -111.045341 
L 78.754071 -110.390795 
L 78.718745 -109.73625 
L 78.711754 -109.081705 
L 78.726111 -108.427159 
L 78.755071 -107.772614 
L 78.79269 -107.118068 
L 78.833931 -106.463523 
L 78.874511 -105.808977 
L 78.910655 -105.154432 
L 78.93895 -104.499886 
L 78.956364 -103.845341 
L 78.960464 -103.190795 
L 78.949767 -102.53625 
L 78.924089 -101.881705 
L 78.88478 -101.227159 
L 78.834713 -100.572614 
L 78.777998 -99.918068 
L 78.719454 -99.263523 
L 78.663935 -98.608977 
L 78.615672 -97.954432 
L 78.57774 -97.299886 
L 78.551774 -96.645341 
L 78.53795 -95.990795 
L 78.535216 -95.33625 
L 78.541704 -94.681705 
L 78.555226 -94.027159 
L 78.573746 -93.372614 
L 78.595725 -92.718068 
L 78.620267 -92.063523 
L 78.647017 -91.408977 
L 78.675842 -90.754432 
L 78.706386 -90.099886 
L 78.737645 -89.445341 
L 78.767732 -88.790795 
L 78.79395 -88.13625 
L 78.813208 -87.481705 
L 78.822692 -86.827159 
L 78.820595 -86.172614 
L 78.806682 -85.518068 
L 78.78248 -84.863523 
L 78.751009 -84.208977 
L 78.716103 -83.554432 
L 78.681508 -82.899886 
L 78.650025 -82.245341 
L 78.622952 -81.590795 
L 78.599988 -80.93625 
L 78.579612 -80.281705 
L 78.5598 -79.627159 
L 78.538835 -78.972614 
L 78.515939 -78.318068 
L 78.491526 -77.663523 
L 78.467006 -77.008977 
L 78.444228 -76.354432 
L 78.424753 -75.699886 
L 78.409215 -75.045341 
L 78.396965 -74.390795 
L 78.386101 -73.73625 
L 78.373871 -73.081705 
L 78.357313 -72.427159 
L 78.333937 -71.772614 
L 78.302262 -71.118068 
L 78.262084 -70.463523 
L 78.214435 -69.808977 
L 78.161272 -69.154432 
L 78.105026 -68.499886 
L 78.048128 -67.845341 
L 77.992645 -67.190795 
L 77.940067 -66.53625 
L 77.891271 -65.881705 
L 77.846605 -65.227159 
L 77.806042 -64.572614 
L 77.769345 -63.918068 
L 77.736195 -63.263523 
L 77.706278 -62.608977 
L 77.679328 -61.954432 
L 77.655135 -61.299886 
L 77.633532 -60.645341 
L 77.614379 -59.990795 
L 77.597537 -59.33625 
L 77.582847 -58.681705 
L 77.570122 -58.027159 
L 77.559138 -57.372614 
L 77.549648 -56.718068 
L 77.541396 -56.063523 
L 77.534138 -55.408977 
L 77.527668 -54.754432 
L 77.521823 -54.099886 
L 77.516498 -53.445341 
L 77.511635 -52.790795 
L 77.507216 -52.13625 
z
" style="stroke: #3f3f3f; stroke-width: 1.5"/>
    </defs>
    <g clip-path="url(#pd516d32a94)">
     <use xlink:href="#mab580852eb" x="0" y="156.47175" style="fill: #3274a1; stroke: #3f3f3f; stroke-width: 1.5"/>
    </g>
   </g>
   <g id="PolyCollection_2">
    <defs>
     <path id="mecb6a3975b" d="M 118.46808 -41.33625 
L 110.90442 -41.33625 
L 110.916539 -41.718068 
L 111.030856 -42.099886 
L 111.232142 -42.481705 
L 111.497837 -42.863523 
L 111.801381 -43.245341 
L 112.115838 -43.627159 
L 112.417131 -44.008977 
L 112.686384 -44.390795 
L 112.911105 -44.772614 
L 113.085223 -45.154432 
L 113.208234 -45.53625 
L 113.283796 -45.918068 
L 113.318162 -46.299886 
L 113.318749 -46.681705 
L 113.293023 -47.063523 
L 113.247763 -47.445341 
L 113.188683 -47.827159 
L 113.120312 -48.208977 
L 113.046056 -48.590795 
L 112.968338 -48.972614 
L 112.888776 -49.354432 
L 112.808362 -49.73625 
L 112.727639 -50.118068 
L 112.646861 -50.499886 
L 112.566149 -50.881705 
L 112.48562 -51.263523 
L 112.405499 -51.645341 
L 112.326202 -52.027159 
L 112.248402 -52.408977 
L 112.173088 -52.790795 
L 112.101628 -53.172614 
L 112.035845 -53.554432 
L 111.978079 -53.93625 
L 111.931204 -54.318068 
L 111.898543 -54.699886 
L 111.88364 -55.081705 
L 111.889865 -55.463523 
L 111.919889 -55.845341 
L 111.975112 -56.227159 
L 112.055169 -56.608977 
L 112.15764 -56.990795 
L 112.278073 -57.372614 
L 112.410345 -57.754432 
L 112.547311 -58.13625 
L 112.681629 -58.518068 
L 112.806607 -58.899886 
L 112.916916 -59.281705 
L 113.00905 -59.663523 
L 113.081495 -60.045341 
L 113.134603 -60.427159 
L 113.170234 -60.808977 
L 113.191248 -61.190795 
L 113.200944 -61.572614 
L 113.20253 -61.954432 
L 113.198713 -62.33625 
L 113.19146 -62.718068 
L 113.181976 -63.099886 
L 113.170887 -63.481705 
L 113.15858 -63.863523 
L 113.145615 -64.245341 
L 113.133062 -64.627159 
L 113.12266 -65.008977 
L 113.1167 -65.390795 
L 113.117638 -65.772614 
L 113.127506 -66.154432 
L 113.147286 -66.53625 
L 113.17642 -66.918068 
L 113.212643 -67.299886 
L 113.252206 -67.681705 
L 113.290498 -68.063523 
L 113.322936 -68.445341 
L 113.345928 -68.827159 
L 113.357697 -69.208977 
L 113.358749 -69.590795 
L 113.351913 -69.972614 
L 113.341898 -70.354432 
L 113.3345 -70.73625 
L 113.335614 -71.118068 
L 113.350251 -71.499886 
L 113.381771 -71.881705 
L 113.431438 -72.263523 
L 113.498374 -72.645341 
L 113.579852 -73.027159 
L 113.671846 -73.408977 
L 113.769675 -73.790795 
L 113.868637 -74.172614 
L 113.964501 -74.554432 
L 114.053838 -74.93625 
L 114.134168 -75.318068 
L 114.203981 -75.699886 
L 114.262664 -76.081705 
L 114.310397 -76.463523 
L 114.348033 -76.845341 
L 114.37697 -77.227159 
L 114.399012 -77.608977 
L 114.416197 -77.990795 
L 114.430606 -78.372614 
L 114.444151 -78.754432 
L 114.458388 -79.13625 
L 114.914112 -79.13625 
L 114.914112 -79.13625 
L 114.928349 -78.754432 
L 114.941894 -78.372614 
L 114.956303 -77.990795 
L 114.973488 -77.608977 
L 114.99553 -77.227159 
L 115.024467 -76.845341 
L 115.062103 -76.463523 
L 115.109836 -76.081705 
L 115.168519 -75.699886 
L 115.238332 -75.318068 
L 115.318662 -74.93625 
L 115.407999 -74.554432 
L 115.503863 -74.172614 
L 115.602825 -73.790795 
L 115.700654 -73.408977 
L 115.792648 -73.027159 
L 115.874126 -72.645341 
L 115.941062 -72.263523 
L 115.990729 -71.881705 
L 116.022249 -71.499886 
L 116.036886 -71.118068 
L 116.038 -70.73625 
L 116.030602 -70.354432 
L 116.020587 -69.972614 
L 116.013751 -69.590795 
L 116.014803 -69.208977 
L 116.026572 -68.827159 
L 116.049564 -68.445341 
L 116.082002 -68.063523 
L 116.120294 -67.681705 
L 116.159857 -67.299886 
L 116.19608 -66.918068 
L 116.225214 -66.53625 
L 116.244994 -66.154432 
L 116.254862 -65.772614 
L 116.2558 -65.390795 
L 116.24984 -65.008977 
L 116.239438 -64.627159 
L 116.226885 -64.245341 
L 116.21392 -63.863523 
L 116.201613 -63.481705 
L 116.190524 -63.099886 
L 116.18104 -62.718068 
L 116.173787 -62.33625 
L 116.16997 -61.954432 
L 116.171556 -61.572614 
L 116.181252 -61.190795 
L 116.202266 -60.808977 
L 116.237897 -60.427159 
L 116.291005 -60.045341 
L 116.36345 -59.663523 
L 116.455584 -59.281705 
L 116.565893 -58.899886 
L 116.690871 -58.518068 
L 116.825189 -58.13625 
L 116.962155 -57.754432 
L 117.094427 -57.372614 
L 117.21486 -56.990795 
L 117.317331 -56.608977 
L 117.397388 -56.227159 
L 117.452611 -55.845341 
L 117.482635 -55.463523 
L 117.48886 -55.081705 
L 117.473957 -54.699886 
L 117.441296 -54.318068 
L 117.394421 -53.93625 
L 117.336655 -53.554432 
L 117.270872 -53.172614 
L 117.199412 -52.790795 
L 117.124098 -52.408977 
L 117.046298 -52.027159 
L 116.967001 -51.645341 
L 116.88688 -51.263523 
L 116.806351 -50.881705 
L 116.725639 -50.499886 
L 116.644861 -50.118068 
L 116.564138 -49.73625 
L 116.483724 -49.354432 
L 116.404162 -48.972614 
L 116.326444 -48.590795 
L 116.252188 -48.208977 
L 116.183817 -47.827159 
L 116.124737 -47.445341 
L 116.079477 -47.063523 
L 116.053751 -46.681705 
L 116.054338 -46.299886 
L 116.088704 -45.918068 
L 116.164266 -45.53625 
L 116.287277 -45.154432 
L 116.461395 -44.772614 
L 116.686116 -44.390795 
L 116.955369 -44.008977 
L 117.256662 -43.627159 
L 117.571119 -43.245341 
L 117.874663 -42.863523 
L 118.140358 -42.481705 
L 118.341644 -42.099886 
L 118.455961 -41.718068 
L 118.46808 -41.33625 
z
" style="stroke: #3f3f3f; stroke-width: 1.5"/>
    </defs>
    <g clip-path="url(#pd516d32a94)">
     <use xlink:href="#mecb6a3975b" x="0" y="156.47175" style="fill: #3274a1; stroke: #3f3f3f; stroke-width: 1.5"/>
    </g>
   </g>
   <g id="PolyCollection_3">
    <defs>
     <path id="m117e578af1" d="M 166.76625 -41.33625 
L 137.00625 -41.33625 
L 137.305431 -41.590795 
L 138.201669 -41.845341 
L 139.578111 -42.099886 
L 141.267661 -42.354432 
L 143.085193 -42.608977 
L 144.859485 -42.863523 
L 146.457445 -43.118068 
L 147.796405 -43.372614 
L 148.844223 -43.627159 
L 149.610113 -43.881705 
L 150.130721 -44.13625 
L 150.455807 -44.390795 
L 150.636645 -44.645341 
L 150.718499 -44.899886 
L 150.737107 -45.154432 
L 150.718212 -45.408977 
L 150.678895 -45.663523 
L 150.629652 -45.918068 
L 150.576436 -46.172614 
L 150.522336 -46.427159 
L 150.46876 -46.681705 
L 150.41621 -46.93625 
L 150.364752 -47.190795 
L 150.31432 -47.445341 
L 150.264923 -47.699886 
L 150.216784 -47.954432 
L 150.17042 -48.208977 
L 150.126615 -48.463523 
L 150.086289 -48.718068 
L 150.050242 -48.972614 
L 150.018836 -49.227159 
L 149.991692 -49.481705 
L 149.967521 -49.73625 
L 149.944184 -49.990795 
L 149.919026 -50.245341 
L 149.889434 -50.499886 
L 149.853451 -50.754432 
L 149.810253 -51.008977 
L 149.760315 -51.263523 
L 149.705209 -51.518068 
L 149.647163 -51.772614 
L 149.588622 -52.027159 
L 149.532054 -52.281705 
L 149.480106 -52.53625 
L 149.435961 -52.790795 
L 149.403536 -53.045341 
L 149.387155 -53.299886 
L 149.390522 -53.554432 
L 149.415215 -53.808977 
L 149.459295 -54.063523 
L 149.516774 -54.318068 
L 149.57846 -54.572614 
L 149.634226 -54.827159 
L 149.676101 -55.081705 
L 149.701161 -55.33625 
L 149.713125 -55.590795 
L 149.721972 -55.845341 
L 149.74156 -56.099886 
L 149.785947 -56.354432 
L 149.865578 -56.608977 
L 149.984496 -56.863523 
L 150.139369 -57.118068 
L 150.320452 -57.372614 
L 150.514012 -57.627159 
L 150.705373 -57.881705 
L 150.881692 -58.13625 
L 151.033858 -58.390795 
L 151.15729 -58.645341 
L 151.251725 -58.899886 
L 151.320333 -59.154432 
L 151.368484 -59.408977 
L 151.402467 -59.663523 
L 151.428339 -59.918068 
L 151.451034 -60.172614 
L 151.473823 -60.427159 
L 151.498149 -60.681705 
L 151.52386 -60.93625 
L 151.549748 -61.190795 
L 151.574246 -61.445341 
L 151.596092 -61.699886 
L 151.614792 -61.954432 
L 151.630763 -62.208977 
L 151.645162 -62.463523 
L 151.659488 -62.718068 
L 151.675094 -62.972614 
L 151.692779 -63.227159 
L 151.712563 -63.481705 
L 151.733691 -63.73625 
L 151.754838 -63.990795 
L 151.774442 -64.245341 
L 151.791064 -64.499886 
L 151.803689 -64.754432 
L 151.811912 -65.008977 
L 151.815991 -65.263523 
L 151.816768 -65.518068 
L 151.81549 -65.772614 
L 151.81357 -66.027159 
L 151.812336 -66.281705 
L 151.812811 -66.53625 
L 151.959689 -66.53625 
L 151.959689 -66.53625 
L 151.960164 -66.281705 
L 151.95893 -66.027159 
L 151.95701 -65.772614 
L 151.955732 -65.518068 
L 151.956509 -65.263523 
L 151.960588 -65.008977 
L 151.968811 -64.754432 
L 151.981436 -64.499886 
L 151.998058 -64.245341 
L 152.017662 -63.990795 
L 152.038809 -63.73625 
L 152.059937 -63.481705 
L 152.079721 -63.227159 
L 152.097406 -62.972614 
L 152.113012 -62.718068 
L 152.127338 -62.463523 
L 152.141737 -62.208977 
L 152.157708 -61.954432 
L 152.176408 -61.699886 
L 152.198254 -61.445341 
L 152.222752 -61.190795 
L 152.24864 -60.93625 
L 152.274351 -60.681705 
L 152.298677 -60.427159 
L 152.321466 -60.172614 
L 152.344161 -59.918068 
L 152.370033 -59.663523 
L 152.404016 -59.408977 
L 152.452167 -59.154432 
L 152.520775 -58.899886 
L 152.61521 -58.645341 
L 152.738642 -58.390795 
L 152.890808 -58.13625 
L 153.067127 -57.881705 
L 153.258488 -57.627159 
L 153.452048 -57.372614 
L 153.633131 -57.118068 
L 153.788004 -56.863523 
L 153.906922 -56.608977 
L 153.986553 -56.354432 
L 154.03094 -56.099886 
L 154.050528 -55.845341 
L 154.059375 -55.590795 
L 154.071339 -55.33625 
L 154.096399 -55.081705 
L 154.138274 -54.827159 
L 154.19404 -54.572614 
L 154.255726 -54.318068 
L 154.313205 -54.063523 
L 154.357285 -53.808977 
L 154.381978 -53.554432 
L 154.385345 -53.299886 
L 154.368964 -53.045341 
L 154.336539 -52.790795 
L 154.292394 -52.53625 
L 154.240446 -52.281705 
L 154.183878 -52.027159 
L 154.125337 -51.772614 
L 154.067291 -51.518068 
L 154.012185 -51.263523 
L 153.962247 -51.008977 
L 153.919049 -50.754432 
L 153.883066 -50.499886 
L 153.853474 -50.245341 
L 153.828316 -49.990795 
L 153.804979 -49.73625 
L 153.780808 -49.481705 
L 153.753664 -49.227159 
L 153.722258 -48.972614 
L 153.686211 -48.718068 
L 153.645885 -48.463523 
L 153.60208 -48.208977 
L 153.555716 -47.954432 
L 153.507577 -47.699886 
L 153.45818 -47.445341 
L 153.407748 -47.190795 
L 153.35629 -46.93625 
L 153.30374 -46.681705 
L 153.250164 -46.427159 
L 153.196064 -46.172614 
L 153.142848 -45.918068 
L 153.093605 -45.663523 
L 153.054288 -45.408977 
L 153.035393 -45.154432 
L 153.054001 -44.899886 
L 153.135855 -44.645341 
L 153.316693 -44.390795 
L 153.641779 -44.13625 
L 154.162387 -43.881705 
L 154.928277 -43.627159 
L 155.976095 -43.372614 
L 157.315055 -43.118068 
L 158.913015 -42.863523 
L 160.687307 -42.608977 
L 162.504839 -42.354432 
L 164.194389 -42.099886 
L 165.570831 -41.845341 
L 166.467069 -41.590795 
L 166.76625 -41.33625 
z
" style="stroke: #3f3f3f; stroke-width: 1.5"/>
    </defs>
    <g clip-path="url(#pd516d32a94)">
     <use xlink:href="#m117e578af1" x="0" y="156.47175" style="fill: #3274a1; stroke: #3f3f3f; stroke-width: 1.5"/>
    </g>
   </g>
   <g id="matplotlib.axis_1">
    <g id="xtick_1">
     <g id="line2d_1">
      <defs>
       <path id="m09eda3aeb7" d="M 0 0 
L 0 3.5 
" style="stroke: #000000; stroke-width: 0.8"/>
      </defs>
      <g>
       <use xlink:href="#m09eda3aeb7" x="77.48625" y="118.9155" style="stroke: #000000; stroke-width: 0.8"/>
      </g>
     </g>
     <g id="text_1">
      <!-- 1st -->
      <g transform="translate(69.740156 133.513937) scale(0.1 -0.1)">
       <defs>
        <path id="DejaVuSans-31" d="M 794 531 
L 1825 531 
L 1825 4091 
L 703 3866 
L 703 4441 
L 1819 4666 
L 2450 4666 
L 2450 531 
L 3481 531 
L 3481 0 
L 794 0 
L 794 531 
z
" transform="scale(0.015625)"/>
        <path id="DejaVuSans-73" d="M 2834 3397 
L 2834 2853 
Q 2591 2978 2328 3040 
Q 2066 3103 1784 3103 
Q 1356 3103 1142 2972 
Q 928 2841 928 2578 
Q 928 2378 1081 2264 
Q 1234 2150 1697 2047 
L 1894 2003 
Q 2506 1872 2764 1633 
Q 3022 1394 3022 966 
Q 3022 478 2636 193 
Q 2250 -91 1575 -91 
Q 1294 -91 989 -36 
Q 684 19 347 128 
L 347 722 
Q 666 556 975 473 
Q 1284 391 1588 391 
Q 1994 391 2212 530 
Q 2431 669 2431 922 
Q 2431 1156 2273 1281 
Q 2116 1406 1581 1522 
L 1381 1569 
Q 847 1681 609 1914 
Q 372 2147 372 2553 
Q 372 3047 722 3315 
Q 1072 3584 1716 3584 
Q 2034 3584 2315 3537 
Q 2597 3491 2834 3397 
z
" transform="scale(0.015625)"/>
        <path id="DejaVuSans-74" d="M 1172 4494 
L 1172 3500 
L 2356 3500 
L 2356 3053 
L 1172 3053 
L 1172 1153 
Q 1172 725 1289 603 
Q 1406 481 1766 481 
L 2356 481 
L 2356 0 
L 1766 0 
Q 1100 0 847 248 
Q 594 497 594 1153 
L 594 3053 
L 172 3053 
L 172 3500 
L 594 3500 
L 594 4494 
L 1172 4494 
z
" transform="scale(0.015625)"/>
       </defs>
       <use xlink:href="#DejaVuSans-31"/>
       <use xlink:href="#DejaVuSans-73" x="63.623047"/>
       <use xlink:href="#DejaVuSans-74" x="115.722656"/>
      </g>
     </g>
    </g>
    <g id="xtick_2">
     <g id="line2d_2">
      <g>
       <use xlink:href="#m09eda3aeb7" x="114.68625" y="118.9155" style="stroke: #000000; stroke-width: 0.8"/>
      </g>
     </g>
     <g id="text_2">
      <!-- 2nd -->
      <g transform="translate(105.162031 133.513937) scale(0.1 -0.1)">
       <defs>
        <path id="DejaVuSans-32" d="M 1228 531 
L 3431 531 
L 3431 0 
L 469 0 
L 469 531 
Q 828 903 1448 1529 
Q 2069 2156 2228 2338 
Q 2531 2678 2651 2914 
Q 2772 3150 2772 3378 
Q 2772 3750 2511 3984 
Q 2250 4219 1831 4219 
Q 1534 4219 1204 4116 
Q 875 4013 500 3803 
L 500 4441 
Q 881 4594 1212 4672 
Q 1544 4750 1819 4750 
Q 2544 4750 2975 4387 
Q 3406 4025 3406 3419 
Q 3406 3131 3298 2873 
Q 3191 2616 2906 2266 
Q 2828 2175 2409 1742 
Q 1991 1309 1228 531 
z
" transform="scale(0.015625)"/>
        <path id="DejaVuSans-6e" d="M 3513 2113 
L 3513 0 
L 2938 0 
L 2938 2094 
Q 2938 2591 2744 2837 
Q 2550 3084 2163 3084 
Q 1697 3084 1428 2787 
Q 1159 2491 1159 1978 
L 1159 0 
L 581 0 
L 581 3500 
L 1159 3500 
L 1159 2956 
Q 1366 3272 1645 3428 
Q 1925 3584 2291 3584 
Q 2894 3584 3203 3211 
Q 3513 2838 3513 2113 
z
" transform="scale(0.015625)"/>
        <path id="DejaVuSans-64" d="M 2906 2969 
L 2906 4863 
L 3481 4863 
L 3481 0 
L 2906 0 
L 2906 525 
Q 2725 213 2448 61 
Q 2172 -91 1784 -91 
Q 1150 -91 751 415 
Q 353 922 353 1747 
Q 353 2572 751 3078 
Q 1150 3584 1784 3584 
Q 2172 3584 2448 3432 
Q 2725 3281 2906 2969 
z
M 947 1747 
Q 947 1113 1208 752 
Q 1469 391 1925 391 
Q 2381 391 2643 752 
Q 2906 1113 2906 1747 
Q 2906 2381 2643 2742 
Q 2381 3103 1925 3103 
Q 1469 3103 1208 2742 
Q 947 2381 947 1747 
z
" transform="scale(0.015625)"/>
       </defs>
       <use xlink:href="#DejaVuSans-32"/>
       <use xlink:href="#DejaVuSans-6e" x="63.623047"/>
       <use xlink:href="#DejaVuSans-64" x="127.001953"/>
      </g>
     </g>
    </g>
    <g id="xtick_3">
     <g id="line2d_3">
      <g>
       <use xlink:href="#m09eda3aeb7" x="151.88625" y="118.9155" style="stroke: #000000; stroke-width: 0.8"/>
      </g>
     </g>
     <g id="text_3">
      <!-- 3rd -->
      <g transform="translate(143.562812 133.513937) scale(0.1 -0.1)">
       <defs>
        <path id="DejaVuSans-33" d="M 2597 2516 
Q 3050 2419 3304 2112 
Q 3559 1806 3559 1356 
Q 3559 666 3084 287 
Q 2609 -91 1734 -91 
Q 1441 -91 1130 -33 
Q 819 25 488 141 
L 488 750 
Q 750 597 1062 519 
Q 1375 441 1716 441 
Q 2309 441 2620 675 
Q 2931 909 2931 1356 
Q 2931 1769 2642 2001 
Q 2353 2234 1838 2234 
L 1294 2234 
L 1294 2753 
L 1863 2753 
Q 2328 2753 2575 2939 
Q 2822 3125 2822 3475 
Q 2822 3834 2567 4026 
Q 2313 4219 1838 4219 
Q 1578 4219 1281 4162 
Q 984 4106 628 3988 
L 628 4550 
Q 988 4650 1302 4700 
Q 1616 4750 1894 4750 
Q 2613 4750 3031 4423 
Q 3450 4097 3450 3541 
Q 3450 3153 3228 2886 
Q 3006 2619 2597 2516 
z
" transform="scale(0.015625)"/>
        <path id="DejaVuSans-72" d="M 2631 2963 
Q 2534 3019 2420 3045 
Q 2306 3072 2169 3072 
Q 1681 3072 1420 2755 
Q 1159 2438 1159 1844 
L 1159 0 
L 581 0 
L 581 3500 
L 1159 3500 
L 1159 2956 
Q 1341 3275 1631 3429 
Q 1922 3584 2338 3584 
Q 2397 3584 2469 3576 
Q 2541 3569 2628 3553 
L 2631 2963 
z
" transform="scale(0.015625)"/>
       </defs>
       <use xlink:href="#DejaVuSans-33"/>
       <use xlink:href="#DejaVuSans-72" x="63.623047"/>
       <use xlink:href="#DejaVuSans-64" x="102.986328"/>
      </g>
     </g>
    </g>
    <g id="text_4">
     <!-- nth largest cluster -->
     <g transform="translate(68.969844 147.192063) scale(0.1 -0.1)">
      <defs>
       <path id="DejaVuSans-68" d="M 3513 2113 
L 3513 0 
L 2938 0 
L 2938 2094 
Q 2938 2591 2744 2837 
Q 2550 3084 2163 3084 
Q 1697 3084 1428 2787 
Q 1159 2491 1159 1978 
L 1159 0 
L 581 0 
L 581 4863 
L 1159 4863 
L 1159 2956 
Q 1366 3272 1645 3428 
Q 1925 3584 2291 3584 
Q 2894 3584 3203 3211 
Q 3513 2838 3513 2113 
z
" transform="scale(0.015625)"/>
       <path id="DejaVuSans-20" transform="scale(0.015625)"/>
       <path id="DejaVuSans-6c" d="M 603 4863 
L 1178 4863 
L 1178 0 
L 603 0 
L 603 4863 
z
" transform="scale(0.015625)"/>
       <path id="DejaVuSans-61" d="M 2194 1759 
Q 1497 1759 1228 1600 
Q 959 1441 959 1056 
Q 959 750 1161 570 
Q 1363 391 1709 391 
Q 2188 391 2477 730 
Q 2766 1069 2766 1631 
L 2766 1759 
L 2194 1759 
z
M 3341 1997 
L 3341 0 
L 2766 0 
L 2766 531 
Q 2569 213 2275 61 
Q 1981 -91 1556 -91 
Q 1019 -91 701 211 
Q 384 513 384 1019 
Q 384 1609 779 1909 
Q 1175 2209 1959 2209 
L 2766 2209 
L 2766 2266 
Q 2766 2663 2505 2880 
Q 2244 3097 1772 3097 
Q 1472 3097 1187 3025 
Q 903 2953 641 2809 
L 641 3341 
Q 956 3463 1253 3523 
Q 1550 3584 1831 3584 
Q 2591 3584 2966 3190 
Q 3341 2797 3341 1997 
z
" transform="scale(0.015625)"/>
       <path id="DejaVuSans-67" d="M 2906 1791 
Q 2906 2416 2648 2759 
Q 2391 3103 1925 3103 
Q 1463 3103 1205 2759 
Q 947 2416 947 1791 
Q 947 1169 1205 825 
Q 1463 481 1925 481 
Q 2391 481 2648 825 
Q 2906 1169 2906 1791 
z
M 3481 434 
Q 3481 -459 3084 -895 
Q 2688 -1331 1869 -1331 
Q 1566 -1331 1297 -1286 
Q 1028 -1241 775 -1147 
L 775 -588 
Q 1028 -725 1275 -790 
Q 1522 -856 1778 -856 
Q 2344 -856 2625 -561 
Q 2906 -266 2906 331 
L 2906 616 
Q 2728 306 2450 153 
Q 2172 0 1784 0 
Q 1141 0 747 490 
Q 353 981 353 1791 
Q 353 2603 747 3093 
Q 1141 3584 1784 3584 
Q 2172 3584 2450 3431 
Q 2728 3278 2906 2969 
L 2906 3500 
L 3481 3500 
L 3481 434 
z
" transform="scale(0.015625)"/>
       <path id="DejaVuSans-65" d="M 3597 1894 
L 3597 1613 
L 953 1613 
Q 991 1019 1311 708 
Q 1631 397 2203 397 
Q 2534 397 2845 478 
Q 3156 559 3463 722 
L 3463 178 
Q 3153 47 2828 -22 
Q 2503 -91 2169 -91 
Q 1331 -91 842 396 
Q 353 884 353 1716 
Q 353 2575 817 3079 
Q 1281 3584 2069 3584 
Q 2775 3584 3186 3129 
Q 3597 2675 3597 1894 
z
M 3022 2063 
Q 3016 2534 2758 2815 
Q 2500 3097 2075 3097 
Q 1594 3097 1305 2825 
Q 1016 2553 972 2059 
L 3022 2063 
z
" transform="scale(0.015625)"/>
       <path id="DejaVuSans-63" d="M 3122 3366 
L 3122 2828 
Q 2878 2963 2633 3030 
Q 2388 3097 2138 3097 
Q 1578 3097 1268 2742 
Q 959 2388 959 1747 
Q 959 1106 1268 751 
Q 1578 397 2138 397 
Q 2388 397 2633 464 
Q 2878 531 3122 666 
L 3122 134 
Q 2881 22 2623 -34 
Q 2366 -91 2075 -91 
Q 1284 -91 818 406 
Q 353 903 353 1747 
Q 353 2603 823 3093 
Q 1294 3584 2113 3584 
Q 2378 3584 2631 3529 
Q 2884 3475 3122 3366 
z
" transform="scale(0.015625)"/>
       <path id="DejaVuSans-75" d="M 544 1381 
L 544 3500 
L 1119 3500 
L 1119 1403 
Q 1119 906 1312 657 
Q 1506 409 1894 409 
Q 2359 409 2629 706 
Q 2900 1003 2900 1516 
L 2900 3500 
L 3475 3500 
L 3475 0 
L 2900 0 
L 2900 538 
Q 2691 219 2414 64 
Q 2138 -91 1772 -91 
Q 1169 -91 856 284 
Q 544 659 544 1381 
z
M 1991 3584 
L 1991 3584 
z
" transform="scale(0.015625)"/>
      </defs>
      <use xlink:href="#DejaVuSans-6e"/>
      <use xlink:href="#DejaVuSans-74" x="63.378906"/>
      <use xlink:href="#DejaVuSans-68" x="102.587891"/>
      <use xlink:href="#DejaVuSans-20" x="165.966797"/>
      <use xlink:href="#DejaVuSans-6c" x="197.753906"/>
      <use xlink:href="#DejaVuSans-61" x="225.537109"/>
      <use xlink:href="#DejaVuSans-72" x="286.816406"/>
      <use xlink:href="#DejaVuSans-67" x="326.179688"/>
      <use xlink:href="#DejaVuSans-65" x="389.65625"/>
      <use xlink:href="#DejaVuSans-73" x="451.179688"/>
      <use xlink:href="#DejaVuSans-74" x="503.279297"/>
      <use xlink:href="#DejaVuSans-20" x="542.488281"/>
      <use xlink:href="#DejaVuSans-63" x="574.275391"/>
      <use xlink:href="#DejaVuSans-6c" x="629.255859"/>
      <use xlink:href="#DejaVuSans-75" x="657.039062"/>
      <use xlink:href="#DejaVuSans-73" x="720.417969"/>
      <use xlink:href="#DejaVuSans-74" x="772.517578"/>
      <use xlink:href="#DejaVuSans-65" x="811.726562"/>
      <use xlink:href="#DejaVuSans-72" x="873.25"/>
     </g>
    </g>
   </g>
   <g id="matplotlib.axis_2">
    <g id="ytick_1">
     <g id="line2d_4">
      <defs>
       <path id="m19cfc59c30" d="M 0 0 
L -3.5 0 
" style="stroke: #000000; stroke-width: 0.8"/>
      </defs>
      <g>
       <use xlink:href="#m19cfc59c30" x="58.88625" y="115.1355" style="stroke: #000000; stroke-width: 0.8"/>
      </g>
     </g>
     <g id="text_5">
      <!-- 0.0 -->
      <g transform="translate(35.983125 118.934719) scale(0.1 -0.1)">
       <defs>
        <path id="DejaVuSans-30" d="M 2034 4250 
Q 1547 4250 1301 3770 
Q 1056 3291 1056 2328 
Q 1056 1369 1301 889 
Q 1547 409 2034 409 
Q 2525 409 2770 889 
Q 3016 1369 3016 2328 
Q 3016 3291 2770 3770 
Q 2525 4250 2034 4250 
z
M 2034 4750 
Q 2819 4750 3233 4129 
Q 3647 3509 3647 2328 
Q 3647 1150 3233 529 
Q 2819 -91 2034 -91 
Q 1250 -91 836 529 
Q 422 1150 422 2328 
Q 422 3509 836 4129 
Q 1250 4750 2034 4750 
z
" transform="scale(0.015625)"/>
        <path id="DejaVuSans-2e" d="M 684 794 
L 1344 794 
L 1344 0 
L 684 0 
L 684 794 
z
" transform="scale(0.015625)"/>
       </defs>
       <use xlink:href="#DejaVuSans-30"/>
       <use xlink:href="#DejaVuSans-2e" x="63.623047"/>
       <use xlink:href="#DejaVuSans-30" x="95.410156"/>
      </g>
     </g>
    </g>
    <g id="ytick_2">
     <g id="line2d_5">
      <g>
       <use xlink:href="#m19cfc59c30" x="58.88625" y="77.3355" style="stroke: #000000; stroke-width: 0.8"/>
      </g>
     </g>
     <g id="text_6">
      <!-- 0.5 -->
      <g transform="translate(35.983125 81.134719) scale(0.1 -0.1)">
       <defs>
        <path id="DejaVuSans-35" d="M 691 4666 
L 3169 4666 
L 3169 4134 
L 1269 4134 
L 1269 2991 
Q 1406 3038 1543 3061 
Q 1681 3084 1819 3084 
Q 2600 3084 3056 2656 
Q 3513 2228 3513 1497 
Q 3513 744 3044 326 
Q 2575 -91 1722 -91 
Q 1428 -91 1123 -41 
Q 819 9 494 109 
L 494 744 
Q 775 591 1075 516 
Q 1375 441 1709 441 
Q 2250 441 2565 725 
Q 2881 1009 2881 1497 
Q 2881 1984 2565 2268 
Q 2250 2553 1709 2553 
Q 1456 2553 1204 2497 
Q 953 2441 691 2322 
L 691 4666 
z
" transform="scale(0.015625)"/>
       </defs>
       <use xlink:href="#DejaVuSans-30"/>
       <use xlink:href="#DejaVuSans-2e" x="63.623047"/>
       <use xlink:href="#DejaVuSans-35" x="95.410156"/>
      </g>
     </g>
    </g>
    <g id="ytick_3">
     <g id="line2d_6">
      <g>
       <use xlink:href="#m19cfc59c30" x="58.88625" y="39.5355" style="stroke: #000000; stroke-width: 0.8"/>
      </g>
     </g>
     <g id="text_7">
      <!-- 1.0 -->
      <g transform="translate(35.983125 43.334719) scale(0.1 -0.1)">
       <use xlink:href="#DejaVuSans-31"/>
       <use xlink:href="#DejaVuSans-2e" x="63.623047"/>
       <use xlink:href="#DejaVuSans-30" x="95.410156"/>
      </g>
     </g>
    </g>
    <g id="text_8">
     <!-- Fraction of interactions -->
     <g transform="translate(29.903437 134.937844) rotate(-90) scale(0.1 -0.1)">
      <defs>
       <path id="DejaVuSans-46" d="M 628 4666 
L 3309 4666 
L 3309 4134 
L 1259 4134 
L 1259 2759 
L 3109 2759 
L 3109 2228 
L 1259 2228 
L 1259 0 
L 628 0 
L 628 4666 
z
" transform="scale(0.015625)"/>
       <path id="DejaVuSans-69" d="M 603 3500 
L 1178 3500 
L 1178 0 
L 603 0 
L 603 3500 
z
M 603 4863 
L 1178 4863 
L 1178 4134 
L 603 4134 
L 603 4863 
z
" transform="scale(0.015625)"/>
       <path id="DejaVuSans-6f" d="M 1959 3097 
Q 1497 3097 1228 2736 
Q 959 2375 959 1747 
Q 959 1119 1226 758 
Q 1494 397 1959 397 
Q 2419 397 2687 759 
Q 2956 1122 2956 1747 
Q 2956 2369 2687 2733 
Q 2419 3097 1959 3097 
z
M 1959 3584 
Q 2709 3584 3137 3096 
Q 3566 2609 3566 1747 
Q 3566 888 3137 398 
Q 2709 -91 1959 -91 
Q 1206 -91 779 398 
Q 353 888 353 1747 
Q 353 2609 779 3096 
Q 1206 3584 1959 3584 
z
" transform="scale(0.015625)"/>
       <path id="DejaVuSans-66" d="M 2375 4863 
L 2375 4384 
L 1825 4384 
Q 1516 4384 1395 4259 
Q 1275 4134 1275 3809 
L 1275 3500 
L 2222 3500 
L 2222 3053 
L 1275 3053 
L 1275 0 
L 697 0 
L 697 3053 
L 147 3053 
L 147 3500 
L 697 3500 
L 697 3744 
Q 697 4328 969 4595 
Q 1241 4863 1831 4863 
L 2375 4863 
z
" transform="scale(0.015625)"/>
      </defs>
      <use xlink:href="#DejaVuSans-46"/>
      <use xlink:href="#DejaVuSans-72" x="50.269531"/>
      <use xlink:href="#DejaVuSans-61" x="91.382812"/>
      <use xlink:href="#DejaVuSans-63" x="152.662109"/>
      <use xlink:href="#DejaVuSans-74" x="207.642578"/>
      <use xlink:href="#DejaVuSans-69" x="246.851562"/>
      <use xlink:href="#DejaVuSans-6f" x="274.634766"/>
      <use xlink:href="#DejaVuSans-6e" x="335.816406"/>
      <use xlink:href="#DejaVuSans-20" x="399.195312"/>
      <use xlink:href="#DejaVuSans-6f" x="430.982422"/>
      <use xlink:href="#DejaVuSans-66" x="492.164062"/>
      <use xlink:href="#DejaVuSans-20" x="527.369141"/>
      <use xlink:href="#DejaVuSans-69" x="559.15625"/>
      <use xlink:href="#DejaVuSans-6e" x="586.939453"/>
      <use xlink:href="#DejaVuSans-74" x="650.318359"/>
      <use xlink:href="#DejaVuSans-65" x="689.527344"/>
      <use xlink:href="#DejaVuSans-72" x="751.050781"/>
      <use xlink:href="#DejaVuSans-61" x="792.164062"/>
      <use xlink:href="#DejaVuSans-63" x="853.443359"/>
      <use xlink:href="#DejaVuSans-74" x="908.423828"/>
      <use xlink:href="#DejaVuSans-69" x="947.632812"/>
      <use xlink:href="#DejaVuSans-6f" x="975.416016"/>
      <use xlink:href="#DejaVuSans-6e" x="1036.597656"/>
      <use xlink:href="#DejaVuSans-73" x="1099.976562"/>
     </g>
    </g>
   </g>
   <g id="line2d_7">
    <path d="M 77.48625 104.3355 
L 77.48625 39.5355 
" clip-path="url(#pd516d32a94)" style="fill: none; stroke: #3f3f3f; stroke-width: 1.5; stroke-linecap: square"/>
   </g>
   <g id="line2d_8">
    <path d="M 77.48625 71.9355 
L 77.48625 39.5355 
" clip-path="url(#pd516d32a94)" style="fill: none; stroke: #3f3f3f; stroke-width: 4.5; stroke-linecap: square"/>
   </g>
   <g id="line2d_9">
    <path d="M 114.68625 115.1355 
L 114.68625 77.3355 
" clip-path="url(#pd516d32a94)" style="fill: none; stroke: #3f3f3f; stroke-width: 1.5; stroke-linecap: square"/>
   </g>
   <g id="line2d_10">
    <path d="M 114.68625 115.1355 
L 114.68625 93.5355 
" clip-path="url(#pd516d32a94)" style="fill: none; stroke: #3f3f3f; stroke-width: 4.5; stroke-linecap: square"/>
   </g>
   <g id="line2d_11">
    <path d="M 151.88625 115.1355 
L 151.88625 92.4555 
" clip-path="url(#pd516d32a94)" style="fill: none; stroke: #3f3f3f; stroke-width: 1.5; stroke-linecap: square"/>
   </g>
   <g id="line2d_12">
    <path d="M 151.88625 115.1355 
L 151.88625 105.6855 
" clip-path="url(#pd516d32a94)" style="fill: none; stroke: #3f3f3f; stroke-width: 4.5; stroke-linecap: square"/>
   </g>
   <g id="patch_3">
    <path d="M 58.88625 118.9155 
L 58.88625 35.7555 
" style="fill: none; stroke: #000000; stroke-width: 0.8; stroke-linejoin: miter; stroke-linecap: square"/>
   </g>
   <g id="patch_4">
    <path d="M 170.48625 118.9155 
L 170.48625 35.7555 
" style="fill: none; stroke: #000000; stroke-width: 0.8; stroke-linejoin: miter; stroke-linecap: square"/>
   </g>
   <g id="patch_5">
    <path d="M 58.88625 118.9155 
L 170.48625 118.9155 
" style="fill: none; stroke: #000000; stroke-width: 0.8; stroke-linejoin: miter; stroke-linecap: square"/>
   </g>
   <g id="patch_6">
    <path d="M 58.88625 35.7555 
L 170.48625 35.7555 
" style="fill: none; stroke: #000000; stroke-width: 0.8; stroke-linejoin: miter; stroke-linecap: square"/>
   </g>
   <g id="PathCollection_1">
    <defs>
     <path id="mf1b3124b88" d="M 0 1.5 
C 0.397805 1.5 0.77937 1.341951 1.06066 1.06066 
C 1.341951 0.77937 1.5 0.397805 1.5 0 
C 1.5 -0.397805 1.341951 -0.77937 1.06066 -1.06066 
C 0.77937 -1.341951 0.397805 -1.5 0 -1.5 
C -0.397805 -1.5 -0.77937 -1.341951 -1.06066 -1.06066 
C -1.341951 -0.77937 -1.5 -0.397805 -1.5 0 
C -1.5 0.397805 -1.341951 0.77937 -1.06066 1.06066 
C -0.77937 1.341951 -0.397805 1.5 0 1.5 
z
" style="stroke: #3f3f3f"/>
    </defs>
    <g clip-path="url(#pd516d32a94)">
     <use xlink:href="#mf1b3124b88" x="77.48625" y="55.176879" style="fill: #ffffff; stroke: #3f3f3f"/>
    </g>
   </g>
   <g id="PathCollection_2">
    <g clip-path="url(#pd516d32a94)">
     <use xlink:href="#mf1b3124b88" x="114.68625" y="102.5355" style="fill: #ffffff; stroke: #3f3f3f"/>
    </g>
   </g>
   <g id="PathCollection_3">
    <g clip-path="url(#pd516d32a94)">
     <use xlink:href="#mf1b3124b88" x="151.88625" y="115.1355" style="fill: #ffffff; stroke: #3f3f3f"/>
    </g>
   </g>
   <g id="text_9">
    <!-- Proteins with 5 or more interactions -->
    <g transform="translate(7.2 16.318125) scale(0.12 -0.12)">
     <defs>
      <path id="DejaVuSans-50" d="M 1259 4147 
L 1259 2394 
L 2053 2394 
Q 2494 2394 2734 2622 
Q 2975 2850 2975 3272 
Q 2975 3691 2734 3919 
Q 2494 4147 2053 4147 
L 1259 4147 
z
M 628 4666 
L 2053 4666 
Q 2838 4666 3239 4311 
Q 3641 3956 3641 3272 
Q 3641 2581 3239 2228 
Q 2838 1875 2053 1875 
L 1259 1875 
L 1259 0 
L 628 0 
L 628 4666 
z
" transform="scale(0.015625)"/>
      <path id="DejaVuSans-77" d="M 269 3500 
L 844 3500 
L 1563 769 
L 2278 3500 
L 2956 3500 
L 3675 769 
L 4391 3500 
L 4966 3500 
L 4050 0 
L 3372 0 
L 2619 2869 
L 1863 0 
L 1184 0 
L 269 3500 
z
" transform="scale(0.015625)"/>
      <path id="DejaVuSans-6d" d="M 3328 2828 
Q 3544 3216 3844 3400 
Q 4144 3584 4550 3584 
Q 5097 3584 5394 3201 
Q 5691 2819 5691 2113 
L 5691 0 
L 5113 0 
L 5113 2094 
Q 5113 2597 4934 2840 
Q 4756 3084 4391 3084 
Q 3944 3084 3684 2787 
Q 3425 2491 3425 1978 
L 3425 0 
L 2847 0 
L 2847 2094 
Q 2847 2600 2669 2842 
Q 2491 3084 2119 3084 
Q 1678 3084 1418 2786 
Q 1159 2488 1159 1978 
L 1159 0 
L 581 0 
L 581 3500 
L 1159 3500 
L 1159 2956 
Q 1356 3278 1631 3431 
Q 1906 3584 2284 3584 
Q 2666 3584 2933 3390 
Q 3200 3197 3328 2828 
z
" transform="scale(0.015625)"/>
     </defs>
     <use xlink:href="#DejaVuSans-50"/>
     <use xlink:href="#DejaVuSans-72" x="58.552734"/>
     <use xlink:href="#DejaVuSans-6f" x="97.416016"/>
     <use xlink:href="#DejaVuSans-74" x="158.597656"/>
     <use xlink:href="#DejaVuSans-65" x="197.806641"/>
     <use xlink:href="#DejaVuSans-69" x="259.330078"/>
     <use xlink:href="#DejaVuSans-6e" x="287.113281"/>
     <use xlink:href="#DejaVuSans-73" x="350.492188"/>
     <use xlink:href="#DejaVuSans-20" x="402.591797"/>
     <use xlink:href="#DejaVuSans-77" x="434.378906"/>
     <use xlink:href="#DejaVuSans-69" x="516.166016"/>
     <use xlink:href="#DejaVuSans-74" x="543.949219"/>
     <use xlink:href="#DejaVuSans-68" x="583.158203"/>
     <use xlink:href="#DejaVuSans-20" x="646.537109"/>
     <use xlink:href="#DejaVuSans-35" x="678.324219"/>
     <use xlink:href="#DejaVuSans-20" x="741.947266"/>
     <use xlink:href="#DejaVuSans-6f" x="773.734375"/>
     <use xlink:href="#DejaVuSans-72" x="834.916016"/>
     <use xlink:href="#DejaVuSans-20" x="876.029297"/>
     <use xlink:href="#DejaVuSans-6d" x="907.816406"/>
     <use xlink:href="#DejaVuSans-6f" x="1005.228516"/>
     <use xlink:href="#DejaVuSans-72" x="1066.410156"/>
     <use xlink:href="#DejaVuSans-65" x="1105.273438"/>
     <use xlink:href="#DejaVuSans-20" x="1166.796875"/>
     <use xlink:href="#DejaVuSans-69" x="1198.583984"/>
     <use xlink:href="#DejaVuSans-6e" x="1226.367188"/>
     <use xlink:href="#DejaVuSans-74" x="1289.746094"/>
     <use xlink:href="#DejaVuSans-65" x="1328.955078"/>
     <use xlink:href="#DejaVuSans-72" x="1390.478516"/>
     <use xlink:href="#DejaVuSans-61" x="1431.591797"/>
     <use xlink:href="#DejaVuSans-63" x="1492.871094"/>
     <use xlink:href="#DejaVuSans-74" x="1547.851562"/>
     <use xlink:href="#DejaVuSans-69" x="1587.060547"/>
     <use xlink:href="#DejaVuSans-6f" x="1614.84375"/>
     <use xlink:href="#DejaVuSans-6e" x="1676.025391"/>
     <use xlink:href="#DejaVuSans-73" x="1739.404297"/>
    </g>
    <!-- (n=3,114 at pdockq &gt; 0.5) -->
    <g transform="translate(33.899062 29.7555) scale(0.12 -0.12)">
     <defs>
      <path id="DejaVuSans-28" d="M 1984 4856 
Q 1566 4138 1362 3434 
Q 1159 2731 1159 2009 
Q 1159 1288 1364 580 
Q 1569 -128 1984 -844 
L 1484 -844 
Q 1016 -109 783 600 
Q 550 1309 550 2009 
Q 550 2706 781 3412 
Q 1013 4119 1484 4856 
L 1984 4856 
z
" transform="scale(0.015625)"/>
      <path id="DejaVuSans-3d" d="M 678 2906 
L 4684 2906 
L 4684 2381 
L 678 2381 
L 678 2906 
z
M 678 1631 
L 4684 1631 
L 4684 1100 
L 678 1100 
L 678 1631 
z
" transform="scale(0.015625)"/>
      <path id="DejaVuSans-2c" d="M 750 794 
L 1409 794 
L 1409 256 
L 897 -744 
L 494 -744 
L 750 256 
L 750 794 
z
" transform="scale(0.015625)"/>
      <path id="DejaVuSans-34" d="M 2419 4116 
L 825 1625 
L 2419 1625 
L 2419 4116 
z
M 2253 4666 
L 3047 4666 
L 3047 1625 
L 3713 1625 
L 3713 1100 
L 3047 1100 
L 3047 0 
L 2419 0 
L 2419 1100 
L 313 1100 
L 313 1709 
L 2253 4666 
z
" transform="scale(0.015625)"/>
      <path id="DejaVuSans-70" d="M 1159 525 
L 1159 -1331 
L 581 -1331 
L 581 3500 
L 1159 3500 
L 1159 2969 
Q 1341 3281 1617 3432 
Q 1894 3584 2278 3584 
Q 2916 3584 3314 3078 
Q 3713 2572 3713 1747 
Q 3713 922 3314 415 
Q 2916 -91 2278 -91 
Q 1894 -91 1617 61 
Q 1341 213 1159 525 
z
M 3116 1747 
Q 3116 2381 2855 2742 
Q 2594 3103 2138 3103 
Q 1681 3103 1420 2742 
Q 1159 2381 1159 1747 
Q 1159 1113 1420 752 
Q 1681 391 2138 391 
Q 2594 391 2855 752 
Q 3116 1113 3116 1747 
z
" transform="scale(0.015625)"/>
      <path id="DejaVuSans-6b" d="M 581 4863 
L 1159 4863 
L 1159 1991 
L 2875 3500 
L 3609 3500 
L 1753 1863 
L 3688 0 
L 2938 0 
L 1159 1709 
L 1159 0 
L 581 0 
L 581 4863 
z
" transform="scale(0.015625)"/>
      <path id="DejaVuSans-71" d="M 947 1747 
Q 947 1113 1208 752 
Q 1469 391 1925 391 
Q 2381 391 2643 752 
Q 2906 1113 2906 1747 
Q 2906 2381 2643 2742 
Q 2381 3103 1925 3103 
Q 1469 3103 1208 2742 
Q 947 2381 947 1747 
z
M 2906 525 
Q 2725 213 2448 61 
Q 2172 -91 1784 -91 
Q 1150 -91 751 415 
Q 353 922 353 1747 
Q 353 2572 751 3078 
Q 1150 3584 1784 3584 
Q 2172 3584 2448 3432 
Q 2725 3281 2906 2969 
L 2906 3500 
L 3481 3500 
L 3481 -1331 
L 2906 -1331 
L 2906 525 
z
" transform="scale(0.015625)"/>
      <path id="DejaVuSans-3e" d="M 678 3150 
L 678 3719 
L 4684 2266 
L 4684 1747 
L 678 294 
L 678 863 
L 3897 2003 
L 678 3150 
z
" transform="scale(0.015625)"/>
      <path id="DejaVuSans-29" d="M 513 4856 
L 1013 4856 
Q 1481 4119 1714 3412 
Q 1947 2706 1947 2009 
Q 1947 1309 1714 600 
Q 1481 -109 1013 -844 
L 513 -844 
Q 928 -128 1133 580 
Q 1338 1288 1338 2009 
Q 1338 2731 1133 3434 
Q 928 4138 513 4856 
z
" transform="scale(0.015625)"/>
     </defs>
     <use xlink:href="#DejaVuSans-28"/>
     <use xlink:href="#DejaVuSans-6e" x="39.013672"/>
     <use xlink:href="#DejaVuSans-3d" x="102.392578"/>
     <use xlink:href="#DejaVuSans-33" x="186.181641"/>
     <use xlink:href="#DejaVuSans-2c" x="249.804688"/>
     <use xlink:href="#DejaVuSans-31" x="281.591797"/>
     <use xlink:href="#DejaVuSans-31" x="345.214844"/>
     <use xlink:href="#DejaVuSans-34" x="408.837891"/>
     <use xlink:href="#DejaVuSans-20" x="472.460938"/>
     <use xlink:href="#DejaVuSans-61" x="504.248047"/>
     <use xlink:href="#DejaVuSans-74" x="565.527344"/>
     <use xlink:href="#DejaVuSans-20" x="604.736328"/>
     <use xlink:href="#DejaVuSans-70" x="636.523438"/>
     <use xlink:href="#DejaVuSans-64" x="700"/>
     <use xlink:href="#DejaVuSans-6f" x="763.476562"/>
     <use xlink:href="#DejaVuSans-63" x="824.658203"/>
     <use xlink:href="#DejaVuSans-6b" x="879.638672"/>
     <use xlink:href="#DejaVuSans-71" x="937.548828"/>
     <use xlink:href="#DejaVuSans-20" x="1001.025391"/>
     <use xlink:href="#DejaVuSans-3e" x="1032.8125"/>
     <use xlink:href="#DejaVuSans-20" x="1116.601562"/>
     <use xlink:href="#DejaVuSans-30" x="1148.388672"/>
     <use xlink:href="#DejaVuSans-2e" x="1212.011719"/>
     <use xlink:href="#DejaVuSans-35" x="1243.798828"/>
     <use xlink:href="#DejaVuSans-29" x="1307.421875"/>
    </g>
   </g>
  </g>
 </g>
 <defs>
  <clipPath id="pd516d32a94">
   <rect x="58.88625" y="35.7555" width="111.6" height="83.16"/>
  </clipPath>
 </defs>
</svg>
