<?xml version="1.0" standalone="no"?><!DOCTYPE svg PUBLIC "-//W3C//DTD SVG 1.1//EN" "http://www.w3.org/Graphics/SVG/1.1/DTD/svg11.dtd"><svg xmlns="http://www.w3.org/2000/svg" width="600" height="400" viewBox="0 0 600 400" style="font-family: &quot;Helvetica Neue&quot;, Helvetica, Arial, sans-serif;"><g class="sankey" transform="translate(130,25)"><g class="groups"><g class="group" transform="translate(0,36.5)" style="display: inline;"><rect x="-10" y="-20" width="21" height="321.99999999999994" style="fill: rgb(238, 238, 238); stroke: rgb(187, 187, 187); stroke-width: 0.5;"/><text x="-10" y="-25" style="fill: rgb(153, 153, 153);">Known annotations</text></g><g class="group" transform="translate(169.5,36.5)" style="display: inline;"><rect x="-10" y="-20" width="21" height="322" style="fill: rgb(238, 238, 238); stroke: rgb(187, 187, 187); stroke-width: 0.5;"/><text x="-10" y="-25" style="fill: rgb(153, 153, 153);">AlphaMissense</text></g><g class="group" transform="translate(339,36.5)" style="display: inline;"><rect x="-10" y="-20" width="21" height="322" style="fill: rgb(238, 238, 238); stroke: rgb(187, 187, 187); stroke-width: 0.5;"/><text x="-10" y="-25" style="fill: rgb(153, 153, 153);">Structural mechanisms</text></g></g><g class="links"><g class="link" style="opacity: 0.8;"><path d="M170.5,218.440804018589 A100.53701599295341 100.53701599295341 0.32665000890897655 0 1 202.75951164886007,223.75694261091965 L307.38223231638995,259.20166826608926 A98.53701599295341 98.53701599295341 0.32665000890897655 0 0 339,264.41205200703854 L339,266.41205200703854 A100.53701599295341 100.53701599295341 0.32665000890897655 0 1 306.7404883511399,261.0959134147079 L202.11776768361008,225.65118775953826 A98.53701599295341 98.53701599295341 0.32665000890897655 0 0 170.5,220.440804018589 Z" style="fill: rgb(255, 255, 0);"/><title>ambiguous → Interface
ambiguous
3.07k</title><text class="label" dy="0.35em" x="174.5" y="219.440804018589"/></g><g class="link" style="opacity: 0.8;"><path d="M1,309.01953647862115 A60.21206829665084 60.21206829665084 0.5958708589960975 0 0 34.7928035815652,298.642592287949 L134.47639649111514,231.04793619090523 A62.40510946011658 62.40510946011658 0.5958708589960975 0 1 169.5,220.29304341941017 L169.5,222.48608458287592 A60.21206829665084 60.21206829665084 0.5958708589960975 0 0 135.7071964184348,232.86302877354805 L36.02360350888487,300.45768487059183 A62.40510946011658 62.40510946011658 0.5958708589960975 0 1 1,311.2125776420869 Z" style="fill: rgb(192, 192, 192);"/><title>Pathogenic → ambiguous
ambiguous
4.00k</title><text class="label" dy="0.35em" x="5" y="310.116057060354"/></g><g class="link" style="opacity: 0.8;"><path d="M170.5,220.2831623828789 A58.719815416486746 58.719815416486746 0.6585574502946636 0 1 206.43515365916892,232.56289323830794 L304.3617911799835,308.3381378335141 A56.6005435112457 56.6005435112457 0.6585574502946636 0 0 339,320.1746777759396 L339,322.3775999759366 A58.80346571124269 58.80346571124269 0.6585574502946636 0 1 303.01365431690584,310.0803758246194 L205.08701679609118,234.30513122941318 A56.516893216489756 56.516893216489756 0.6585574502946636 0 0 170.5,222.4860845828759 Z" style="fill: rgb(144, 238, 144);"/><title>ambiguous → Pockets
ambiguous
4.01k</title><text class="label" dy="0.35em" x="174.5" y="221.3846234828774"/></g><g class="link" style="opacity: 0.8;"><path d="M1,61.73506940788979 A56.432602120906246 56.432602120906246 0.8772979261128687 0 1 44.39748579733341,82.09417975704267 L131.07340462151038,186.36789353953895 A49.96862670760079 49.96862670760079 0.8772979261128687 0 0 169.5,204.395004587087 L169.5,206.9618782993187 A52.535500419832516 52.535500419832516 0.8772979261128687 0 1 129.09944167662505,188.0087198395372 L42.423522852448095,83.73500605704095 A53.86572840867452 53.86572840867452 0.8772979261128687 0 0 1,64.30194312012152 Z" style="fill: rgb(192, 192, 192);"/><title>Benign → ambiguous
ambiguous
4.68k</title><text class="label" dy="0.35em" x="5" y="63.01850626400565"/></g><g class="link" style="opacity: 0.8;"><path d="M1,64.30194312012152 A53.86572840867452 53.86572840867452 1.1184096280448907 0 1 49.447181249592795,94.62224042282158 L124.51531901862232,249.08276655193364 A50.01596678680088 50.01596678680088 1.1184096280448907 0 0 169.5,277.2360845828759 L169.5,281.08584620474954 A53.86572840867452 53.86572840867452 1.1184096280448907 0 1 121.05281875040721,250.76554890204946 L45.98468098137767,96.30502277293739 A50.01596678680088 50.01596678680088 1.1184096280448907 0 0 1,68.15170474199515 Z" style="fill: rgb(240, 128, 128);"/><title>Benign → pathogenic
pathogenic
7.01k</title><text class="label" dy="0.35em" x="5" y="66.22682393105833"/></g><g class="link" style="opacity: 0.8;"><path d="M170.5,214.20138439788846 A201.49157451005752 201.49157451005752 0.15366376392587644 0 0 201.3402490564848,211.82719646337853 L307.4867378679359,195.3867227924643 A205.88863576646818 205.88863576646818 0.15366376392587644 0 1 339,192.96072400776043 L339,197.3577852641711 A201.49157451005752 201.49157451005752 0.15366376392587644 0 0 308.15975094351523,199.73197319868103 L202.01326213206406,216.17244686959526 A205.88863576646818 205.88863576646818 0.15366376392587644 0 1 170.5,218.59844565429913 Z" style="fill: rgb(255, 182, 193);"/><title>ambiguous → Stability
ambiguous
8.01k</title><text class="label" dy="0.35em" x="174.5" y="216.3999150260938"/></g><g class="link" style="opacity: 0.8;"><path d="M1,304.32549517979874 A48.28135526850707 48.28135526850707 0.9363166028464955 0 0 39.88484773398034,284.6633272384846 L126.8346643292864,166.52473929914575 A52.97539656732947 52.97539656732947 0.9363166028464955 0 1 169.5,144.95096328826457 L169.5,149.645004587087 A48.28135526850707 48.28135526850707 0.9363166028464955 0 0 130.61515226601966,169.30717252840114 L43.6653356707136,287.44576046774 A52.97539656732947 52.97539656732947 0.9363166028464955 0 1 1,309.01953647862115 Z" style="fill: rgb(173, 216, 230);"/><title>Pathogenic → benign
benign
8.55k</title><text class="label" dy="0.35em" x="5" y="306.67251582920994"/></g><g class="link" style="opacity: 0.8;"><path d="M170.5,317.0511723391136 A88.79702840939333 88.79702840939333 0.35917382258777275 0 0 201.71223507657905,311.3848159819957 L305.91552083488654,272.2606591509888 A94.12345604621638 94.12345604621638 0.35917382258777275 0 1 339,266.25441037132845 L339,271.5808380081515 A88.79702840939333 88.79702840939333 0.35917382258777275 0 0 307.787764923421,277.24719436526937 L203.58447916511344,316.3713511962763 A94.12345604621638 94.12345604621638 0.35917382258777275 0 1 170.5,322.3775999759366 Z" style="fill: rgb(255, 255, 0);"/><title>pathogenic → Interface
pathogenic
9.70k</title><text class="label" dy="0.35em" x="174.5" y="319.7143861575251"/></g><g class="link" style="opacity: 0.8;"><path d="M170.5,322.3775999759366 A0 0 0 0 0 170.5,322.3775999759366 L339,322.37759997593656 A0 0 0 0 1 339,322.37759997593656 L339,328.49999999999994 A0 0 0 0 0 339,328.49999999999994 L170.5,328.5 A0 0 0 0 1 170.5,328.5 Z" style="fill: rgb(144, 238, 144);"/><title>pathogenic → Pockets
pathogenic
11.2k</title><text class="label" dy="0.35em" x="174.5" y="325.4387999879683"/></g><g class="link" style="opacity: 0.8;"><path d="M170.5,129.8983020258381 A64.25340630470646 64.25340630470646 0.8149676754828459 0 1 217.25742401927656,150.08081634003372 L303.52037571117796,241.60229973276992 A48.75560967661887 48.75560967661887 0.8149676754828459 0 0 339,256.91683084928786 L339,264.5696936427486 A56.40847247007964 56.40847247007964 0.8149676754828459 0 1 297.9513612234748,246.8513364607123 L211.68840953157334,155.3298530679761 A56.6005435112457 56.6005435112457 0.8149676754828459 0 0 170.5,137.55116481929886 Z" style="fill: rgb(255, 255, 0);"/><title>benign → Interface
benign
13.9k</title><text class="label" dy="0.35em" x="174.5" y="133.72473342256848"/></g><g class="link" style="opacity: 0.8;"><path d="M170.5,121.6942969725226 A81.09504699497454 81.09504699497454 0.439577603239508 0 1 205.0105862345704,129.40388161381696 L307.98068770080124,177.82707678436046 A72.89104194165905 72.89104194165905 0.439577603239508 0 0 339,184.75671895444495 L339,192.96072400776043 A81.09504699497454 81.09504699497454 0.439577603239508 0 1 304.4894137654296,185.25113936646605 L201.51931229919873,136.82794419592256 A72.89104194165905 72.89104194165905 0.439577603239508 0 0 170.5,129.8983020258381 Z" style="fill: rgb(255, 182, 193);"/><title>benign → Stability
benign
14.9k</title><text class="label" dy="0.35em" x="174.5" y="125.79629949918034"/></g><g class="link" style="opacity: 0.8;"><path d="M170.5,204.395004587087 A58.998906079347 58.998906079347 0.5613151003906276 0 0 201.90511556950185,195.3419655502275 L302.1287567219666,132.3230368666606 A69.26779219694978 69.26779219694978 0.5613151003906276 0 1 339,121.6942969725226 L339,131.50067678332405 A59.46141238614832 59.46141238614832 0.5613151003906276 0 0 307.3486923401366,140.62468472331258 L207.12505118767183,203.6436134068795 A68.80528589014847 68.80528589014847 0.5613151003906276 0 1 170.5,214.20138439788843 Z" style="fill: rgb(211, 211, 211);"/><title>ambiguous → Unassigned
ambiguous
17.9k</title><text class="label" dy="0.35em" x="174.5" y="209.2981944924877"/></g><g class="link" style="opacity: 0.8;"><path d="M170.5,137.55116481929886 A56.6005435112457 56.6005435112457 0.9789331271676492 0 1 217.47293967824976,162.57379732060082 L302.063769700307,288.40479211654997 A44.50670374345757 44.50670374345757 0.9789331271676492 0 0 339,308.0808380081515 L339,320.17467777593964 A56.6005435112457 56.6005435112457 0.9789331271676492 0 1 292.0270603217502,295.15204527463766 L207.43623029969302,169.3210504786885 A44.50670374345757 44.50670374345757 0.9789331271676492 0 0 170.5,149.64500458708696 Z" style="fill: rgb(144, 238, 144);"/><title>benign → Pockets
benign
22.0k</title><text class="label" dy="0.35em" x="174.5" y="143.5980847031929"/></g><g class="link" style="opacity: 0.8;"><path d="M1,206.11759862236994 A1006.6655825600457 1006.6655825600457 0.005169090273660748 0 1 6.203522098988121,206.1310473900506 L164.36538759009773,206.94860763223642 A993.3344174399543 993.3344174399543 0.005169090273660748 0 0 169.5,206.96187829931873 L169.5,220.29304341941017 A1006.6655825600457 1006.6655825600457 0.005169090273660748 0 1 164.29647790101188,220.2795946517295 L6.134612409902254,219.4620344095437 A993.3344174399543 993.3344174399543 0.005169090273660748 0 0 1,219.44876374246138 Z" style="fill: rgb(192, 192, 192);"/><title>VUS → ambiguous
ambiguous
24.3k</title><text class="label" dy="0.35em" x="5" y="212.78318118241566"/></g><g class="link" style="opacity: 0.8;"><path d="M170.5,277.2360845828759 A42.705370215027415 42.705370215027415 0.8804050608833107 0 0 203.42570807766376,261.72715517886303 L293.15543534094047,153.09474896479335 A59.46141238614831 59.46141238614831 0.8804050608833107 0 1 339,131.50067678332405 L339,148.25671895444495 A42.705370215027415 42.705370215027415 0.8804050608833107 0 0 306.0742919223362,163.7656483584578 L216.34456465905956,272.39805457252754 A59.46141238614831 59.46141238614831 0.8804050608833107 0 1 170.5,293.99212675399684 Z" style="fill: rgb(211, 211, 211);"/><title>pathogenic → Unassigned
pathogenic
30.5k</title><text class="label" dy="0.35em" x="174.5" y="285.61410566843637"/></g><g class="link" style="opacity: 0.8;"><path d="M1,311.2125776420869 A0 0 0 0 0 1,311.2125776420869 L169.5,311.2125776420869 A0 0 0 0 0 169.5,311.2125776420869 L169.5,328.5 A0 0 0 0 0 169.5,328.5 L1,328.5 A0 0 0 0 0 1,328.5 Z" style="fill: rgb(240, 128, 128);"/><title>Pathogenic → pathogenic
pathogenic
31.5k</title><text class="label" dy="0.35em" x="5" y="319.85628882104345"/></g><g class="link" style="opacity: 0.8;"><path d="M170.5,293.9921267539968 A59.46141238614832 59.46141238614832 0.6621129892391857 0 0 207.05596818783349,281.4276306076792 L295.9058338748268,212.1694975795548 A70.09635116869747 70.09635116869747 0.6621129892391857 0 1 339,197.35778526417107 L339,220.41683084928786 A47.03730558358068 47.03730558358068 0.6621129892391857 0 0 310.0821829224605,230.3560506057923 L221.2323172354672,299.61418363391664 A82.5204579712651 82.5204579712651 0.6621129892391857 0 1 170.5,317.0511723391136 Z" style="fill: rgb(255, 182, 193);"/><title>pathogenic → Stability
pathogenic
42.0k</title><text class="label" dy="0.35em" x="174.5" y="305.5216495465552"/></g><g class="link" style="opacity: 0.8;"><path d="M1,36.5 A0 0 0 0 0 1,36.5 L169.5,36.5 A0 0 0 0 0 169.5,36.5 L169.5,61.735069407889796 A0 0 0 0 0 169.5,61.735069407889796 L1,61.735069407889796 A0 0 0 0 0 1,61.735069407889796 Z" style="fill: rgb(173, 216, 230);"/><title>Benign → benign
benign
46.0k</title><text class="label" dy="0.35em" x="5" y="49.1175347039449"/></g><g class="link" style="opacity: 0.8;"><path d="M1,219.44876374246138 A93.40430590064139 93.40430590064139 0.4304112885605167 0 1 39.972443596462725,227.96777644751364 L143.09777284448347,275.3145655812288 A63.277574463304006 63.277574463304006 0.4304112885605167 0 0 169.5,281.08584620474954 L169.5,311.21257764208696 A93.40430590064139 93.40430590064139 0.4304112885605167 0 1 130.5275564035373,302.69356493703464 L27.402227155516513,255.34677580331953 A63.277574463304006 63.277574463304006 0.4304112885605167 0 0 1,249.57549517979874 Z" style="fill: rgb(240, 128, 128);"/><title>VUS → pathogenic
pathogenic
54.9k</title><text class="label" dy="0.35em" x="5" y="234.51212946113006"/></g><g class="link" style="opacity: 0.8;"><path d="M1,122.90170474199516 A37.193855143353886 37.193855143353886 0.44080761152103953 0 0 16.869502692752594,119.34624647943079 L111.39126020523607,74.75395242083064 A136.19129044770426 136.19129044770426 0.44080761152103953 0 1 169.5,61.735069407889796 L169.5,144.95096328826457 A52.97539656732947 52.97539656732947 0.44080761152103953 0 0 146.89698680777667,150.0150205286873 L52.375229295293195,194.60731458728745 A120.40974902372866 120.40974902372866 0.44080761152103953 0 1 1,206.11759862236994 Z" style="fill: rgb(173, 216, 230);"/><title>VUS → benign
benign
152k</title><text class="label" dy="0.35em" x="5" y="164.50965168218255"/></g><g class="link" style="opacity: 0.8;"><path d="M170.5,36.49999999999999 A0 0 0 0 0 170.5,36.49999999999999 L339,36.49999999999999 A0 0 0 0 0 339,36.49999999999999 L339,121.69429697252258 A0 0 0 0 0 339,121.69429697252258 L170.5,121.69429697252258 A0 0 0 0 0 170.5,121.69429697252258 Z" style="fill: rgb(211, 211, 211);"/><title>benign → Unassigned
benign
155k</title><text class="label" dy="0.35em" x="174.5" y="79.09714848626129"/></g></g><g class="nodes"><g class="node" transform="translate(0,36.5)"><title>Benign</title><line x1="0" x2="0" y1="0" y2="31.65170474199516" style="display: inline; stroke: rgb(0, 0, 0);"/><rect class="node-body" width="1" height="31.65170474199516" style="fill: none;"/><text class="node-value" dy=".35em" text-anchor="middle" transform="translate(0.5,15.82585237099758) rotate(-90)" style="display: none;"/><text class="node-title" dy=".35em" text-anchor="end" transform="translate(-4,15.82585237099758)" style="display: inline;">Benign</text><rect class="node-click-target" x="-5" y="-5" width="10" height="36.65170474199516" style="fill: none; visibility: hidden; pointer-events: all;"/></g><g class="node" transform="translate(0,122.90170474199516)"><title>VUS</title><line x1="0" x2="0" y1="0" y2="126.6737904378036" style="display: inline; stroke: rgb(0, 0, 0);"/><rect class="node-body" width="1" height="126.6737904378036" style="fill: none;"/><text class="node-value" dy=".35em" text-anchor="middle" transform="translate(0.5,63.3368952189018) rotate(-90)" style="display: none;"/><text class="node-title" dy=".35em" text-anchor="end" transform="translate(-4,63.3368952189018)" style="display: inline;">VUS</text><rect class="node-click-target" x="-5" y="-5" width="10" height="131.6737904378036" style="fill: none; visibility: hidden; pointer-events: all;"/></g><g class="node" transform="translate(0,304.32549517979874)"><title>Pathogenic</title><line x1="0" x2="0" y1="0" y2="24.174504820201207" style="display: inline; stroke: rgb(0, 0, 0);"/><rect class="node-body" width="1" height="24.174504820201207" style="fill: none;"/><text class="node-value" dy=".35em" text-anchor="middle" transform="translate(0.5,12.087252410100604) rotate(-90)" style="display: none;"/><text class="node-title" dy=".35em" text-anchor="end" transform="translate(-4,12.087252410100604)" style="display: inline;">Pathogenic</text><rect class="node-click-target" x="-5" y="-5" width="10" height="29.174504820201207" style="fill: none; visibility: hidden; pointer-events: all;"/></g><g class="node" transform="translate(169.5,36.5)"><title>benign</title><line x1="0" x2="0" y1="-5" y2="113.14500458708696" style="display: inline; stroke: rgb(0, 0, 0);"/><rect class="node-body" width="1" height="113.14500458708696" style="fill: none;"/><text class="node-value" dy=".35em" text-anchor="middle" transform="translate(0.5,56.57250229354348) rotate(-90)" style="display: none;"/><text class="node-title" dy=".35em" text-anchor="start" transform="translate(-4,-10)" style="display: inline;">benign</text><rect class="node-click-target" x="-5" y="-5" width="10" height="118.14500458708696" style="fill: none; visibility: hidden; pointer-events: all;"/></g><g class="node" transform="translate(169.5,204.395004587087)"><title>ambiguous</title><line x1="0" x2="0" y1="-5" y2="18.091079995788903" style="display: inline; stroke: rgb(0, 0, 0);"/><rect class="node-body" width="1" height="18.091079995788903" style="fill: none;"/><text class="node-value" dy=".35em" text-anchor="middle" transform="translate(0.5,9.045539997894451) rotate(-90)" style="display: none;"/><text class="node-title" dy=".35em" text-anchor="start" transform="translate(-4,-10)" style="display: inline;">ambiguous</text><rect class="node-click-target" x="-5" y="-5" width="10" height="23.091079995788903" style="fill: none; visibility: hidden; pointer-events: all;"/></g><g class="node" transform="translate(169.5,277.2360845828759)"><title>pathogenic</title><line x1="0" x2="0" y1="-5" y2="51.26391541712411" style="display: inline; stroke: rgb(0, 0, 0);"/><rect class="node-body" width="1" height="51.26391541712411" style="fill: none;"/><text class="node-value" dy=".35em" text-anchor="middle" transform="translate(0.5,25.631957708562055) rotate(-90)" style="display: none;"/><text class="node-title" dy=".35em" text-anchor="start" transform="translate(-4,-10)" style="display: inline;">pathogenic</text><rect class="node-click-target" x="-5" y="-5" width="10" height="56.26391541712411" style="fill: none; visibility: hidden; pointer-events: all;"/></g><g class="node" transform="translate(339,36.5)"><title>Unassigned</title><line x1="0" x2="0" y1="0" y2="111.75671895444495" style="display: inline; stroke: rgb(0, 0, 0);"/><rect class="node-body" width="1" height="111.75671895444495" style="fill: none;"/><text class="node-value" dy=".35em" text-anchor="middle" transform="translate(0.5,55.878359477222475) rotate(-90)" style="display: none;"/><text class="node-title" dy=".35em" text-anchor="start" transform="translate(5,55.878359477222475)" style="display: inline;">Unassigned</text><rect class="node-click-target" x="-5" y="-5" width="10" height="116.75671895444495" style="fill: none; visibility: hidden; pointer-events: all;"/></g><g class="node" transform="translate(339,184.75671895444495)"><title>Stability</title><line x1="0" x2="0" y1="0" y2="35.66011189484291" style="display: inline; stroke: rgb(0, 0, 0);"/><rect class="node-body" width="1" height="35.66011189484291" style="fill: none;"/><text class="node-value" dy=".35em" text-anchor="middle" transform="translate(0.5,17.830055947421457) rotate(-90)" style="display: none;"/><text class="node-title" dy=".35em" text-anchor="start" transform="translate(5,17.830055947421457)" style="display: inline;">Stability</text><rect class="node-click-target" x="-5" y="-5" width="10" height="40.66011189484291" style="fill: none; visibility: hidden; pointer-events: all;"/></g><g class="node" transform="translate(339,256.91683084928786)"><title>Interface</title><line x1="0" x2="0" y1="0" y2="14.664007158863626" style="display: inline; stroke: rgb(0, 0, 0);"/><rect class="node-body" width="1" height="14.664007158863626" style="fill: none;"/><text class="node-value" dy=".35em" text-anchor="middle" transform="translate(0.5,7.332003579431813) rotate(-90)" style="display: none;"/><text class="node-title" dy=".35em" text-anchor="start" transform="translate(5,7.332003579431813)" style="display: inline;">Interface</text><rect class="node-click-target" x="-5" y="-5" width="10" height="19.664007158863626" style="fill: none; visibility: hidden; pointer-events: all;"/></g><g class="node" transform="translate(339,308.0808380081515)"><title>Pockets</title><line x1="0" x2="0" y1="0" y2="20.41916199184851" style="display: inline; stroke: rgb(0, 0, 0);"/><rect class="node-body" width="1" height="20.41916199184851" style="fill: none;"/><text class="node-value" dy=".35em" text-anchor="middle" transform="translate(0.5,10.209580995924256) rotate(-90)" style="display: none;"/><text class="node-title" dy=".35em" text-anchor="start" transform="translate(5,10.209580995924256)" style="display: inline;">Pockets</text><rect class="node-click-target" x="-5" y="-5" width="10" height="25.41916199184851" style="fill: none; visibility: hidden; pointer-events: all;"/></g></g><g class="slice-titles"/></g></svg>