<?xml version="1.0" standalone="no"?><!DOCTYPE svg PUBLIC "-//W3C//DTD SVG 1.1//EN" "http://www.w3.org/Graphics/SVG/1.1/DTD/svg11.dtd"><svg xmlns="http://www.w3.org/2000/svg" width="600" height="400" viewBox="0 0 600 400" style="font-family: &quot;Helvetica Neue&quot;, Helvetica, Arial, sans-serif;"><g class="sankey" transform="translate(130,25)"><g class="groups"><g class="group" transform="translate(0,36.5)" style="display: inline;"><rect x="-10" y="-20" width="21" height="322" style="fill: rgb(238, 238, 238); stroke: rgb(187, 187, 187); stroke-width: 0.5;"/><text x="-10" y="-25" style="fill: rgb(153, 153, 153);">Known annotations</text></g><g class="group" transform="translate(169.5,36.5)" style="display: inline;"><rect x="-10" y="-20" width="21" height="322.00000000000006" style="fill: rgb(238, 238, 238); stroke: rgb(187, 187, 187); stroke-width: 0.5;"/><text x="-10" y="-25" style="fill: rgb(153, 153, 153);">AlphaMissense</text></g><g class="group" transform="translate(339,36.5)" style="display: inline;"><rect x="-10" y="-20" width="21" height="322" style="fill: rgb(238, 238, 238); stroke: rgb(187, 187, 187); stroke-width: 0.5;"/><text x="-10" y="-25" style="fill: rgb(153, 153, 153);">Structural mechanisms</text></g></g><g class="links"><g class="link" style="opacity: 0.8;"><path d="M1,321.0618492464652 A58.507291936136376 58.507291936136376 0.6241418881110905 0 0 35.191729305870105,310.03117109832334 L134.13946837310667,238.77094338447716 A60.507291936136376 60.507291936136376 0.6241418881110905 0 1 169.5,227.36319503591713 L169.5,229.36319503591713 A58.507291936136376 58.507291936136376 0.6241418881110905 0 0 135.3082706941299,240.39387318405898 L36.36053162689334,311.65410089790515 A60.507291936136376 60.507291936136376 0.6241418881110905 0 1 1,323.0618492464652 Z" style="fill: rgb(192, 192, 192);"/><title>Pathogenic → ambiguous
ambiguous
3.21k</title><text class="label" dy="0.35em" x="5" y="322.0618492464652"/></g><g class="link" style="opacity: 0.8;"><path d="M1,320.3495282622368 A49.55585841013437 49.55585841013437 0.9617796253688218 0 0 41.64625628051889,299.1426548981965 L127.21332187695658,176.45816119410964 A51.55585841013437 51.55585841013437 0.9617796253688218 0 1 169.5,154.3954102791841 L169.5,156.3954102791841 A49.55585841013437 49.55585841013437 0.9617796253688218 0 0 128.85374371948112,177.6022836432244 L43.28667812304342,300.2867773473113 A51.55585841013437 51.55585841013437 0.9617796253688218 0 1 1,322.3495282622368 Z" style="fill: rgb(173, 216, 230);"/><title>Pathogenic → benign
benign
4.50k</title><text class="label" dy="0.35em" x="5" y="321.3495282622368"/></g><g class="link" style="opacity: 0.8;"><path d="M1,48.97865077733431 A55.191012635051365 55.191012635051365 0.9530370351060692 0 1 45.99051821384279,72.20247481951316 L129.065369265619,189.1217524875704 A49.6021896246624 49.6021896246624 0.9530370351060692 0 0 169.5,209.99385591439452 L169.5,211.99385591439452 A51.6021896246624 51.6021896246624 0.9530370351060692 0 1 127.4350125801441,190.280172566008 L44.3601615283679,73.36089489795071 A53.191012635051365 53.191012635051365 0.9530370351060692 0 0 1,50.97865077733431 Z" style="fill: rgb(192, 192, 192);"/><title>Benign → ambiguous
ambiguous
4.68k</title><text class="label" dy="0.35em" x="5" y="49.97865077733431"/></g><g class="link" style="opacity: 0.8;"><path d="M1,49.94150396034891 A54.22815945203676 54.22815945203676 1.1737376206144048 0 1 51.009338901186375,83.19922468970246 L121.33506590275753,250.9087877371219 A52.22815945203676 52.22815945203676 1.1737376206144048 0 0 169.5,282.93992356794985 L169.5,284.93992356794985 A54.22815945203676 54.22815945203676 1.1737376206144048 0 1 119.49066109881362,251.68220283859628 L49.16493409724247,83.97263979117686 A52.22815945203676 52.22815945203676 1.1737376206144048 0 0 1,51.94150396034891 Z" style="fill: rgb(240, 128, 128);"/><title>Benign → pathogenic
pathogenic
5.74k</title><text class="label" dy="0.35em" x="5" y="50.94150396034891"/></g><g class="link" style="opacity: 0.8;"><path d="M170.5,224.0416796213945 A126.94239036060843 126.94239036060843 0.2531606859970421 0 1 202.29464437403325,228.0878899779286 L307.70628591857763,255.3590847024574 A124.94239036060843 124.94239036060843 0.2531606859970421 0 0 339,259.34154629319244 L339,261.34154629319244 A126.94239036060843 126.94239036060843 0.2531606859970421 0 1 307.2053556259668,257.2953359366584 L201.79371408142234,230.02414121212954 A124.94239036060843 124.94239036060843 0.2531606859970421 0 0 170.5,226.0416796213945 Z" style="fill: rgb(255, 165, 0);"/><title>ambiguous → Interface
ambiguous
8.03k</title><text class="label" dy="0.35em" x="174.5" y="225.0416796213945"/></g><g class="link" style="opacity: 0.8;"><path d="M170.5,225.78366524443166 A61.13157326710595 61.13157326710595 0.6224511726663315 0 1 206.14144149701764,237.2487820431503 L304.50149245266624,307.8335237593385 A59.17123306901358 59.17123306901358 0.6224511726663315 0 0 339,318.93098227388134 L339,321.80688121383855 A62.04713200897082 62.04713200897082 0.6224511726663315 0 1 302.82476178237977,310.1700530170556 L204.46471082673116,239.58531130086737 A58.25567432714871 58.25567432714871 0.6224511726663315 0 0 170.5,228.65956418438893 Z" style="fill: rgb(0, 128, 0);"/><title>ambiguous → Pockets
ambiguous
15.6k</title><text class="label" dy="0.35em" x="174.5" y="227.2216147144103"/></g><g class="link" style="opacity: 0.8;"><path d="M170.5,220.35124740103686 A169.92369743369028 169.92369743369028 0.18290180753583152 0 0 201.40635772339724,217.51692725330608 L307.3754840395144,197.9159222177993 A173.87214403101075 173.87214403101075 0.18290180753583152 0 1 339,195.0157421463967 L339,198.96418874371716 A169.92369743369028 169.92369743369028 0.18290180753583152 0 0 308.09364227660274,201.79850889144794 L202.12451596048558,221.3995139269547 A173.87214403101075 173.87214403101075 0.18290180753583152 0 1 170.5,224.29969399835733 Z" style="fill: rgb(255, 0, 0);"/><title>ambiguous → Stability
ambiguous
21.4k</title><text class="label" dy="0.35em" x="174.5" y="222.3254706996971"/></g><g class="link" style="opacity: 0.8;"><path d="M170.5,317.6486566411421 A81.69652726748225 81.69652726748225 0.3974087394476451 0 0 202.11903379054482,311.28179995384266 L305.7716071868582,267.77445158164426 A85.85475184017878 85.85475184017878 0.3974087394476451 0 1 339,261.0835319162296 L339,265.24175648892617 A81.69652726748225 81.69652726748225 0.3974087394476451 0 0 307.3809662094552,271.6086131762256 L203.72839281314182,315.115961548424 A85.85475184017878 85.85475184017878 0.3974087394476451 0 1 170.5,321.80688121383866 Z" style="fill: rgb(255, 165, 0);"/><title>pathogenic → Interface
pathogenic
22.5k</title><text class="label" dy="0.35em" x="174.5" y="319.7277689274904"/></g><g class="link" style="opacity: 0.8;"><path d="M1,322.35821839493707 A0 0 0 0 1 1,322.35821839493707 L169.5,322.3582183949371 A0 0 0 0 0 169.5,322.3582183949371 L169.5,328.5 A0 0 0 0 1 169.5,328.5 L1,328.49999999999994 A0 0 0 0 0 1,328.49999999999994 Z" style="fill: rgb(240, 128, 128);"/><title>Pathogenic → pathogenic
pathogenic
33.2k</title><text class="label" dy="0.35em" x="5" y="325.4291091974685"/></g><g class="link" style="opacity: 0.8;"><path d="M170.5,132.30439998258075 A65.48896941641837 65.48896941641837 0.7876662576961075 0 1 216.91260538562824,151.59082426842718 L303.4289741487188,238.50054042044545 A50.19131774072992 50.19131774072992 0.7876662576961075 0 0 339,253.28182432275048 L339,259.59956067015526 A56.50905408813471 56.50905408813471 0.7876662576961075 0 1 298.9515391450001,242.9577108617449 L212.43517038190947,156.04799470972665 A59.17123306901358 59.17123306901358 0.7876662576961075 0 0 170.5,138.62213632998552 Z" style="fill: rgb(255, 165, 0);"/><title>benign → Interface
benign
34.2k</title><text class="label" dy="0.35em" x="174.5" y="135.46326815628314"/></g><g class="link" style="opacity: 0.8;"><path d="M170.5,321.80688121383866 A0 0 0 0 0 170.5,321.80688121383866 L339,321.8068812138386 A0 0 0 0 1 339,321.8068812138386 L339,328.50000000000006 A0 0 0 0 0 339,328.50000000000006 L170.5,328.5000000000001 A0 0 0 0 1 170.5,328.5000000000001 Z" style="fill: rgb(0, 128, 0);"/><title>pathogenic → Pockets
pathogenic
36.2k</title><text class="label" dy="0.35em" x="174.5" y="325.1534406069194"/></g><g class="link" style="opacity: 0.8;"><path d="M170.5,124.48550353296949 A81.22790766284609 81.22790766284609 0.4373243067784389 0 1 204.9014083263184,132.13001572883704 L307.9100280649862,180.2881846509361 A73.40901121323483 73.40901121323483 0.4373243067784389 0 0 339,187.19684569678543 L339,195.0157421463967 A81.22790766284609 81.22790766284609 0.4373243067784389 0 1 304.5985916736816,187.37122995052914 L201.5899719350138,139.21306102843008 A73.40901121323483 73.40901121323483 0.4373243067784389 0 0 170.5,132.30439998258075 Z" style="fill: rgb(255, 0, 0);"/><title>benign → Stability
benign
42.3k</title><text class="label" dy="0.35em" x="174.5" y="128.39495175777512"/></g><g class="link" style="opacity: 0.8;"><path d="M170.5,210.56136211494078 A57.49415928475222 57.49415928475222 0.5827973442463776 0 0 202.14258114790994,201.07059239965955 L301.064766896552,135.8636701811767 A68.92782622121553 68.92782622121553 0.5827973442463776 0 1 339,124.48550353296949 L339,134.27538881906557 A59.13794093511944 59.13794093511944 0.5827973442463776 0 0 306.45274444849406,144.03750354225576 L207.53055869985195,209.2444257607386 A67.28404457084831 67.28404457084831 0.5827973442463776 0 1 170.5,220.35124740103686 Z" style="fill: rgb(211, 211, 211);"/><title>ambiguous → Unassigned
ambiguous
53.0k</title><text class="label" dy="0.35em" x="174.5" y="215.45630475798882"/></g><g class="link" style="opacity: 0.8;"><path d="M1,36.5 A0 0 0 0 0 1,36.5 L169.5,36.5 A0 0 0 0 0 169.5,36.5 L169.5,49.546156977880585 A0 0 0 0 0 169.5,49.546156977880585 L1,49.546156977880585 A0 0 0 0 0 1,49.546156977880585 Z" style="fill: rgb(173, 216, 230);"/><title>Benign → benign
benign
70.6k</title><text class="label" dy="0.35em" x="5" y="43.02307848894029"/></g><g class="link" style="opacity: 0.8;"><path d="M170.5,283.40956418438896 A42.71648405739957 42.71648405739957 0.8947439815689104 0 0 203.8209468816818,267.42157632737843 L292.8695135596066,156.40962346929567 A59.13794093511944 59.13794093511944 0.8947439815689104 0 1 339,134.2753888190656 L339,150.69684569678543 A42.716484057399576 42.716484057399576 0.8947439815689104 0 0 305.67905311831817,166.68483355379598 L216.63048644039335,277.6967864118787 A59.13794093511943 59.13794093511943 0.8947439815689104 0 1 170.5,299.8310210621088 Z" style="fill: rgb(211, 211, 211);"/><title>pathogenic → Unassigned
pathogenic
88.8k</title><text class="label" dy="0.35em" x="174.5" y="291.6202926232489"/></g><g class="link" style="opacity: 0.8;"><path d="M1,211.6551648094566 A991.6797619132014 991.6797619132014 0.0013690760967244309 0 0 2.3576846335069,211.65423542252208 L168.11953329544272,211.42729469597964 A1008.3202380867986 1008.3202380867986 0.0013690760967244309 0 1 169.5,211.42634971384823 L169.5,228.06682588744528 A991.6797619132014 991.6797619132014 0.0013690760967244309 0 0 168.14231536649308,228.0677552743798 L2.3804667045572803,228.29469600092224 A1008.3202380867986 1008.3202380867986 0.0013690760967244309 0 1 1,228.29564098305366 Z" style="fill: rgb(192, 192, 192);"/><title>VUS → ambiguous
ambiguous
90.0k</title><text class="label" dy="0.35em" x="5" y="219.97540289625513"/></g><g class="link" style="opacity: 0.8;"><path d="M170.5,138.62213632998552 A59.17123306901358 59.17123306901358 0.9509268851664313 0 1 218.66268010940277,163.41909024165727 L304.82856428199784,284.14831038770876 A41.982007284058355 41.982007284058355 0.9509268851664313 0 0 339,301.7417564889261 L339,318.9309822738814 A59.17123306901358 59.17123306901358 0.9509268851664313 0 1 290.8373198905972,294.1340283622096 L204.67143571800213,173.40480821615813 A41.982007284058355 41.982007284058355 0.9509268851664313 0 0 170.5,155.81136211494075 Z" style="fill: rgb(0, 128, 0);"/><title>benign → Pockets
benign
93.0k</title><text class="label" dy="0.35em" x="174.5" y="147.21674922246314"/></g><g class="link" style="opacity: 0.8;"><path d="M170.5,299.8310210621088 A59.13794093511943 59.13794093511943 0.6832225968815226 0 0 207.83351942479248,286.5570571176987 L297.16958587696195,213.83702734570053 A66.2612204210522 66.2612204210522 0.6832225968815226 0 1 339,198.96418874371716 L339,216.78182432275048 A48.44358484201891 48.44358484201891 0.6832225968815226 0 0 308.4177800730281,227.65535810432752 L219.08171362085864,300.3753878763257 A76.95557651415272 76.95557651415272 0.6832225968815226 0 1 170.5,317.6486566411421 Z" style="fill: rgb(255, 0, 0);"/><title>pathogenic → Stability
pathogenic
96.4k</title><text class="label" dy="0.35em" x="174.5" y="308.73983885162545"/></g><g class="link" style="opacity: 0.8;"><path d="M1,228.2956409830537 A103.18439888814311 103.18439888814311 0.39484354735809557 0 1 40.69130079450482,236.2349832270456 L144.3828156259245,279.4461613188219 A65.2964634447167 65.2964634447167 0.39484354735809557 0 0 169.5,284.47028295151074 L169.5,322.3582183949371 A103.18439888814311 103.18439888814311 0.39484354735809557 0 1 129.80869920549517,314.4188761509452 L26.117184374075475,271.20769805916893 A65.2964634447167 65.2964634447167 0.39484354735809557 0 0 1,266.1835764264801 Z" style="fill: rgb(240, 128, 128);"/><title>VUS → pathogenic
pathogenic
205k</title><text class="label" dy="0.35em" x="5" y="247.23960870476688"/></g><g class="link" style="opacity: 0.8;"><path d="M170.5,36.5 A0 0 0 0 0 170.5,36.5 L339,36.5 A0 0 0 0 0 339,36.5 L339,124.48550353296949 A0 0 0 0 0 339,124.48550353296949 L170.5,124.48550353296949 A0 0 0 0 0 170.5,124.48550353296949 Z" style="fill: rgb(211, 211, 211);"/><title>benign → Unassigned
benign
476k</title><text class="label" dy="0.35em" x="174.5" y="80.49275176648474"/></g><g class="link" style="opacity: 0.8;"><path d="M1,106.22186334390977 A30.928673830040573 30.928673830040573 0.41331759242499744 0 0 13.42249447875562,103.61746348179861 L106.67992412602761,62.716506719132916 A156.40511171143788 156.40511171143788 0.41331759242499744 0 1 169.5,49.54615697788059 L169.5,154.97945844342743 A50.97181024589104 50.97181024589104 0.41331759242499744 0 0 149.02718455271284,159.27162358136545 L55.76975490544085,200.17258034403113 A136.36197529558743 136.36197529558743 0.41331759242499744 0 1 1,211.6551648094566 Z" style="fill: rgb(173, 216, 230);"/><title>VUS → benign
benign
570k</title><text class="label" dy="0.35em" x="5" y="158.9385140766832"/></g></g><g class="nodes"><g class="node" transform="translate(0,36.5)"><title>Benign</title><line x1="0" x2="0" y1="0" y2="14.971863343909796" style="display: inline; stroke: rgb(0, 0, 0);"/><rect class="node-body" width="1" height="14.971863343909796" style="fill: none;"/><text class="node-value" dy=".35em" text-anchor="middle" transform="translate(0.5,7.485931671954898) rotate(-90)" style="display: none;"/><text class="node-title" dy=".35em" text-anchor="end" transform="translate(-4,7.485931671954898)" style="display: inline;">Benign</text><rect class="node-click-target" x="-5" y="-5" width="10" height="19.971863343909796" style="fill: none; visibility: hidden; pointer-events: all;"/></g><g class="node" transform="translate(0,106.22186334390977)"><title>VUS</title><line x1="0" x2="0" y1="0" y2="159.96171308257033" style="display: inline; stroke: rgb(0, 0, 0);"/><rect class="node-body" width="1" height="159.96171308257033" style="fill: none;"/><text class="node-value" dy=".35em" text-anchor="middle" transform="translate(0.5,79.98085654128516) rotate(-90)" style="display: none;"/><text class="node-title" dy=".35em" text-anchor="end" transform="translate(-4,79.98085654128516)" style="display: inline;">VUS</text><rect class="node-click-target" x="-5" y="-5" width="10" height="164.96171308257033" style="fill: none; visibility: hidden; pointer-events: all;"/></g><g class="node" transform="translate(0,320.9335764264801)"><title>Pathogenic</title><line x1="0" x2="0" y1="0" y2="7.566423573519899" style="display: inline; stroke: rgb(0, 0, 0);"/><rect class="node-body" width="1" height="7.566423573519899" style="fill: none;"/><text class="node-value" dy=".35em" text-anchor="middle" transform="translate(0.5,3.7832117867599493) rotate(-90)" style="display: none;"/><text class="node-title" dy=".35em" text-anchor="end" transform="translate(-4,3.7832117867599493)" style="display: inline;">Pathogenic</text><rect class="node-click-target" x="-5" y="-5" width="10" height="12.566423573519899" style="fill: none; visibility: hidden; pointer-events: all;"/></g><g class="node" transform="translate(169.5,36.5)"><title>benign</title><line x1="0" x2="0" y1="-5" y2="119.31136211494078" style="display: inline; stroke: rgb(0, 0, 0);"/><rect class="node-body" width="1" height="119.31136211494078" style="fill: none;"/><text class="node-value" dy=".35em" text-anchor="middle" transform="translate(0.5,59.65568105747039) rotate(-90)" style="display: none;"/><text class="node-title" dy=".35em" text-anchor="start" transform="translate(-4,-10)" style="display: inline;">benign</text><rect class="node-click-target" x="-5" y="-5" width="10" height="124.31136211494078" style="fill: none; visibility: hidden; pointer-events: all;"/></g><g class="node" transform="translate(169.5,210.56136211494078)"><title>ambiguous</title><line x1="0" x2="0" y1="-5" y2="18.09820206944815" style="display: inline; stroke: rgb(0, 0, 0);"/><rect class="node-body" width="1" height="18.09820206944815" style="fill: none;"/><text class="node-value" dy=".35em" text-anchor="middle" transform="translate(0.5,9.049101034724075) rotate(-90)" style="display: none;"/><text class="node-title" dy=".35em" text-anchor="start" transform="translate(-4,-10)" style="display: inline;">ambiguous</text><rect class="node-click-target" x="-5" y="-5" width="10" height="23.09820206944815" style="fill: none; visibility: hidden; pointer-events: all;"/></g><g class="node" transform="translate(169.5,283.40956418438896)"><title>pathogenic</title><line x1="0" x2="0" y1="-5" y2="45.0904358156111" style="display: inline; stroke: rgb(0, 0, 0);"/><rect class="node-body" width="1" height="45.0904358156111" style="fill: none;"/><text class="node-value" dy=".35em" text-anchor="middle" transform="translate(0.5,22.54521790780555) rotate(-90)" style="display: none;"/><text class="node-title" dy=".35em" text-anchor="start" transform="translate(-4,-10)" style="display: inline;">pathogenic</text><rect class="node-click-target" x="-5" y="-5" width="10" height="50.0904358156111" style="fill: none; visibility: hidden; pointer-events: all;"/></g><g class="node" transform="translate(339,36.5)"><title>Unassigned</title><line x1="0" x2="0" y1="0" y2="114.19684569678543" style="display: inline; stroke: rgb(0, 0, 0);"/><rect class="node-body" width="1" height="114.19684569678543" style="fill: none;"/><text class="node-value" dy=".35em" text-anchor="middle" transform="translate(0.5,57.098422848392715) rotate(-90)" style="display: none;"/><text class="node-title" dy=".35em" text-anchor="start" transform="translate(5,57.098422848392715)" style="display: inline;">Unassigned</text><rect class="node-click-target" x="-5" y="-5" width="10" height="119.19684569678543" style="fill: none; visibility: hidden; pointer-events: all;"/></g><g class="node" transform="translate(339,187.19684569678543)"><title>Stability</title><line x1="0" x2="0" y1="0" y2="29.58497862596502" style="display: inline; stroke: rgb(0, 0, 0);"/><rect class="node-body" width="1" height="29.58497862596502" style="fill: none;"/><text class="node-value" dy=".35em" text-anchor="middle" transform="translate(0.5,14.79248931298251) rotate(-90)" style="display: none;"/><text class="node-title" dy=".35em" text-anchor="start" transform="translate(5,14.79248931298251)" style="display: inline;">Stability</text><rect class="node-click-target" x="-5" y="-5" width="10" height="34.58497862596502" style="fill: none; visibility: hidden; pointer-events: all;"/></g><g class="node" transform="translate(339,253.28182432275045)"><title>Interface</title><line x1="0" x2="0" y1="0" y2="11.959932166175662" style="display: inline; stroke: rgb(0, 0, 0);"/><rect class="node-body" width="1" height="11.959932166175662" style="fill: none;"/><text class="node-value" dy=".35em" text-anchor="middle" transform="translate(0.5,5.979966083087831) rotate(-90)" style="display: none;"/><text class="node-title" dy=".35em" text-anchor="start" transform="translate(5,5.979966083087831)" style="display: inline;">Interface</text><rect class="node-click-target" x="-5" y="-5" width="10" height="16.959932166175662" style="fill: none; visibility: hidden; pointer-events: all;"/></g><g class="node" transform="translate(339,301.7417564889261)"><title>Pockets</title><line x1="0" x2="0" y1="0" y2="26.758243511073886" style="display: inline; stroke: rgb(0, 0, 0);"/><rect class="node-body" width="1" height="26.758243511073886" style="fill: none;"/><text class="node-value" dy=".35em" text-anchor="middle" transform="translate(0.5,13.379121755536943) rotate(-90)" style="display: none;"/><text class="node-title" dy=".35em" text-anchor="start" transform="translate(5,13.379121755536943)" style="display: inline;">Pockets</text><rect class="node-click-target" x="-5" y="-5" width="10" height="31.758243511073886" style="fill: none; visibility: hidden; pointer-events: all;"/></g></g><g class="slice-titles"/></g></svg>