<?xml version="1.0" standalone="no"?><!DOCTYPE svg PUBLIC "-//W3C//DTD SVG 1.1//EN" "http://www.w3.org/Graphics/SVG/1.1/DTD/svg11.dtd"><svg xmlns="http://www.w3.org/2000/svg" width="600" height="400" viewBox="0 0 600 400" style="font-family: &quot;Helvetica Neue&quot;, Helvetica, Arial, sans-serif;"><g class="sankey" transform="translate(130,25)"><g class="groups"><g class="group" transform="translate(0,36.5)" style="display: inline;"><rect x="-10" y="-20" width="21" height="322" style="fill: rgb(238, 238, 238); stroke: rgb(187, 187, 187); stroke-width: 0.5;"/><text x="-10" y="-25" style="fill: rgb(153, 153, 153);">Known annotations</text></g><g class="group" transform="translate(169.5,36.5)" style="display: inline;"><rect x="-10" y="-20" width="21" height="322" style="fill: rgb(238, 238, 238); stroke: rgb(187, 187, 187); stroke-width: 0.5;"/><text x="-10" y="-25" style="fill: rgb(153, 153, 153);">EVE</text></g><g class="group" transform="translate(339,36.5)" style="display: inline;"><rect x="-10" y="-20" width="21" height="322" style="fill: rgb(238, 238, 238); stroke: rgb(187, 187, 187); stroke-width: 0.5;"/><text x="-10" y="-25" style="fill: rgb(153, 153, 153);">Structural mechanisms</text></g></g><g class="links"><g class="link" style="opacity: 0.8;"><path d="M170.5,207.21873052150426 A89.03585748445859 89.03585748445859 0.3768536760114187 0 1 203.26490694262426,213.46663724600023 L307.22141306243935,254.60940280341686 A86.35561647053795 86.35561647053795 0.3768536760114187 0 0 339,260.6692291709952 L339,263.34947018491584 A89.03585748445859 89.03585748445859 0.3768536760114187 0 1 306.23509305737576,257.10156346041987 L202.27858693756068,215.95879790300324 A86.35561647053795 86.35561647053795 0.3768536760114187 0 0 170.5,209.8989715354249 Z" style="fill: rgb(127, 127, 127);"/><title>Pred. ambigous → Interface
Pred. ambigous
5.16k</title><text class="label" dy="0.35em" x="174.5" y="208.55885102846457"/></g><g class="link" style="opacity: 0.8;"><path d="M170.5,209.8989715354249 A57.06614659585881 57.06614659585881 0.7064162120653841 0 1 207.5423081530651,223.5552978829411 L302.28603208292833,304.4016639195044 A56.56031656056257 56.56031656056257 0.7064162120653841 0 0 339,317.93694161645544 L339,320.81820070642016 A59.44157565052724 59.44157565052724 0.7064162120653841 0 1 300.41577285839827,306.59341764119944 L205.672048928535,225.74705160463617 A54.18488750589414 54.18488750589414 0.7064162120653841 0 0 170.5,212.78023062538955 Z" style="fill: rgb(127, 127, 127);"/><title>Pred. ambigous → Pockets
Pred. ambigous
5.55k</title><text class="label" dy="0.35em" x="174.5" y="211.33960108040722"/></g><g class="link" style="opacity: 0.8;"><path d="M1,311.83004363183045 A55.365816218065255 55.365816218065255 0.6713575508577897 0 0 35.440277867194915,299.81443924626933 L133.0503071149441,222.26657067052966 A58.596129951703325 58.596129951703325 0.6713575508577897 0 1 169.5,209.5499168917515 L169.5,212.78023062538958 A55.365816218065255 55.365816218065255 0.6713575508577897 0 0 135.0597221328051,224.7958350109507 L37.44969288505589,302.34370358669037 A58.596129951703325 58.596129951703325 0.6713575508577897 0 1 1,315.06035736546846 Z" style="fill: rgb(127, 127, 127);"/><title>Pathogenic → Pred. ambigous
Pred. ambigous
6.22k</title><text class="label" dy="0.35em" x="5" y="313.44520049864946"/></g><g class="link" style="opacity: 0.8;"><path d="M1,57.68637024724704 A58.5607456495585 58.5607456495585 0.8376005106816808 0 1 44.512941775278215,77.05547355952228 L132.15347171923813,174.35931308191587 A50.26184059994538 50.26184059994538 0.8376005106816808 0 0 169.5,190.98353417826718 L169.5,194.34889881570746 A53.627205237385645 53.627205237385645 0.8376005106816808 0 1 129.65287317157222,176.61157551030752 L42.01234322761231,79.30773598791393 A55.19538101211823 55.19538101211823 0.8376005106816808 0 0 1,61.051734884687306 Z" style="fill: rgb(127, 127, 127);"/><title>Benign → Pred. ambigous
Pred. ambigous
6.48k</title><text class="label" dy="0.35em" x="5" y="59.36905256596717"/></g><g class="link" style="opacity: 0.8;"><path d="M170.5,202.18444836900062 A368.60990942459136 368.60990942459136 0.08370256288455225 0 0 201.317579416456,200.89393963666222 L307.76153013520576,191.96344236781593 A373.64419157709494 373.64419157709494 0.08370256288455225 0 1 339,190.65530853937253 L339,195.68959069187616 A368.60990942459136 368.60990942459136 0.08370256288455225 0 0 308.182420583544,196.98009942421456 L201.73846986479424,205.91059669306085 A373.64419157709494 373.64419157709494 0.08370256288455225 0 1 170.5,207.21873052150426 Z" style="fill: rgb(127, 127, 127);"/><title>Pred. ambigous → Stability
Pred. ambigous
9.69k</title><text class="label" dy="0.35em" x="174.5" y="204.70158944525244"/></g><g class="link" style="opacity: 0.8;"><path d="M170.5,314.4635362559734 A87.81004209326905 87.81004209326905 0.3612956643065246 0 0 201.53966842706234,308.7944856125262 L305.71404318945645,269.4287804493917 A94.16470654371575 94.16470654371575 0.3612956643065246 0 1 339,263.34947018491584 L339,269.7041346353626 A87.81004209326905 87.81004209326905 0.3612956643065246 0 0 307.96033157293766,275.3731852788098 L203.78595681054355,314.7388904419443 A94.16470654371575 94.16470654371575 0.3612956643065246 0 1 170.5,320.81820070642016 Z" style="fill: rgb(214, 39, 40);"/><title>Pred. pathogenic → Interface
Pred. pathogenic
12.2k</title><text class="label" dy="0.35em" x="174.5" y="317.6408684811968"/></g><g class="link" style="opacity: 0.8;"><path d="M1,305.08580926656964 A47.22090227707976 47.22090227707976 0.9974141191180623 0 0 40.66891133334539,283.4811339850624 L124.1654528540012,154.1796212058241 A53.96513664234051 53.96513664234051 0.9974141191180623 0 1 169.5,129.48929981300643 L169.5,136.23353417826718 A47.22090227707976 47.22090227707976 0.9974141191180623 0 0 129.8310886666546,157.83820945977442 L46.3345471459988,287.13972223901277 A53.96513664234051 53.96513664234051 0.9974141191180623 0 1 1,311.83004363183045 Z" style="fill: rgb(31, 119, 180);"/><title>Pathogenic → Pred. benign
Pred. benign
13.0k</title><text class="label" dy="0.35em" x="5" y="308.45792644920004"/></g><g class="link" style="opacity: 0.8;"><path d="M1,61.051734884687306 A55.19538101211823 55.19538101211823 1.099263666582809 0 1 50.172081319950934,91.17449130868087 L126.73783685233826,241.3341821750781 A48.00028439877936 48.00028439877936 1.099263666582809 0 0 169.5,267.53023062538955 L169.5,274.72532723872837 A55.19538101211823 55.19538101211823 1.099263666582809 0 1 120.32791868004907,244.60257081473483 L43.76216314766174,94.4428799483376 A48.00028439877936 48.00028439877936 1.099263666582809 0 0 1,68.24683149802618 Z" style="fill: rgb(214, 39, 40);"/><title>Benign → Pred. pathogenic
Pred. pathogenic
13.9k</title><text class="label" dy="0.35em" x="5" y="64.64928319135674"/></g><g class="link" style="opacity: 0.8;"><path d="M170.5,320.8182007064201 A0 0 0 0 0 170.5,320.8182007064201 L339,320.8182007064201 A0 0 0 0 0 339,320.8182007064201 L339,328.49999999999994 A0 0 0 0 0 339,328.49999999999994 L170.5,328.49999999999994 A0 0 0 0 0 170.5,328.49999999999994 Z" style="fill: rgb(214, 39, 40);"/><title>Pred. pathogenic → Pockets
Pred. pathogenic
14.8k</title><text class="label" dy="0.35em" x="174.5" y="324.65910035321"/></g><g class="link" style="opacity: 0.8;"><path d="M170.5,114.99522127571161 A66.06582248202527 66.06582248202527 0.8633355100625013 0 1 220.71098666560744,138.1244658981465 L303.3182642587328,234.72724889763256 A46.948753168951036 46.948753168951036 0.8633355100625013 0 0 339,251.1637232495325 L339,260.6692291709952 A56.454259090413736 56.454259090413736 0.8633355100625013 0 1 296.09394140704546,240.9049347230489 L213.48666381392007,144.30215172356284 A56.56031656056257 56.56031656056257 0.8633355100625013 0 0 170.5,124.50072719717433 Z" style="fill: rgb(31, 119, 180);"/><title>Pred. benign → Interface
Pred. benign
18.3k</title><text class="label" dy="0.35em" x="174.5" y="119.74797423644297"/></g><g class="link" style="opacity: 0.8;"><path d="M170.5,104.45605651360897 A76.60498724412791 76.60498724412791 0.5226583489328203 0 1 208.7400870349615,114.68318740313946 L307.86654817854856,171.78964895183265 A62.368521218779236 62.368521218779236 0.5226583489328203 0 0 339,180.11614377726988 L339,190.65530853937253 A72.90768598088188 72.90768598088188 0.5226583489328203 0 1 302.6055515740553,180.92178498948874 L203.47909043046826,123.81532344079552 A66.06582248202527 66.06582248202527 0.5226583489328203 0 0 170.5,114.99522127571161 Z" style="fill: rgb(31, 119, 180);"/><title>Pred. benign → Stability
Pred. benign
20.3k</title><text class="label" dy="0.35em" x="174.5" y="109.72563889466029"/></g><g class="link" style="opacity: 0.8;"><path d="M170.5,190.98353417826718 A56.59814505861008 56.59814505861008 0.5949971344379633 0 0 202.22362147993564,181.25714889324823 L296.3995311601659,117.51725677792103 A76.0035393968716 76.0035393968716 0.5949971344379633 0 1 339,104.45605651360897 L339,115.65697070434241 A64.80262520613816 64.80262520613816 0.5949971344379633 0 0 302.6777150414239,126.79329504117146 L208.50180536119362,190.53318715649866 A67.79905924934351 67.79905924934351 0.5949971344379633 0 1 170.5,202.18444836900062 Z" style="fill: rgb(127, 127, 127);"/><title>Pred. ambigous → Unassigned
Pred. ambigous
21.6k</title><text class="label" dy="0.35em" x="174.5" y="196.5839912736339"/></g><g class="link" style="opacity: 0.8;"><path d="M170.5,124.50072719717433 A56.56031656056257 56.56031656056257 1.0189919637673652 0 1 218.6656353533101,151.41073211615355 L300.8257886182475,284.8763101703518 A44.82750957946969 44.82750957946969 1.0189919637673652 0 0 339,306.20413463536255 L339,317.9369416164554 A56.56031656056257 56.56031656056257 1.0189919637673652 0 1 290.83436464668995,291.0269366974762 L208.6742113817525,157.5613586432779 A44.82750957946969 44.82750957946969 1.0189919637673652 0 0 170.5,136.2335341782672 Z" style="fill: rgb(31, 119, 180);"/><title>Pred. benign → Pockets
Pred. benign
22.6k</title><text class="label" dy="0.35em" x="174.5" y="130.36713068772076"/></g><g class="link" style="opacity: 0.8;"><path d="M1,315.0603573654685 A0 0 0 0 0 1,315.0603573654685 L169.5,315.0603573654685 A0 0 0 0 0 169.5,315.0603573654685 L169.5,328.49999999999994 A0 0 0 0 0 169.5,328.49999999999994 L1,328.49999999999994 A0 0 0 0 0 1,328.49999999999994 Z" style="fill: rgb(214, 39, 40);"/><title>Pathogenic → Pred. pathogenic
Pred. pathogenic
25.9k</title><text class="label" dy="0.35em" x="5" y="321.78017868273423"/></g><g class="link" style="opacity: 0.8;"><path d="M1,194.79976106378558 A992.399490961978 992.399490961978 0.002719629223541409 0 0 3.6989553299603384,194.7960909826292 L166.75970358801493,194.35262511310583 A1007.600509038022 1007.600509038022 0.002719629223541409 0 1 169.5,194.34889881570746 L169.5,209.54991689175148 A992.399490961978 992.399490961978 0.002719629223541409 0 0 166.8010446700397,209.55358697290785 L3.7402964119850712,209.99705284243123 A1007.600509038022 1007.600509038022 0.002719629223541409 0 1 1,210.0007791398296 Z" style="fill: rgb(127, 127, 127);"/><title>VUS → Pred. ambigous
Pred. ambigous
29.3k</title><text class="label" dy="0.35em" x="5" y="202.4002701018076"/></g><g class="link" style="opacity: 0.8;"><path d="M170.5,295.48940369831706 A64.80262520613817 64.80262520613817 0.6890325240624307 0 0 211.70090789805175,280.70542923351206 L296.31883433435223,211.00472075867953 A67.13084063186034 67.13084063186034 0.6890325240624307 0 1 339,195.68959069187616 L339,214.6637232495325 A48.156708074204 48.156708074204 0.6890325240624307 0 0 308.38241178151054,225.65012295499787 L223.76448534521012,295.35083142983046 A83.7767577637945 83.7767577637945 0.6890325240624307 0 1 170.5,314.46353625597345 Z" style="fill: rgb(214, 39, 40);"/><title>Pred. pathogenic → Stability
Pred. pathogenic
36.5k</title><text class="label" dy="0.35em" x="174.5" y="304.97646997714526"/></g><g class="link" style="opacity: 0.8;"><path d="M1,36.5 A0 0 0 0 0 1,36.5 L169.5,36.5 A0 0 0 0 0 169.5,36.5 L169.5,57.68637024724704 A0 0 0 0 0 169.5,57.68637024724704 L1,57.68637024724704 A0 0 0 0 0 1,57.68637024724704 Z" style="fill: rgb(31, 119, 180);"/><title>Benign → Pred. benign
Pred. benign
40.8k</title><text class="label" dy="0.35em" x="5" y="47.09318512362352"/></g><g class="link" style="opacity: 0.8;"><path d="M170.5,267.53023062538955 A36.84345213321067 36.84345213321067 0.9061011753775798 0 0 199.49966016552486,253.41252766302594 L287.99353887856984,140.48809159208835 A64.80262520613816 64.80262520613816 0.9061011753775798 0 1 339,115.65697070434241 L339,143.6161437772699 A36.84345213321067 36.84345213321067 0.9061011753775798 0 0 310.00033983447514,157.7338467396335 L221.50646112143016,270.6582828105711 A64.80262520613816 64.80262520613816 0.9061011753775798 0 1 170.5,295.489403698317 Z" style="fill: rgb(214, 39, 40);"/><title>Pred. pathogenic → Unassigned
Pred. pathogenic
53.8k</title><text class="label" dy="0.35em" x="174.5" y="281.5098171618533"/></g><g class="link" style="opacity: 0.8;"><path d="M1,210.00077913982963 A95.67561380703899 95.67561380703899 0.45020529141041554 0 1 42.63327960917746,219.5341088679233 L145.41852403744434,269.2110691056844 A55.3405836802989 55.3405836802989 0.45020529141041554 0 0 169.5,274.7253272387284 L169.5,315.0603573654685 A95.67561380703899 95.67561380703899 0.45020529141041554 0 1 127.86672039082254,305.5270276373749 L25.08147596255565,255.8500673996138 A55.3405836802989 55.3405836802989 0.45020529141041554 0 0 1,250.33580926656973 Z" style="fill: rgb(214, 39, 40);"/><title>VUS → Pred. pathogenic
Pred. pathogenic
77.7k</title><text class="label" dy="0.35em" x="5" y="230.16829420319968"/></g><g class="link" style="opacity: 0.8;"><path d="M170.5,36.50000000000001 A0 0 0 0 0 170.5,36.50000000000001 L339,36.50000000000001 A0 0 0 0 0 339,36.50000000000001 L339,104.45605651360898 A0 0 0 0 0 339,104.45605651360898 L170.5,104.45605651360898 A0 0 0 0 0 170.5,104.45605651360898 Z" style="fill: rgb(31, 119, 180);"/><title>Pred. benign → Unassigned
Pred. benign
131k</title><text class="label" dy="0.35em" x="174.5" y="70.47802825680449"/></g><g class="link" style="opacity: 0.8;"><path d="M1,122.99683149802617 A39.104221266535376 39.104221266535376 0.468051103009401 0 0 18.641785414815473,118.79114212381774 L112.76000712413148,71.21282346724263 A125.76806620809991 125.76806620809991 0.468051103009401 0 1 169.5,57.68637024724704 L169.5,129.48929981300643 A53.96513664234051 53.96513664234051 0.468051103009401 0 0 145.1537445398483,135.29329218015852 L51.0355228305323,182.87161083673362 A110.90715083229478 110.90715083229478 0.468051103009401 0 1 1,194.79976106378558 Z" style="fill: rgb(31, 119, 180);"/><title>VUS → Pred. benign
Pred. benign
138k</title><text class="label" dy="0.35em" x="5" y="158.89829628090587"/></g></g><g class="nodes"><g class="node" transform="translate(0,36.5)"><title>Benign</title><line x1="0" x2="0" y1="0" y2="31.746831498026182" style="display: inline; stroke: rgb(0, 0, 0);"/><rect class="node-body" width="1" height="31.746831498026182" style="fill: none;"/><text class="node-value" dy=".35em" text-anchor="middle" transform="translate(0.5,15.873415749013091) rotate(-90)" style="display: none;"/><text class="node-title" dy=".35em" text-anchor="end" transform="translate(-4,15.873415749013091)" style="display: inline;">Benign</text><rect class="node-click-target" x="-5" y="-5" width="10" height="36.74683149802618" style="fill: none; visibility: hidden; pointer-events: all;"/></g><g class="node" transform="translate(0,122.99683149802618)"><title>VUS</title><line x1="0" x2="0" y1="0" y2="127.33897776854351" style="display: inline; stroke: rgb(0, 0, 0);"/><rect class="node-body" width="1" height="127.33897776854351" style="fill: none;"/><text class="node-value" dy=".35em" text-anchor="middle" transform="translate(0.5,63.66948888427176) rotate(-90)" style="display: none;"/><text class="node-title" dy=".35em" text-anchor="end" transform="translate(-4,63.66948888427176)" style="display: inline;">VUS</text><rect class="node-click-target" x="-5" y="-5" width="10" height="132.33897776854351" style="fill: none; visibility: hidden; pointer-events: all;"/></g><g class="node" transform="translate(0,305.0858092665697)"><title>Pathogenic</title><line x1="0" x2="0" y1="0" y2="23.414190733430303" style="display: inline; stroke: rgb(0, 0, 0);"/><rect class="node-body" width="1" height="23.414190733430303" style="fill: none;"/><text class="node-value" dy=".35em" text-anchor="middle" transform="translate(0.5,11.707095366715151) rotate(-90)" style="display: none;"/><text class="node-title" dy=".35em" text-anchor="end" transform="translate(-4,11.707095366715151)" style="display: inline;">Pathogenic</text><rect class="node-click-target" x="-5" y="-5" width="10" height="28.414190733430303" style="fill: none; visibility: hidden; pointer-events: all;"/></g><g class="node" transform="translate(169.5,36.5)"><title>Pred. benign</title><line x1="0" x2="0" y1="-5" y2="99.73353417826718" style="display: inline; stroke: rgb(0, 0, 0);"/><rect class="node-body" width="1" height="99.73353417826718" style="fill: none;"/><text class="node-value" dy=".35em" text-anchor="middle" transform="translate(0.5,49.86676708913359) rotate(-90)" style="display: none;"/><text class="node-title" dy=".35em" text-anchor="start" transform="translate(-4,-10)" style="display: inline;">Pred. benign</text><rect class="node-click-target" x="-5" y="-5" width="10" height="104.73353417826718" style="fill: none; visibility: hidden; pointer-events: all;"/></g><g class="node" transform="translate(169.5,190.98353417826718)"><title>Pred. ambigous</title><line x1="0" x2="0" y1="-5" y2="21.796696447122372" style="display: inline; stroke: rgb(0, 0, 0);"/><rect class="node-body" width="1" height="21.796696447122372" style="fill: none;"/><text class="node-value" dy=".35em" text-anchor="middle" transform="translate(0.5,10.898348223561186) rotate(-90)" style="display: none;"/><text class="node-title" dy=".35em" text-anchor="start" transform="translate(-4,-10)" style="display: inline;">Pred. ambigous</text><rect class="node-click-target" x="-5" y="-5" width="10" height="26.796696447122372" style="fill: none; visibility: hidden; pointer-events: all;"/></g><g class="node" transform="translate(169.5,267.53023062538955)"><title>Pred. pathogenic</title><line x1="0" x2="0" y1="-5" y2="60.96976937461045" style="display: inline; stroke: rgb(0, 0, 0);"/><rect class="node-body" width="1" height="60.96976937461045" style="fill: none;"/><text class="node-value" dy=".35em" text-anchor="middle" transform="translate(0.5,30.484884687305225) rotate(-90)" style="display: none;"/><text class="node-title" dy=".35em" text-anchor="start" transform="translate(-4,-10)" style="display: inline;">Pred. pathogenic</text><rect class="node-click-target" x="-5" y="-5" width="10" height="65.96976937461045" style="fill: none; visibility: hidden; pointer-events: all;"/></g><g class="node" transform="translate(339,36.5)"><title>Unassigned</title><line x1="0" x2="0" y1="0" y2="107.11614377726988" style="display: inline; stroke: rgb(0, 0, 0);"/><rect class="node-body" width="1" height="107.11614377726988" style="fill: none;"/><text class="node-value" dy=".35em" text-anchor="middle" transform="translate(0.5,53.55807188863494) rotate(-90)" style="display: none;"/><text class="node-title" dy=".35em" text-anchor="start" transform="translate(5,53.55807188863494)" style="display: inline;">Unassigned</text><rect class="node-click-target" x="-5" y="-5" width="10" height="112.11614377726988" style="fill: none; visibility: hidden; pointer-events: all;"/></g><g class="node" transform="translate(339,180.11614377726988)"><title>Stability</title><line x1="0" x2="0" y1="0" y2="34.54757947226261" style="display: inline; stroke: rgb(0, 0, 0);"/><rect class="node-body" width="1" height="34.54757947226261" style="fill: none;"/><text class="node-value" dy=".35em" text-anchor="middle" transform="translate(0.5,17.273789736131306) rotate(-90)" style="display: none;"/><text class="node-title" dy=".35em" text-anchor="start" transform="translate(5,17.273789736131306)" style="display: inline;">Stability</text><rect class="node-click-target" x="-5" y="-5" width="10" height="39.54757947226261" style="fill: none; visibility: hidden; pointer-events: all;"/></g><g class="node" transform="translate(339,251.1637232495325)"><title>Interface</title><line x1="0" x2="0" y1="0" y2="18.540411385830055" style="display: inline; stroke: rgb(0, 0, 0);"/><rect class="node-body" width="1" height="18.540411385830055" style="fill: none;"/><text class="node-value" dy=".35em" text-anchor="middle" transform="translate(0.5,9.270205692915027) rotate(-90)" style="display: none;"/><text class="node-title" dy=".35em" text-anchor="start" transform="translate(5,9.270205692915027)" style="display: inline;">Interface</text><rect class="node-click-target" x="-5" y="-5" width="10" height="23.540411385830055" style="fill: none; visibility: hidden; pointer-events: all;"/></g><g class="node" transform="translate(339,306.20413463536255)"><title>Pockets</title><line x1="0" x2="0" y1="0" y2="22.29586536463745" style="display: inline; stroke: rgb(0, 0, 0);"/><rect class="node-body" width="1" height="22.29586536463745" style="fill: none;"/><text class="node-value" dy=".35em" text-anchor="middle" transform="translate(0.5,11.147932682318725) rotate(-90)" style="display: none;"/><text class="node-title" dy=".35em" text-anchor="start" transform="translate(5,11.147932682318725)" style="display: inline;">Pockets</text><rect class="node-click-target" x="-5" y="-5" width="10" height="27.29586536463745" style="fill: none; visibility: hidden; pointer-events: all;"/></g></g><g class="slice-titles"/></g></svg>